<svg width="121" height="121" viewBox="0 0 121 121" fill="none" xmlns="http://www.w3.org/2000/svg">
<path d="M119.929 102.864L95.3477 7.67311C94.6936 5.14981 93.1013 2.9989 90.9203 1.69252C88.7394 0.386139 86.148 0.0310364 83.7149 0.705159L65.3668 5.80624C65.1649 5.86229 64.9732 5.93559 64.7779 6.00334C63.8947 4.79565 62.7544 3.81618 61.4461 3.14145C60.1377 2.46672 58.6967 2.11501 57.2356 2.11378H38.2404C36.5716 2.11428 34.9329 2.57444 33.4916 3.44725C32.0503 2.57444 30.4116 2.11428 28.7428 2.11378H9.7476C7.22955 2.11671 4.81544 3.15592 3.03491 5.00342C1.25437 6.85091 0.252828 9.35581 0.25 11.9686V110.516C0.252828 113.129 1.25437 115.634 3.03491 117.482C4.81544 119.329 7.22955 120.368 9.7476 120.371H28.7428C30.4116 120.371 32.0503 119.911 33.4916 119.038C34.9329 119.911 36.5716 120.371 38.2404 120.371H57.2356C59.7537 120.368 62.1678 119.329 63.9483 117.482C65.7288 115.634 66.7304 113.129 66.7332 110.516V49.1722L83.2329 113.066C83.5552 114.316 84.1118 115.488 84.8709 116.515C85.63 117.543 86.5768 118.404 87.6571 119.052C88.7374 119.699 89.93 120.119 91.1668 120.287C92.4036 120.456 93.6604 120.37 94.8651 120.034L113.213 114.933C115.645 114.254 117.717 112.602 118.976 110.339C120.235 108.076 120.578 105.388 119.929 102.864ZM86.1736 10.2237L89.8617 24.502L71.5135 29.6037L67.826 15.3254L86.1736 10.2237ZM57.2356 11.9686L57.2398 85.8795H38.2404V11.9686H57.2356ZM28.7428 11.9686V26.7507H9.7476V11.9686H28.7428ZM57.2356 110.516H38.2404V95.7342H57.2404L57.2416 110.516H57.2356ZM110.755 105.414L92.4064 110.515L88.7202 96.2368L107.073 91.1339L110.761 105.412L110.755 105.414Z" fill="#2D3837"/>
</svg>
