<svg width="120" height="136" viewBox="0 0 120 136" fill="none" xmlns="http://www.w3.org/2000/svg">
<path d="M112.325 30.1324L52.1552 49.682C51.449 50.1371 50.6382 50.404 49.7998 50.4574L29.1411 57.1604H115.093C116.394 57.1604 117.643 57.6774 118.563 58.5976C119.483 59.5179 120 60.766 120 62.0674V111.138C120 117.645 117.415 123.886 112.814 128.487C108.213 133.088 101.972 135.673 95.4648 135.673H26.7661C20.259 135.673 14.0184 133.088 9.41711 128.487C4.81586 123.886 2.23091 117.645 2.23091 111.138V62.0674C2.23091 61.0271 2.55477 60.0555 3.11417 59.2508L1.20043 53.3427C-0.809879 47.1544 -0.279755 40.421 2.67419 34.6235C5.62814 28.826 10.764 24.4393 16.952 22.4283L82.2844 1.20043C88.4727 -0.809879 95.2062 -0.279756 101.004 2.67419C106.801 5.62814 111.188 10.764 113.199 16.952L115.476 23.9495C115.878 25.1859 115.774 26.5314 115.185 27.6907C114.596 28.85 113.571 29.7281 112.335 30.1324H112.325ZM75.5814 31.7517L88.2023 9.90553C87.222 10.0181 86.2554 10.2285 85.317 10.5336L73.0985 14.4985L60.2616 36.7274L75.5814 31.7517V31.7517ZM98.1048 12.3296C98.0475 12.4531 97.9853 12.5743 97.9183 12.6927L89.5371 27.2176L104.631 22.3105L103.866 19.9846C102.857 16.8598 100.828 14.1642 98.1048 12.3296V12.3296ZM59.1428 19.0326L43.8328 24.0084L30.996 46.2373L46.3158 41.2616L59.1526 19.0326H59.1428ZM11.2991 52.6459L17.06 50.7812L29.8968 28.5425L19.9846 31.7615C16.2736 32.9701 13.1944 35.603 11.424 39.0813C9.65354 42.5595 9.33683 46.5984 10.5434 50.3101L11.2991 52.6459V52.6459ZM12.045 66.9745V111.138C12.045 115.042 13.596 118.787 16.3567 121.547C19.1175 124.308 22.8618 125.859 26.7661 125.859H95.4648C99.3691 125.859 103.113 124.308 105.874 121.547C108.635 118.787 110.186 115.042 110.186 111.138V66.9745H12.045Z" fill="#2B3531"/>
</svg>
