<svg width="120" height="130" viewBox="0 0 120 130" fill="none" xmlns="http://www.w3.org/2000/svg">
<path d="M106.154 46.1538V55.3846H110.769V73.8461C110.769 77.5184 109.31 81.0402 106.714 83.6368C104.117 86.2335 100.595 87.6923 96.9231 87.6923C93.2509 87.6923 89.729 86.2335 87.1324 83.6368C84.5357 81.0402 83.0769 77.5184 83.0769 73.8461V55.3846H87.6923V46.1538H73.8462V73.8461C73.8531 79.1634 75.6931 84.3158 79.056 88.4345C82.419 92.5533 87.0992 95.3867 92.3077 96.4569V101.538C92.3077 106.435 90.3626 111.131 86.9004 114.593C83.4382 118.055 78.7425 120 73.8462 120C68.9499 120 64.2541 118.055 60.7919 114.593C57.3297 111.131 55.3846 106.435 55.3846 101.538V91.4584C58.4641 90.3697 61.0595 88.2274 62.7122 85.4101C64.3648 82.5928 64.9683 79.282 64.416 76.0628C63.8637 72.8435 62.1911 69.9232 59.6938 67.818C57.1966 65.7127 54.0355 64.558 50.7692 64.558C47.503 64.558 44.3419 65.7127 41.8447 67.818C39.3474 69.9232 37.6748 72.8435 37.1225 76.0628C36.5702 79.282 37.1737 82.5928 38.8263 85.4101C40.479 88.2274 43.0744 90.3697 46.1539 91.4584V101.538C46.1539 108.883 49.0714 115.927 54.2647 121.12C59.4581 126.313 66.5017 129.231 73.8462 129.231C81.1906 129.231 88.2343 126.313 93.4276 121.12C98.6209 115.927 101.538 108.883 101.538 101.538V96.4569C106.747 95.3867 111.427 92.5533 114.79 88.4345C118.153 84.3158 119.993 79.1634 120 73.8461V46.1538H106.154ZM50.7692 73.8461C51.6821 73.8461 52.5744 74.1168 53.3334 74.624C54.0924 75.1311 54.684 75.8519 55.0333 76.6953C55.3826 77.5386 55.474 78.4666 55.2959 79.3619C55.1179 80.2572 54.6783 81.0796 54.0328 81.7251C53.3873 82.3706 52.565 82.8101 51.6697 82.9882C50.7744 83.1663 49.8464 83.0749 49.003 82.7256C48.1597 82.3763 47.4388 81.7847 46.9317 81.0257C46.4245 80.2667 46.1539 79.3744 46.1539 78.4615C46.1539 77.2374 46.6401 76.0635 47.5057 75.198C48.3712 74.3324 49.5452 73.8461 50.7692 73.8461V73.8461Z" fill="#2B3531"/>
<path d="M101.538 9.23077H83.0769V0H73.8461V9.23077H36.9231V0H27.6923V9.23077H9.23077C6.78262 9.23077 4.43473 10.2033 2.70363 11.9344C0.972524 13.6655 0 16.0134 0 18.4615V110.769C0 113.217 0.972524 115.565 2.70363 117.296C4.43473 119.027 6.78262 120 9.23077 120H27.6923V110.769H9.23077V18.4615H27.6923V27.6923H36.9231V18.4615H73.8461V27.6923H83.0769V18.4615H101.538V36.9231H110.769V18.4615C110.769 16.0134 109.797 13.6655 108.066 11.9344C106.334 10.2033 103.987 9.23077 101.538 9.23077V9.23077Z" fill="#2B3531"/>
</svg>
