<svg width="130" height="130" viewBox="0 0 130 130" fill="none" xmlns="http://www.w3.org/2000/svg">
<path d="M107.667 22.3333L103 27M5 65H11.6667H5ZM65 5V11.6667V5ZM118.333 65H125H118.333ZM22.3333 22.3333L27 27L22.3333 22.3333Z" stroke="#2B3531" stroke-width="9" stroke-linecap="round" stroke-linejoin="round"/>
<path d="M45 91.6667C39.4031 87.469 35.2688 81.6168 33.1828 74.9389C31.0968 68.2611 31.1648 61.0961 33.3772 54.4591C35.5895 47.822 39.8341 42.0493 45.5096 37.9586C51.1851 33.8679 58.0039 31.6667 65 31.6667C71.996 31.6667 78.8148 33.8679 84.4903 37.9586C90.1658 42.0493 94.4104 47.822 96.6227 54.4591C98.8351 61.0961 98.9031 68.2611 96.8171 74.9389C94.7311 81.6168 90.5968 87.469 85 91.6667C82.3971 94.2432 80.4373 97.3963 79.2791 100.871C78.1209 104.345 77.7969 108.044 78.3333 111.667C78.3333 115.203 76.9285 118.594 74.428 121.095C71.9276 123.595 68.5362 125 65 125C61.4637 125 58.0724 123.595 55.5719 121.095C53.0714 118.594 51.6666 115.203 51.6666 111.667C52.203 108.044 51.879 104.345 50.7208 100.871C49.5626 97.3963 47.6028 94.2432 45 91.6667" stroke="#2B3531" stroke-width="9" stroke-linecap="round" stroke-linejoin="round"/>
<path d="M49.6667 98.3333H80.3334" stroke="#2B3531" stroke-width="9" stroke-linecap="round" stroke-linejoin="round"/>
</svg>
