<svg width="103" height="501" viewBox="0 0 103 501" fill="none" xmlns="http://www.w3.org/2000/svg">
<g clip-path="url(#clip0_435:137)">
<path d="M14.0552 265.722C11.9305 265.752 10.1582 264.084 10.1246 261.96C10.092 259.892 11.6666 258.23 13.7291 258.081C15.8417 257.929 17.6985 259.471 17.8719 261.581C18.0519 263.773 16.2543 265.693 14.0552 265.722Z" stroke="#A88771" stroke-width="3.16122" stroke-linecap="round" stroke-linejoin="round"/>
<path d="M18.2958 261.734L41.5831 261.865" stroke="#A88771" stroke-width="3.16122" stroke-linecap="round" stroke-linejoin="round"/>
<path d="M46.4046 265.903C44.2798 265.932 42.5076 264.265 42.474 262.14C42.4413 260.073 44.0159 258.41 46.0784 258.261C48.191 258.11 50.0479 259.651 50.2212 261.762C50.4012 263.954 48.6036 265.873 46.4046 265.903Z" stroke="#A88771" stroke-width="3.16122" stroke-linecap="round" stroke-linejoin="round"/>
<path d="M52.0115 262.555L75.2988 262.685" stroke="#A88771" stroke-width="3.16122" stroke-linecap="round" stroke-linejoin="round"/>
<path d="M80.6506 266.094C78.5259 266.124 76.7536 264.456 76.72 262.332C76.6873 260.264 78.262 258.601 80.3245 258.453C82.437 258.301 84.2939 259.843 84.4673 261.953C84.6472 264.145 82.8497 266.064 80.6506 266.094Z" stroke="#A88771" stroke-width="3.16122" stroke-linecap="round" stroke-linejoin="round"/>
<path d="M18.3653 261.487C18.3653 261.487 23.5609 262.397 26.6859 259.464C29.8108 256.531 32.926 245.905 35.4794 241.547C38.0327 237.188 44.0934 236.906 44.0934 236.906" stroke="#A88771" stroke-width="3.16122" stroke-linecap="round" stroke-linejoin="round"/>
<path d="M46.4964 240.606C44.3717 240.635 42.5994 238.969 42.5658 236.843C42.5332 234.777 44.1078 233.113 46.1703 232.966C48.2829 232.813 50.1397 234.354 50.3131 236.465C50.493 238.658 48.6955 240.576 46.4964 240.606Z" stroke="#A88771" stroke-width="3.16122" stroke-linecap="round" stroke-linejoin="round"/>
<path d="M50.9375 261.637C50.9375 261.637 56.1333 262.546 59.2581 259.613C62.3831 256.68 65.4984 246.055 68.0518 241.696C70.605 237.337 76.6658 237.055 76.6658 237.055" stroke="#A88771" stroke-width="3.16122" stroke-linecap="round" stroke-linejoin="round"/>
<path d="M50.9977 236.523L74.285 236.653" stroke="#A88771" stroke-width="3.16122" stroke-linecap="round" stroke-linejoin="round"/>
<path d="M79.0688 240.756C76.9439 240.786 75.1717 239.118 75.1382 236.994C75.1055 234.926 76.6801 233.262 78.7426 233.115C80.8552 232.963 82.7121 234.505 82.8854 236.615C83.0654 238.807 81.2678 240.725 79.0688 240.756Z" stroke="#A88771" stroke-width="3.16122" stroke-linecap="round" stroke-linejoin="round"/>
<path d="M74.3998 234.966C74.3998 234.966 73.766 234.784 69.6787 231.005C65.5914 227.224 63.8145 224.633 62.7428 218.41C61.6711 212.187 63.9709 206.088 63.9709 206.088" stroke="#A88771" stroke-width="3.16122" stroke-linecap="round" stroke-linejoin="round"/>
<path d="M72.7687 234.865C72.7687 234.865 55.2064 225.384 46.8969 216.057C37.3674 205.361 36.1783 201.296 36.2424 189.811C36.2986 179.748 39.6812 171.339 48.6272 170.386C53.0873 169.911 57.3155 169.866 59.6204 173.714C62.1083 177.867 60.1721 182.766 56.287 185.656C52.473 188.491 48.4431 187.555 44.1165 185.588C36.871 182.292 36.0124 174.686 36.3713 166.735C36.8089 157.041 50.0822 146.012 50.0822 146.012" stroke="#A88771" stroke-width="3.16122" stroke-linecap="round" stroke-linejoin="round"/>
<path d="M53.4857 148.918C51.3608 148.947 49.5886 147.279 49.5551 145.155C49.5224 143.087 51.097 141.424 53.1595 141.276C55.2721 141.124 57.129 142.665 57.3023 144.777C57.4823 146.968 55.6847 148.887 53.4857 148.918Z" stroke="#A88771" stroke-width="3.16122" stroke-linecap="round" stroke-linejoin="round"/>
<path d="M36.9783 199.563C36.9783 199.563 32.7266 194.885 29.1304 193.359C25.6435 191.878 18.2082 192.503 18.2082 192.503" stroke="#A88771" stroke-width="3.16122" stroke-linecap="round" stroke-linejoin="round"/>
<path d="M35.5172 197.025C35.5172 197.025 33.8216 186.462 28.4461 183.818C26.2291 182.727 19.9527 182.028 19.9527 182.028" stroke="#A88771" stroke-width="3.16122" stroke-linecap="round" stroke-linejoin="round"/>
<path d="M53.5416 139.485L54.01 55.6083" stroke="#A88771" stroke-width="3.16122" stroke-linecap="round" stroke-linejoin="round"/>
<path d="M40.8444 60.636C42.1602 63.1523 45.0126 62.7984 47.6106 63.9446C49.996 64.9969 50.2777 67.381 52.8605 67.0235C55.302 66.6862 55.2959 64.6767 57.4209 63.4282C59.8612 61.994 62.6344 62.8515 64.0784 60.4169C65.5967 57.8574 63.0824 56.7443 62.9886 53.769C62.9076 51.1974 64.9973 48.9076 63.6595 46.7094C62.2814 44.4435 59.5044 45.9496 57.1852 44.6648C55.0656 43.4896 54.8151 40.8306 52.3944 40.7212C49.7497 40.6011 49.3506 43.5694 47.0769 44.9255C44.604 46.4007 41.9647 45.5756 40.7972 48.0412C39.6297 50.5068 41.9794 51.8108 41.9668 54.5389C41.9538 57.3502 39.5415 58.1439 40.8444 60.636Z" stroke="#B53A25" stroke-width="3.58272" stroke-linecap="round" stroke-linejoin="round"/>
<path d="M43.4973 59.1565C44.5254 61.1223 46.7541 60.8449 48.7842 61.7403C50.6481 62.5632 50.8681 64.4264 52.8862 64.1469C54.7939 63.8835 54.7892 62.3134 56.4495 61.3374C58.3563 60.2174 60.5231 60.887 61.6514 58.985C62.8378 56.9842 60.8732 56.1154 60.8 53.7904C60.7366 51.7806 62.3694 49.992 61.324 48.2738C60.2473 46.5038 58.0775 47.6803 56.2653 46.6765C54.6092 45.7589 54.4134 43.6809 52.522 43.5955C50.4556 43.5007 50.1438 45.8215 48.3671 46.88C46.435 48.0326 44.3727 47.3878 43.4604 49.3153C42.5483 51.2417 44.3842 52.2604 44.3743 54.3921C44.3642 56.5891 42.4793 57.2088 43.4973 59.1565Z" stroke="#B53A25" stroke-width="3.58272" stroke-linecap="round" stroke-linejoin="round"/>
<path d="M45.0613 58.3002C45.9126 59.9277 47.758 59.6978 49.439 60.4395C50.9824 61.1204 51.1646 62.6631 52.8358 62.4322C54.4154 62.2144 54.4115 60.9141 55.7863 60.1061C57.3652 59.1782 59.1595 59.733 60.0938 58.1576C61.0762 56.5013 59.4493 55.782 59.3887 53.8564C59.3363 52.1922 60.6883 50.7119 59.8228 49.2887C58.931 47.8232 57.1343 48.7973 55.6339 47.966C54.2625 47.2059 54.1004 45.4853 52.5342 45.4144C50.823 45.3364 50.5648 47.258 49.0936 48.135C47.4938 49.0892 45.7861 48.5549 45.0307 50.1502C44.2753 51.7456 45.7956 52.5898 45.7874 54.3547C45.7791 56.1735 44.2183 56.6874 45.0613 58.3002Z" stroke="#B9C6B4" stroke-width="3.05585" stroke-linecap="round" stroke-linejoin="round"/>
<path d="M46.862 57.2143C47.5113 58.4561 48.9193 58.2817 50.2016 58.8473C51.3791 59.3671 51.5181 60.5438 52.793 60.3676C53.998 60.2005 53.995 59.2089 55.0439 58.592C56.2484 57.8842 57.6173 58.3081 58.33 57.1066C59.0794 55.8431 57.8383 55.2935 57.792 53.8253C57.7521 52.5553 58.7835 51.4252 58.1232 50.3403C57.4429 49.2216 56.0723 49.9653 54.9275 49.3309C53.8814 48.7507 53.7577 47.4392 52.5629 47.384C51.2575 47.3251 51.0605 48.7909 49.9382 49.4601C48.7177 50.1877 47.4149 49.78 46.8386 50.997C46.2624 52.2141 47.4222 52.8581 47.416 54.2047C47.4095 55.5925 46.2189 55.9842 46.862 57.2143Z" stroke="#B9C6B4" stroke-width="3.05585" stroke-linecap="round" stroke-linejoin="round"/>
<path d="M50.4993 57.2547C52.3894 58.456 54.9903 57.7233 56.0307 55.7397C57.0659 53.7665 56.2149 51.2359 54.1722 50.3457C52.2811 49.5216 50.1696 50.2885 49.1915 52.104C48.2076 53.9309 48.7481 56.1416 50.4993 57.2547Z" stroke="#B53A25" stroke-width="2.21286" stroke-linecap="round" stroke-linejoin="round"/>
<path d="M50.8792 56.5697C52.3582 57.5094 54.3933 56.936 55.2074 55.3841C56.0174 53.8407 55.3517 51.8591 53.7532 51.1631C52.2734 50.5184 50.6213 51.1182 49.856 52.5397C49.086 53.9695 49.509 55.6979 50.8792 56.5697Z" stroke="#B53A25" stroke-width="2.21286" stroke-linecap="round" stroke-linejoin="round"/>
<path d="M53.5741 54.4951C53.2686 55.0772 52.4951 55.2762 51.9731 54.9445C51.4731 54.6267 51.3045 54.0019 51.6031 53.4472C51.9004 52.8956 52.5045 52.6925 53.0453 52.9273C53.6109 53.1739 53.8787 53.9151 53.5741 54.4951Z" stroke="#B9C6B4" stroke-width="2.21286" stroke-linecap="round" stroke-linejoin="round"/>
<path d="M42.9233 110.958C47.9992 116.123 53.6419 115.759 53.6419 115.759C53.6419 115.759 50.0145 114.474 49.7574 110.996C49.5003 107.519 49.3291 103.905 46.336 101.14C43.9124 98.9024 38.4118 98.213 38.4118 98.213C38.4118 98.213 39.2218 107.192 42.9233 110.958Z" stroke="#A88771" stroke-width="1.89673" stroke-linecap="round" stroke-linejoin="round"/>
<path d="M43.8817 110.568C48.0532 115.36 52.5296 115.588 52.5296 115.588C52.5296 115.588 49.6121 114.174 49.3161 111.245C49.0201 108.317 48.7888 105.283 46.3364 102.692C44.3506 100.594 39.9594 99.4989 39.9594 99.4989C39.9594 99.4989 40.8399 107.075 43.8817 110.568Z" stroke="#A88771" stroke-width="1.89673" stroke-linecap="round" stroke-linejoin="round"/>
<path d="M44.4115 111.335C48.2132 115.592 52.5296 115.588 52.5296 115.588C52.5296 115.588 49.7773 114.413 49.6324 111.703C49.4874 108.994 49.41 106.182 47.1642 103.891C45.3456 102.035 41.1534 101.228 41.1534 101.228C41.1534 101.228 41.6393 108.232 44.4115 111.335Z" stroke="#A88771" stroke-width="1.89673" stroke-linecap="round" stroke-linejoin="round"/>
<path d="M45.318 110.695C48.5689 114.585 51.7231 115.062 51.7231 115.062C51.7231 115.062 49.5812 113.798 49.1743 111.574C48.7674 109.35 48.3988 107.051 46.5031 104.934C44.968 103.219 41.8146 102.096 41.8146 102.096C41.8146 102.096 42.9476 107.858 45.318 110.695Z" stroke="#A88771" stroke-width="1.89673" stroke-linecap="round" stroke-linejoin="round"/>
<path d="M45.9455 109.873C48.2431 112.7 50.3066 113.185 50.3066 113.185C50.3066 113.185 48.8581 112.213 48.4833 110.669C48.1083 109.125 47.7544 107.533 46.4222 105.988C45.3434 104.737 43.2479 103.809 43.2479 103.809C43.2479 103.809 44.2702 107.812 45.9455 109.873Z" stroke="#A88771" stroke-width="1.89673" stroke-linecap="round" stroke-linejoin="round"/>
<path d="M46.3377 108.548C48.0763 110.794 49.409 111.365 49.409 111.365C49.409 111.365 48.4031 110.52 47.9988 109.391C47.5947 108.262 47.1979 107.102 46.2003 105.866C45.3925 104.865 43.9907 103.979 43.9907 103.979C43.9907 103.979 45.0699 106.91 46.3377 108.548Z" stroke="#A88771" stroke-width="1.89673" stroke-linecap="round" stroke-linejoin="round"/>
<path d="M65.2329 111.098C60.0995 116.205 54.4614 115.778 54.4614 115.778C54.4614 115.778 58.1027 114.535 58.3987 111.06C58.6946 107.585 58.9062 103.973 61.93 101.243C64.3784 99.0313 69.8863 98.4035 69.8863 98.4035C69.8863 98.4035 68.976 107.374 65.2329 111.098Z" stroke="#A88771" stroke-width="1.89673" stroke-linecap="round" stroke-linejoin="round"/>
<path d="M64.2788 110.697C60.0541 115.442 55.5753 115.62 55.5753 115.62C55.5753 115.62 58.5086 114.238 58.8373 111.314C59.1659 108.388 59.4311 105.357 61.9122 102.794C63.9213 100.718 68.3245 99.673 68.3245 99.673C68.3245 99.673 67.3595 107.238 64.2788 110.697Z" stroke="#A88771" stroke-width="1.89673" stroke-linecap="round" stroke-linejoin="round"/>
<path d="M63.7404 111.459C59.8914 115.671 55.5753 115.62 55.5753 115.62C55.5753 115.62 58.3406 114.475 58.5158 111.768C58.691 109.06 58.7998 106.25 61.071 103.983C62.9102 102.148 67.1113 101.388 67.1113 101.388C67.1113 101.388 66.5472 108.386 63.7404 111.459Z" stroke="#A88771" stroke-width="1.89673" stroke-linecap="round" stroke-linejoin="round"/>
<path d="M62.8412 110.808C59.547 114.661 56.3877 115.103 56.3877 115.103C56.3877 115.103 58.5437 113.864 58.9752 111.644C59.4069 109.424 59.8012 107.129 61.7205 105.033C63.2746 103.336 66.4404 102.248 66.4404 102.248C66.4404 102.248 65.2432 107.997 62.8412 110.808Z" stroke="#A88771" stroke-width="1.89673" stroke-linecap="round" stroke-linejoin="round"/>
<path d="M62.2228 109.98C59.8939 112.78 57.8251 113.243 57.8251 113.243C57.8251 113.243 59.2843 112.286 59.6765 110.746C60.0685 109.208 60.4403 107.619 61.7897 106.089C62.8823 104.85 64.988 103.946 64.988 103.946C64.988 103.946 63.9212 107.936 62.2228 109.98Z" stroke="#A88771" stroke-width="1.89673" stroke-linecap="round" stroke-linejoin="round"/>
<path d="M61.8455 108.65C60.082 110.877 58.7429 111.433 58.7429 111.433C58.7429 111.433 59.7582 110.598 60.175 109.474C60.5919 108.351 61.0015 107.194 62.0129 105.969C62.8318 104.978 64.2433 104.107 64.2433 104.107C64.2433 104.107 63.1315 107.027 61.8455 108.65Z" stroke="#A88771" stroke-width="1.89673" stroke-linecap="round" stroke-linejoin="round"/>
<path d="M53.519 133.689C53.519 133.689 50.5265 129.256 47.3449 126.385C44.1632 123.512 35.1362 121.258 31.4498 113.967C27.7634 106.675 28.3375 95.7722 28.3375 95.7722" stroke="#A88771" stroke-width="3.16122" stroke-linecap="round" stroke-linejoin="round"/>
<path d="M29.2304 95.6728C27.1056 95.702 25.3333 94.0346 25.2999 91.91C25.2671 89.8424 26.8418 88.1789 28.9043 88.0312C31.0169 87.8797 32.8737 89.4201 33.0471 91.5318C33.2271 93.7235 31.4295 95.6419 29.2304 95.6728Z" stroke="#A88771" stroke-width="3.16122" stroke-linecap="round" stroke-linejoin="round"/>
<path d="M53.1113 132.673C53.1113 132.673 56.1529 128.274 59.3664 125.438C62.58 122.601 71.6317 120.448 75.3993 113.198C79.1668 105.949 78.7146 95.0397 78.7146 95.0397" stroke="#A88771" stroke-width="3.16122" stroke-linecap="round" stroke-linejoin="round"/>
<path d="M77.491 95.9423C75.3662 95.9716 73.5939 94.3041 73.5604 92.1796C73.5277 90.1119 75.1024 88.4484 77.1649 88.3008C79.2774 88.1492 81.1343 89.6897 81.3077 91.8013C81.4876 93.9931 79.6901 95.9114 77.491 95.9423Z" stroke="#A88771" stroke-width="3.16122" stroke-linecap="round" stroke-linejoin="round"/>
<path d="M53.9127 96.4724C53.9127 96.4724 47.8675 87.273 43.1564 81.959C38.5912 76.8091 28.0038 73.8616 28.0038 73.8616" stroke="#A88771" stroke-width="3.16122" stroke-linecap="round" stroke-linejoin="round"/>
<path d="M31.044 70.7047C30.9991 72.3672 29.3195 72.6708 28.4959 74.1152C27.6593 75.5826 28.3459 77.3451 26.8403 78.1102C25.444 78.82 24.4561 77.4941 22.8926 77.4032C21.0367 77.2948 19.6908 78.8363 18.1485 77.7982C16.722 76.8387 17.5013 75.1391 16.5909 73.6799C15.85 72.4924 14.4814 72.3572 14.235 70.9796C13.9181 69.2086 15.8144 68.647 16.6279 67.0414C17.3533 65.6102 16.8898 64.1408 18.2297 63.2568C19.7853 62.2318 21.1055 63.8409 22.9685 63.8102C24.5252 63.7851 25.5628 62.5485 26.9229 63.3054C28.3322 64.0898 27.759 65.6936 28.535 67.1079C29.3589 68.6099 31.0902 68.9926 31.044 70.7047Z" stroke="#B9C6B4" stroke-width="2.63435" stroke-linecap="round" stroke-linejoin="round"/>
<path d="M28.6361 70.5121C28.6041 71.709 27.4063 71.9278 26.8189 72.9688C26.2223 74.0245 26.7119 75.2938 25.6381 75.8453C24.6423 76.3561 23.938 75.4017 22.823 75.3364C21.4995 75.2584 20.5397 76.3679 19.4399 75.621C18.4227 74.9293 18.9784 73.7058 18.3293 72.6548C17.801 71.8004 16.825 71.7033 16.6494 70.7107C16.4235 69.4355 17.7759 69.031 18.356 67.8751C18.8733 66.8443 18.5428 65.7865 19.4984 65.1501C20.6077 64.4113 21.5492 65.5704 22.8777 65.5484C23.9877 65.5303 24.7277 64.6398 25.6977 65.1847C26.7025 65.7499 26.2939 66.9047 26.8471 67.9225C27.4346 69.0038 28.6692 69.2794 28.6361 70.5121Z" stroke="#F74700" stroke-width="2.8451" stroke-linecap="round" stroke-linejoin="round"/>
<path d="M26.9497 70.6006C26.9264 71.4783 26.0543 71.6389 25.6266 72.4015C25.1922 73.1757 25.5486 74.1071 24.7669 74.5105C24.0418 74.8858 23.529 74.1864 22.7173 74.1376C21.7536 74.0806 21.0548 74.8945 20.2541 74.3462C19.5135 73.8395 19.9181 72.9429 19.4456 72.172C19.061 71.545 18.3504 71.4736 18.2226 70.7469C18.0581 69.8113 19.0427 69.5143 19.4652 68.6663C19.8419 67.9107 19.6012 67.1349 20.297 66.6688C21.1047 66.1264 21.7901 66.9764 22.7574 66.9607C23.5656 66.9473 24.1043 66.2938 24.8105 66.694C25.5421 67.108 25.2445 67.9546 25.6473 68.7008C26.075 69.4946 26.9739 69.6966 26.9497 70.6006Z" stroke="#F74700" stroke-width="2.8451" stroke-linecap="round" stroke-linejoin="round"/>
<path d="M24.3629 70.6601C24.3626 71.6801 23.4488 72.5138 22.4806 72.4325C21.56 72.3557 20.8773 71.6111 20.888 70.6407C20.8987 69.6755 21.583 68.9522 22.5005 68.8857C23.4664 68.8162 24.363 69.6432 24.3629 70.6601Z" stroke="#B9C6B4" stroke-width="2.73973" stroke-linecap="round" stroke-linejoin="round"/>
<path d="M22.5626 71.1631C22.8503 71.1869 23.1033 70.948 23.1033 70.6593C23.1033 70.3716 22.8547 70.1342 22.5682 70.1547C22.3031 70.1733 22.108 70.3882 22.105 70.6537C22.102 70.9214 22.2961 71.1406 22.5626 71.1631Z" stroke="#F74700" stroke-width="1.05374" stroke-linecap="round" stroke-linejoin="round"/>
<path d="M54.0644 94.9865C54.0644 94.9865 59.7397 85.5554 64.2362 80.0578C68.5935 74.7311 79.0557 71.3659 79.0557 71.3659" stroke="#A88771" stroke-width="3.16122" stroke-linecap="round" stroke-linejoin="round"/>
<path d="M91.2163 70.1976C91.1714 71.8602 89.4918 72.1638 88.6683 73.6081C87.8317 75.0755 88.5183 76.8381 87.0126 77.6031C85.6163 78.3129 84.6285 76.987 83.065 76.8961C81.2091 76.7878 79.8632 78.3293 78.3209 77.2911C76.8944 76.3316 77.6737 74.6321 76.7632 73.1728C76.0223 71.9853 74.6537 71.8501 74.4074 70.4725C74.0905 68.7015 75.9868 68.1399 76.8003 66.5343C77.5257 65.1032 77.0621 63.6337 78.4021 62.7497C79.9577 61.7247 81.2779 63.3338 83.1409 63.3031C84.6975 63.278 85.7351 62.0415 87.0953 62.7983C88.5045 63.5828 87.9314 65.1865 88.7074 66.6008C89.5313 68.1028 91.2626 68.4855 91.2163 70.1976Z" stroke="#B9C6B4" stroke-width="2.63435" stroke-linecap="round" stroke-linejoin="round"/>
<path d="M88.8085 70.005C88.7764 71.2019 87.5787 71.4207 86.9913 72.4617C86.3947 73.5174 86.8843 74.7868 85.8105 75.3382C84.8147 75.849 84.1103 74.8946 82.9954 74.8293C81.6719 74.7513 80.712 75.8609 79.6123 75.1139C78.5951 74.4222 79.1508 73.1988 78.5017 72.1477C77.9733 71.2933 76.9974 71.1962 76.8218 70.2036C76.5959 68.9284 77.9482 68.5239 78.5283 67.368C79.0457 66.3372 78.7151 65.2795 79.6708 64.643C80.7801 63.9042 81.7216 65.0634 83.05 65.0413C84.1601 65.0232 84.9 64.1327 85.87 64.6777C86.8749 65.2428 86.4662 66.3976 87.0195 67.4154C87.607 68.4967 88.8415 68.7723 88.8085 70.005Z" stroke="#F74700" stroke-width="2.8451" stroke-linecap="round" stroke-linejoin="round"/>
<path d="M87.1221 70.0937C87.0988 70.9713 86.2266 71.1319 85.799 71.8945C85.3646 72.6687 85.721 73.6001 84.9392 74.0036C84.2142 74.3789 83.7014 73.6795 82.8897 73.6307C81.926 73.5737 81.2271 74.3875 80.4265 73.8393C79.6859 73.3325 80.0905 72.4359 79.618 71.6651C79.2334 71.0381 78.5228 70.9667 78.3949 70.2399C78.2305 69.3043 79.2151 69.0074 79.6375 68.1593C80.0143 67.4038 79.7736 66.6279 80.4694 66.1618C81.277 65.6195 81.9625 66.4694 82.9297 66.4538C83.7379 66.4404 84.2767 65.7869 84.9829 66.187C85.7145 66.601 85.4168 67.4477 85.8196 68.1939C86.2473 68.9876 87.1462 69.1897 87.1221 70.0937Z" stroke="#F74700" stroke-width="2.8451" stroke-linecap="round" stroke-linejoin="round"/>
<path d="M84.5352 70.153C84.535 71.173 83.6212 72.0067 82.653 71.9254C81.7323 71.8486 81.0497 71.104 81.0604 70.1336C81.071 69.1684 81.7554 68.4451 82.6728 68.3786C83.6388 68.3092 84.5353 69.1361 84.5352 70.153Z" stroke="#B9C6B4" stroke-width="2.73973" stroke-linecap="round" stroke-linejoin="round"/>
<path d="M82.7349 70.6561C83.0227 70.6798 83.2756 70.4409 83.2757 70.1522C83.2757 69.8645 83.0271 69.6271 82.7405 69.6476C82.4754 69.6662 82.2803 69.8811 82.2774 70.1466C82.2744 70.4143 82.4684 70.6335 82.7349 70.6561Z" stroke="#F74700" stroke-width="1.05374" stroke-linecap="round" stroke-linejoin="round"/>
<path d="M19.5052 262.163C19.5052 262.163 36.9441 271.744 47.9629 280.088C59.3833 288.737 65.062 293.714 64.998 305.199C64.9418 315.262 61.0224 326.757 52.4284 329.418C49.9478 330.186 45.0002 330.736 42.6953 326.888C40.2074 322.734 40.4959 317.774 44.3811 314.884C48.195 312.048 52.225 312.985 56.5516 314.952C63.7972 318.247 65.1981 325.698 64.8391 333.65C64.4016 343.343 55.7198 353.304 55.7198 353.304" stroke="#A88771" stroke-width="3.16122" stroke-linecap="round" stroke-linejoin="round"/>
<path d="M51.6832 358.499C49.5584 358.528 47.7861 356.861 47.7527 354.736C47.7199 352.668 49.2946 351.006 51.3571 350.857C53.4697 350.706 55.3265 352.247 55.4999 354.358C55.6798 356.55 53.8823 358.469 51.6832 358.499Z" stroke="#A88771" stroke-width="3.16122" stroke-linecap="round" stroke-linejoin="round"/>
<path d="M37.477 292.717C37.477 292.717 38.4157 280.94 35.0591 274.681C31.8065 268.616 22.186 263.303 22.186 263.303" stroke="#A88771" stroke-width="3.16122" stroke-linecap="round" stroke-linejoin="round"/>
<path d="M64.122 298.411C64.122 298.411 68.4294 303.038 72.0436 304.521C75.5482 305.96 82.9755 305.246 82.9755 305.246" stroke="#A88771" stroke-width="3.16122" stroke-linecap="round" stroke-linejoin="round"/>
<path d="M65.6134 300.932C65.6134 300.932 67.4356 311.473 72.8425 314.052C75.0724 315.117 81.3568 315.741 81.3568 315.741" stroke="#A88771" stroke-width="3.16122" stroke-linecap="round" stroke-linejoin="round"/>
<path d="M52.426 360.241L51.9577 444.117" stroke="#A88771" stroke-width="3.16122" stroke-linecap="round" stroke-linejoin="round"/>
<path d="M39.917 453.197C41.2328 455.714 44.0852 455.359 46.6833 456.505C49.0687 457.558 49.3503 459.942 51.9332 459.585C54.3746 459.247 54.3685 457.237 56.4936 455.989C58.9339 454.555 61.7071 455.412 63.151 452.978C64.6694 450.418 62.155 449.305 62.0613 446.33C61.9803 443.758 64.0699 441.469 62.7321 439.27C61.354 437.005 58.5771 438.51 56.2579 437.225C54.1383 436.051 53.8878 433.392 51.4671 433.282C48.8224 433.161 48.4233 436.131 46.1495 437.487C43.6766 438.961 41.0374 438.136 39.8698 440.602C38.7023 443.068 41.0521 444.371 41.0395 447.099C41.0264 449.911 38.6141 450.705 39.917 453.197Z" stroke="#B53A25" stroke-width="3.58272" stroke-linecap="round" stroke-linejoin="round"/>
<path d="M42.57 451.717C43.598 453.683 45.8268 453.406 47.8568 454.302C49.7207 455.124 49.9408 456.987 51.9588 456.708C53.8665 456.444 53.8618 454.874 55.5222 453.898C57.4289 452.778 59.5958 453.448 60.724 451.546C61.9104 449.546 59.9458 448.676 59.8726 446.352C59.8092 444.341 61.442 442.553 60.3967 440.835C59.3199 439.065 57.1501 440.241 55.338 439.237C53.6818 438.319 53.4861 436.242 51.5946 436.156C49.5282 436.062 49.2164 438.382 47.4398 439.441C45.5076 440.594 43.4453 439.949 42.5331 441.876C41.6209 443.802 43.4569 444.821 43.447 446.953C43.4368 449.15 41.552 449.77 42.57 451.717Z" stroke="#B53A25" stroke-width="3.58272" stroke-linecap="round" stroke-linejoin="round"/>
<path d="M44.1339 450.861C44.9852 452.489 46.8307 452.259 48.5116 453.001C50.055 453.682 50.2373 455.224 51.9084 454.993C53.4881 454.775 53.4842 453.475 54.859 452.667C56.4378 451.739 58.2321 452.294 59.1664 450.719C60.1488 449.063 58.522 448.343 58.4614 446.418C58.4089 444.753 59.7609 443.272 58.8954 441.85C58.0037 440.384 56.207 441.358 54.7065 440.527C53.3351 439.767 53.173 438.047 51.6068 437.975C49.8956 437.897 49.6375 439.818 48.1663 440.696C46.5664 441.65 44.8587 441.116 44.1033 442.712C43.3479 444.307 44.8682 445.15 44.8601 446.915C44.8517 448.735 43.291 449.248 44.1339 450.861Z" stroke="#B9C6B4" stroke-width="3.05585" stroke-linecap="round" stroke-linejoin="round"/>
<path d="M45.9346 449.775C46.584 451.017 47.9919 450.842 49.2742 451.408C50.4518 451.927 50.5907 453.104 51.8656 452.928C53.0706 452.762 53.0677 451.769 54.1165 451.153C55.321 450.445 56.6899 450.869 57.4026 449.667C58.1521 448.403 56.911 447.854 56.8647 446.386C56.8248 445.116 57.8562 443.986 57.1958 442.901C56.5156 441.783 55.1449 442.526 54.0002 441.892C52.9541 441.312 52.8303 440 51.6355 439.945C50.3302 439.886 50.1332 441.351 49.0109 442.021C47.7903 442.749 46.4875 442.341 45.9113 443.558C45.335 444.775 46.4948 445.419 46.4886 446.765C46.4822 448.153 45.2915 448.545 45.9346 449.775Z" stroke="#B9C6B4" stroke-width="3.05585" stroke-linecap="round" stroke-linejoin="round"/>
<path d="M49.572 449.815C51.462 451.017 54.0629 450.284 55.1034 448.301C56.1385 446.328 55.2875 443.796 53.2449 442.906C51.3537 442.082 49.2423 442.849 48.2641 444.665C47.2803 446.492 47.8207 448.702 49.572 449.815Z" stroke="#B53A25" stroke-width="2.21286" stroke-linecap="round" stroke-linejoin="round"/>
<path d="M49.9519 449.13C51.4309 450.071 53.4659 449.497 54.2801 447.945C55.0901 446.401 54.4243 444.421 52.8258 443.724C51.3461 443.079 49.6939 443.679 48.9286 445.101C48.1587 446.53 48.5816 448.259 49.9519 449.13Z" stroke="#B53A25" stroke-width="2.21286" stroke-linecap="round" stroke-linejoin="round"/>
<path d="M52.6468 447.056C52.3413 447.639 51.5678 447.838 51.0457 447.506C50.5458 447.188 50.3772 446.563 50.6758 446.009C50.973 445.456 51.5771 445.253 52.118 445.489C52.6835 445.735 52.9514 446.476 52.6468 447.056Z" stroke="#B9C6B4" stroke-width="2.21286" stroke-linecap="round" stroke-linejoin="round"/>
<path d="M63.4653 389.928C58.3893 384.764 52.7466 385.128 52.7466 385.128C52.7466 385.128 56.3739 386.412 56.6311 389.89C56.8882 393.368 57.0594 396.982 60.0525 399.746C62.4761 401.984 67.9767 402.674 67.9767 402.674C67.9767 402.674 67.1666 393.694 63.4653 389.928Z" stroke="#A88771" stroke-width="1.89673" stroke-linecap="round" stroke-linejoin="round"/>
<path d="M62.5068 390.318C58.3353 385.527 53.8588 385.298 53.8588 385.298C53.8588 385.298 56.7765 386.713 57.0725 389.642C57.3684 392.57 57.5998 395.604 60.052 398.195C62.0378 400.293 66.4291 401.388 66.4291 401.388C66.4291 401.388 65.5487 393.812 62.5068 390.318Z" stroke="#A88771" stroke-width="1.89673" stroke-linecap="round" stroke-linejoin="round"/>
<path d="M61.9769 389.551C58.1752 385.296 53.8588 385.299 53.8588 385.299C53.8588 385.299 56.6111 386.474 56.7561 389.184C56.9011 391.894 56.9784 394.704 59.2243 396.996C61.0428 398.852 65.2352 399.659 65.2352 399.659C65.2352 399.659 64.7492 392.654 61.9769 389.551Z" stroke="#A88771" stroke-width="1.89673" stroke-linecap="round" stroke-linejoin="round"/>
<path d="M61.0705 390.192C57.8196 386.302 54.6654 385.825 54.6654 385.825C54.6654 385.825 56.8074 387.088 57.2141 389.313C57.621 391.537 57.9896 393.836 59.8854 395.953C61.4204 397.667 64.5739 398.79 64.5739 398.79C64.5739 398.79 63.441 393.028 61.0705 390.192Z" stroke="#A88771" stroke-width="1.89673" stroke-linecap="round" stroke-linejoin="round"/>
<path d="M60.4429 391.014C58.1454 388.187 56.0819 387.702 56.0819 387.702C56.0819 387.702 57.5303 388.674 57.9053 390.218C58.2801 391.761 58.6341 393.354 59.9663 394.899C61.0451 396.15 63.1405 397.077 63.1405 397.077C63.1405 397.077 62.1184 393.075 60.4429 391.014Z" stroke="#A88771" stroke-width="1.89673" stroke-linecap="round" stroke-linejoin="round"/>
<path d="M60.0508 392.339C58.3122 390.092 56.9794 389.521 56.9794 389.521C56.9794 389.521 57.9854 390.367 58.3896 391.496C58.7939 392.624 59.1905 393.785 60.1882 395.021C60.996 396.022 62.3978 396.908 62.3978 396.908C62.3978 396.908 61.3186 393.977 60.0508 392.339Z" stroke="#A88771" stroke-width="1.89673" stroke-linecap="round" stroke-linejoin="round"/>
<path d="M41.1557 389.789C46.2889 384.682 51.9272 385.108 51.9272 385.108C51.9272 385.108 48.2857 386.352 47.9898 389.827C47.6939 393.302 47.4823 396.913 44.4586 399.644C42.0101 401.855 36.5021 402.483 36.5021 402.483C36.5021 402.483 37.4124 393.513 41.1557 389.789Z" stroke="#A88771" stroke-width="1.89673" stroke-linecap="round" stroke-linejoin="round"/>
<path d="M42.1097 390.189C46.3344 385.445 50.8131 385.267 50.8131 385.267C50.8131 385.267 47.88 386.649 47.5513 389.574C47.2226 392.499 46.9574 395.53 44.4763 398.093C42.4672 400.168 38.064 401.214 38.064 401.214C38.064 401.214 39.029 393.649 42.1097 390.189Z" stroke="#A88771" stroke-width="1.89673" stroke-linecap="round" stroke-linejoin="round"/>
<path d="M42.648 389.428C46.497 385.215 50.8131 385.267 50.8131 385.267C50.8131 385.267 48.0479 386.411 47.8727 389.119C47.6974 391.827 47.5887 394.637 45.3174 396.903C43.4782 398.739 39.2772 399.499 39.2772 399.499C39.2772 399.499 39.8414 392.5 42.648 389.428Z" stroke="#A88771" stroke-width="1.89673" stroke-linecap="round" stroke-linejoin="round"/>
<path d="M43.5473 390.079C46.8414 386.225 50.0007 385.784 50.0007 385.784C50.0007 385.784 47.8449 387.023 47.4132 389.243C46.9815 391.463 46.5872 393.758 44.668 395.853C43.1138 397.55 39.9482 398.638 39.9482 398.638C39.9482 398.638 41.1453 392.889 43.5473 390.079Z" stroke="#A88771" stroke-width="1.89673" stroke-linecap="round" stroke-linejoin="round"/>
<path d="M44.1656 390.908C46.4947 388.106 48.5634 387.645 48.5634 387.645C48.5634 387.645 47.1041 388.601 46.7121 390.14C46.3199 391.68 45.9482 393.268 44.5989 394.798C43.5062 396.037 41.4005 396.941 41.4005 396.941C41.4005 396.941 42.4673 392.95 44.1656 390.908Z" stroke="#A88771" stroke-width="1.89673" stroke-linecap="round" stroke-linejoin="round"/>
<path d="M44.543 392.237C46.3066 390.01 47.6455 389.454 47.6455 389.454C47.6455 389.454 46.6302 390.289 46.2134 391.413C45.7967 392.536 45.3869 393.693 44.3757 394.917C43.5567 395.909 42.1451 396.78 42.1451 396.78C42.1451 396.78 43.257 393.861 44.543 392.237Z" stroke="#A88771" stroke-width="1.89673" stroke-linecap="round" stroke-linejoin="round"/>
<path d="M51.9196 367.047C51.9196 367.047 54.9121 371.481 58.0937 374.352C61.2752 377.224 70.3023 379.479 73.9887 386.77C77.6752 394.062 77.1011 404.965 77.1011 404.965" stroke="#A88771" stroke-width="3.16122" stroke-linecap="round" stroke-linejoin="round"/>
<path d="M75.8877 404.048C73.7634 403.995 71.9726 405.643 71.9153 407.767C71.8596 409.834 73.4155 411.515 75.4762 411.686C77.587 411.861 79.4609 410.341 79.6578 408.232C79.8623 406.042 78.0862 404.103 75.8877 404.048Z" stroke="#A88771" stroke-width="3.16122" stroke-linecap="round" stroke-linejoin="round"/>
<path d="M52.3386 366.036C52.3386 366.036 49.2968 370.436 46.0834 373.272C42.8699 376.108 33.8182 378.261 30.0506 385.511C26.283 392.761 26.7353 403.67 26.7353 403.67" stroke="#A88771" stroke-width="3.16122" stroke-linecap="round" stroke-linejoin="round"/>
<path d="M27.6271 403.779C25.5028 403.726 23.712 405.374 23.6547 407.498C23.599 409.565 25.1549 411.245 27.2156 411.416C29.3264 411.592 31.2003 410.071 31.3973 407.962C31.6017 405.773 29.8257 403.834 27.6271 403.779Z" stroke="#A88771" stroke-width="3.16122" stroke-linecap="round" stroke-linejoin="round"/>
<path d="M52.4518 404.742C52.4518 404.742 58.0215 414.237 62.4564 419.784C66.754 425.159 77.1778 428.641 77.1778 428.641" stroke="#A88771" stroke-width="3.16122" stroke-linecap="round" stroke-linejoin="round"/>
<path d="M90.2679 428.786C90.223 430.448 88.5434 430.752 87.7198 432.197C86.8833 433.664 87.5699 435.427 86.0642 436.192C84.6679 436.901 83.68 435.576 82.1166 435.485C80.2607 435.376 78.9147 436.918 77.3725 435.88C75.946 434.92 76.7252 433.22 75.8148 431.761C75.0739 430.574 73.7053 430.439 73.4589 429.061C73.1421 427.29 75.0384 426.728 75.8519 425.123C76.5773 423.691 76.1137 422.222 77.4536 421.338C79.0092 420.313 80.3295 421.922 82.1925 421.892C83.7491 421.866 84.7867 420.63 86.1469 421.387C87.5561 422.171 86.983 423.775 87.759 425.189C88.5828 426.691 90.3141 427.074 90.2679 428.786Z" stroke="#B9C6B4" stroke-width="2.63435" stroke-linecap="round" stroke-linejoin="round"/>
<path d="M87.8601 428.594C87.828 429.79 86.6302 430.01 86.0429 431.05C85.4462 432.106 85.9359 433.375 84.8621 433.926C83.8663 434.437 83.1619 433.483 82.047 433.417C80.7235 433.339 79.7636 434.449 78.6639 433.702C77.6466 433.011 78.2024 431.787 77.5532 430.737C77.0249 429.882 76.0489 429.784 75.8733 428.792C75.6475 427.517 76.9998 427.113 77.5799 425.957C78.0973 424.926 77.7667 423.868 78.7223 423.232C79.8316 422.493 80.7731 423.652 82.1016 423.63C83.2116 423.612 83.9516 422.721 84.9216 423.266C85.9265 423.831 85.5178 424.986 86.071 426.004C86.6586 427.085 87.8931 427.361 87.8601 428.594Z" stroke="#F74700" stroke-width="2.8451" stroke-linecap="round" stroke-linejoin="round"/>
<path d="M86.1737 428.682C86.1503 429.559 85.2782 429.72 84.8505 430.483C84.4162 431.257 84.7725 432.188 83.9908 432.592C83.2657 432.967 82.753 432.267 81.9412 432.219C80.9776 432.162 80.2787 432.976 79.4781 432.428C78.7375 431.921 79.1421 431.024 78.6695 430.253C78.2849 429.627 77.5744 429.555 77.4465 428.828C77.2821 427.892 78.2667 427.596 78.6891 426.748C79.0658 425.992 78.8252 425.216 79.5209 424.75C80.3286 424.208 81.0141 425.058 81.9813 425.042C82.7895 425.028 83.3282 424.375 84.0345 424.775C84.7661 425.189 84.4684 426.036 84.8712 426.783C85.2989 427.575 86.1978 427.778 86.1737 428.682Z" stroke="#F74700" stroke-width="2.8451" stroke-linecap="round" stroke-linejoin="round"/>
<path d="M83.5868 428.741C83.5866 429.761 82.6727 430.595 81.7046 430.514C80.7839 430.437 80.1012 429.692 80.1119 428.722C80.1226 427.756 80.8069 427.033 81.7244 426.967C82.6903 426.898 83.5869 427.725 83.5868 428.741Z" stroke="#B9C6B4" stroke-width="2.73973" stroke-linecap="round" stroke-linejoin="round"/>
<path d="M81.7865 429.244C82.0742 429.268 82.3272 429.029 82.3272 428.74C82.3273 428.453 82.0786 428.215 81.7921 428.236C81.527 428.255 81.3319 428.469 81.3289 428.735C81.326 429.002 81.52 429.222 81.7865 429.244Z" stroke="#F74700" stroke-width="1.05374" stroke-linecap="round" stroke-linejoin="round"/>
<path d="M52.3167 403.255C52.3167 403.255 46.1693 412.386 41.3992 417.647C36.7767 422.746 26.157 425.575 26.157 425.575" stroke="#A88771" stroke-width="3.16122" stroke-linecap="round" stroke-linejoin="round"/>
<path d="M29.0465 428.444C29.0016 430.106 27.322 430.411 26.4985 431.855C25.6619 433.322 26.3485 435.085 24.8428 435.85C23.4465 436.559 22.4587 435.234 20.8952 435.143C19.0393 435.035 17.6933 436.576 16.1511 435.538C14.7246 434.578 15.5038 432.878 14.5934 431.419C13.8525 430.232 12.4839 430.097 12.2376 428.719C11.9207 426.948 13.817 426.386 14.6305 424.781C15.3559 423.349 14.8923 421.88 16.2323 420.996C17.7879 419.971 19.1081 421.58 20.9711 421.55C22.5277 421.524 23.5653 420.288 24.9255 421.045C26.3347 421.83 25.7616 423.434 26.5376 424.848C27.3615 426.349 29.0927 426.732 29.0465 428.444Z" stroke="#B9C6B4" stroke-width="2.63435" stroke-linecap="round" stroke-linejoin="round"/>
<path d="M26.6387 428.252C26.6066 429.449 25.4089 429.668 24.8215 430.708C24.2248 431.764 24.7145 433.034 23.6407 433.584C22.6449 434.095 21.9405 433.141 20.8256 433.075C19.5021 432.998 18.5422 434.108 17.4425 433.36C16.4253 432.669 16.981 431.445 16.3318 430.395C15.8035 429.54 14.8275 429.442 14.6519 428.451C14.4261 427.175 15.7784 426.771 16.3585 425.615C16.8759 424.584 16.5453 423.526 17.501 422.89C18.6103 422.151 19.5517 423.31 20.8802 423.288C21.9903 423.27 22.7302 422.379 23.7002 422.924C24.7051 423.489 24.2964 424.644 24.8497 425.662C25.4372 426.743 26.6717 427.019 26.6387 428.252Z" stroke="#F74700" stroke-width="2.8451" stroke-linecap="round" stroke-linejoin="round"/>
<path d="M24.9523 428.34C24.929 429.218 24.0568 429.378 23.6292 430.141C23.1948 430.916 23.5511 431.847 22.7694 432.251C22.0443 432.625 21.5316 431.925 20.7198 431.877C19.7562 431.82 19.0573 432.634 18.2567 432.086C17.5161 431.579 17.9207 430.682 17.4481 429.912C17.0635 429.285 16.353 429.213 16.2251 428.486C16.0607 427.551 17.0453 427.254 17.4677 426.406C17.8444 425.65 17.6038 424.874 18.2995 424.408C19.1072 423.866 19.7927 424.716 20.7599 424.7C21.5681 424.686 22.1069 424.033 22.8131 424.433C23.5447 424.847 23.247 425.694 23.6498 426.441C24.0775 427.234 24.9764 427.436 24.9523 428.34Z" stroke="#F74700" stroke-width="2.8451" stroke-linecap="round" stroke-linejoin="round"/>
<path d="M22.3654 428.4C22.3652 429.419 21.4514 430.253 20.4832 430.172C19.5625 430.095 18.8799 429.35 18.8905 428.38C18.9012 427.415 19.5855 426.692 20.503 426.625C21.4689 426.556 22.3655 427.383 22.3654 428.4Z" stroke="#B9C6B4" stroke-width="2.73973" stroke-linecap="round" stroke-linejoin="round"/>
<path d="M20.5651 428.903C20.8529 428.927 21.1058 428.687 21.1059 428.399C21.1059 428.111 20.8573 427.873 20.5707 427.894C20.3056 427.913 20.1105 428.127 20.1076 428.393C20.1046 428.66 20.2986 428.88 20.5651 428.903Z" stroke="#F74700" stroke-width="1.05374" stroke-linecap="round" stroke-linejoin="round"/>
<path d="M32.8827 209.696C32.6952 209.687 32.503 209.753 32.3142 209.785L32.296 210.033C35.2569 210.239 37.8119 211.434 40.2494 213.106C38.3348 213.095 36.5024 213.085 34.6711 213.061C34.4045 213.056 34.1393 213.02 33.8803 212.957C32.206 212.562 30.5316 212.171 28.8638 211.751C26.7361 211.212 24.6224 210.624 22.4882 210.116C21.3003 209.816 20.0529 209.848 18.8817 210.208C18.1291 210.447 17.3561 210.738 17.2436 211.639C17.131 212.541 17.7965 213.012 18.4516 213.457C18.7266 213.643 18.9847 213.851 19.2512 214.05L19.1687 214.303C18.468 214.283 17.7651 214.296 17.0689 214.233C15.6229 214.096 14.1849 213.834 12.7363 213.77C10.2343 213.659 7.7367 213.693 5.7931 215.666C5.7931 215.666 4.71027 217.097 5.73847 217.9C6.07737 218.163 6.3765 218.564 6.76774 218.701C7.51549 218.963 8.31356 219.086 9.09023 219.264C9.26914 219.305 9.45021 219.338 9.62915 219.372L9.62816 219.551C8.84765 219.681 8.06813 219.823 7.2835 219.937C6.01242 220.108 4.80216 220.587 3.75722 221.33C3.05681 221.836 2.38712 222.502 1.95516 223.242C1.06994 224.764 2.01428 226.431 3.76131 226.637C3.92875 226.657 4.0973 226.665 4.546 226.702C4.22811 227.017 4.007 227.174 3.86462 227.386C3.45233 228 3.0148 228.605 2.69497 229.269C1.98601 230.74 2.92892 232.286 4.54444 232.265C5.13276 232.244 5.70663 232.078 6.2142 231.779C6.95423 231.349 7.59608 230.763 8.28076 230.244C8.45007 230.116 8.62252 229.994 8.84366 229.831C8.89946 230.407 8.88836 230.885 9.00067 231.341C9.31711 232.607 10.6022 233.076 11.6299 232.274C12.0496 231.946 12.3957 231.532 12.6461 231.062C13.134 230.116 13.54 229.129 13.9438 228.143C14.4587 226.881 14.9064 225.592 15.4477 224.34C15.6611 223.851 15.9034 223.309 16.5598 223.137C16.8354 223.777 16.4868 224.313 16.3867 224.877C16.2278 225.776 16.0331 226.679 15.9996 227.586C15.9699 228.381 16.2692 229.126 17.0924 229.464C17.7674 229.742 18.6017 229.405 19.2043 228.68C19.2821 228.59 19.3508 228.493 19.4093 228.389C20.0738 227.136 20.7804 225.903 21.383 224.62C21.9738 223.359 22.4416 222.043 22.9946 220.763C23.2369 220.203 23.5424 219.662 24.2235 219.4C24.2475 219.728 24.2099 220.058 24.1127 220.371C23.9087 221.051 23.5984 221.709 23.4786 222.401C23.2805 223.534 24.2005 224.275 25.2389 223.814C25.7451 223.577 26.184 223.217 26.5156 222.767C27.1443 221.907 27.7104 221.002 28.2094 220.061C29.4671 217.679 31.2299 215.824 33.6372 214.595C33.7944 214.501 33.9451 214.396 34.0879 214.281L34.0806 214.259C33.2197 214.268 32.3631 214.433 31.5318 214.596C31.2301 214.654 30.9284 214.714 30.6267 214.766C30.6016 214.769 30.5771 214.775 30.5539 214.785C30.308 215.032 30.0485 215.264 29.7766 215.481C29.3531 215.828 28.9614 216.156 28.6566 216.591C27.9343 217.625 27.2802 218.705 26.6985 219.824L26.674 219.877C26.6531 219.943 26.6182 220.004 26.5714 220.055C26.5248 220.105 26.4675 220.146 26.4036 220.173C26.329 220.192 26.2513 220.194 26.1755 220.181C26.0996 220.168 26.0274 220.139 25.9636 220.096C25.9203 220.073 25.8878 220.033 25.8729 219.986C25.858 219.939 25.8619 219.888 25.8839 219.844L26.1355 219.325C26.7644 218.027 27.4146 216.697 28.485 215.609C28.6208 215.449 28.7671 215.282 28.9241 215.109C27.5459 215.459 26.2625 215.825 25.0189 216.225C24.4883 216.407 24.0052 216.705 23.6052 217.097C22.5586 218.077 21.8289 219.101 21.3748 220.229C20.7337 221.82 20.0831 223.41 19.4517 224.948C19.4261 225.01 19.4036 225.073 19.3811 225.136C19.2954 225.378 19.2001 225.648 18.9557 225.842C18.9448 225.861 18.9308 225.877 18.9143 225.89C18.8819 225.916 18.8417 225.932 18.7997 225.934C18.7579 225.935 18.7166 225.923 18.6824 225.898C18.6399 225.869 18.6102 225.823 18.5988 225.773L18.5338 225.9L18.5874 225.732C18.5182 225.49 18.6037 225.274 18.6742 225.101L18.6913 225.059C18.8164 224.743 18.9372 224.428 19.058 224.112C19.243 223.627 19.4355 223.126 19.6416 222.64C19.789 222.291 19.9322 221.93 20.069 221.58C20.6665 220.077 21.281 218.531 22.4969 217.234L21.6453 217.65C19.7655 218.565 17.8213 219.511 15.9985 220.608C15.3069 221.026 14.7102 221.584 14.2465 222.246C13.2036 223.685 12.4574 225.412 11.8979 227.675L11.8623 227.82C11.679 228.565 11.4903 229.336 10.9745 230.187C10.9524 230.224 10.9189 230.251 10.8792 230.267C10.8395 230.282 10.7958 230.283 10.7551 230.271C10.7144 230.26 10.6789 230.234 10.6542 230.199C10.6296 230.164 10.6172 230.122 10.6189 230.08C10.6422 229.62 10.7382 229.166 10.9036 228.736C10.9796 228.527 11.0404 228.312 11.0852 228.094C11.2524 227.206 11.4823 226.329 11.7732 225.473C12.157 224.304 12.7646 223.244 13.3604 222.215L13.3361 222.233L13.2874 222.268C10.9916 223.884 8.8475 225.706 6.88181 227.711C6.7758 227.825 6.66974 227.947 6.56364 228.077C6.26872 228.431 5.96532 228.795 5.49112 228.984C5.47505 229 5.45647 229.013 5.43611 229.024C5.40671 229.037 5.37432 229.043 5.34192 229.042C5.30953 229.04 5.27817 229.029 5.25071 229.012L5.23076 228.999C5.20013 228.98 5.17566 228.952 5.16019 228.919C5.14471 228.886 5.13885 228.849 5.14328 228.813C5.14762 228.778 5.16206 228.744 5.18493 228.716C5.24483 228.535 5.35327 228.375 5.49837 228.252L5.56196 228.187C6.96441 226.695 8.66118 224.957 10.6036 223.379C11.5278 222.629 12.5085 221.929 13.6413 221.161C13.5095 221.183 13.3798 221.206 13.2511 221.228C12.3798 221.377 11.5571 221.519 10.7502 221.672C10.037 221.825 9.33528 222.025 8.64982 222.274C8.21907 222.419 7.77355 222.57 7.32606 222.695C6.57819 222.916 5.84615 223.187 5.13498 223.507C4.85613 223.624 4.56988 223.746 4.26466 223.868C4.22599 223.884 4.18328 223.887 4.14304 223.876C4.1028 223.864 4.06718 223.841 4.0416 223.808C4.01344 223.771 4.00019 223.724 4.0044 223.677C3.97374 223.695 3.94309 223.711 3.91349 223.728C3.94421 223.699 3.97703 223.672 4.0088 223.644C4.01457 223.62 4.0247 223.597 4.03868 223.577C4.40181 223.084 4.65373 222.883 5.21252 222.642C5.55264 222.496 5.89412 222.358 6.23698 222.226C6.29189 222.205 6.3468 222.186 6.4017 222.167C7.34144 221.822 8.3043 221.544 9.2831 221.335C9.40337 221.31 9.52467 221.288 9.64598 221.265C10.0976 221.153 10.5524 221.046 11.0081 220.951C11.0556 220.935 11.1031 220.921 11.1507 220.904C11.4014 220.819 11.6607 220.761 11.924 220.733C12.2984 220.679 12.6527 220.632 12.9469 220.404C12.9838 220.375 13.0296 220.362 13.0757 220.365C13.2839 220.379 13.4927 220.378 13.7006 220.36C14.4108 220.185 15.1137 219.985 15.8021 219.74C16.119 219.594 16.4276 219.435 16.7447 219.272C16.956 219.168 17.1674 219.057 17.3787 218.954C18.1268 218.587 18.872 218.179 19.5981 217.784C19.8363 217.654 20.0741 217.524 20.3116 217.395C20.3768 217.363 20.446 217.339 20.5174 217.326C20.5531 217.319 20.5884 217.309 20.623 217.298C20.4694 217.279 20.314 217.282 20.1614 217.308C20.0155 217.329 19.8681 217.337 19.7208 217.331C18.4452 217.244 17.1852 216.988 15.9664 216.74L15.5022 216.645C12.9623 216.135 10.7033 216.103 8.59326 216.551C8.57218 216.551 8.55105 216.561 8.52888 216.568C8.41067 216.602 8.19114 216.665 8.00888 216.469C7.98479 216.443 7.96808 216.413 7.96065 216.379C7.9532 216.345 7.95532 216.309 7.96675 216.277C8.091 215.916 8.41272 215.858 8.62688 215.814C10.3685 215.484 12.0792 215.214 13.8518 215.549C14.2476 215.622 14.6442 215.697 15.0413 215.775C16.375 216.03 17.7539 216.293 19.1163 216.509C20.644 216.749 21.9767 216.612 23.1882 216.091C24.0458 215.709 24.9396 215.414 25.856 215.209C25.9548 215.188 26.0491 215.149 26.1348 215.095C26.2025 215.053 26.2111 215.023 26.2102 215.002C26.2092 214.981 26.1691 214.991 26.1513 214.986C25.4151 214.798 24.7064 214.515 24.0432 214.144C22.9485 213.557 21.8106 213.056 20.6395 212.642C20.6027 212.63 20.5648 212.618 20.5269 212.606C20.306 212.537 20.0325 212.453 19.8698 212.163C19.8457 212.12 19.8393 212.069 19.852 212.021C19.8646 211.972 19.8953 211.931 19.9376 211.905C20.2791 211.696 20.562 211.803 20.7891 211.893C20.8547 211.92 20.9218 211.942 20.99 211.961C22.0396 212.244 23.0509 212.653 24.0011 213.181C25.8412 214.274 27.6813 214.61 29.6393 214.207C29.7839 214.177 29.9347 214.145 30.093 214.112C31.5215 213.803 33.4374 213.401 35.1244 213.774C36.7892 213.663 38.4596 213.671 40.1233 213.797C41.1061 213.874 42.0819 214.051 43.0612 214.182C43.8193 214.291 45.1996 215.053 45.1996 215.053C46.1041 215.554 46.9575 216.146 47.8333 216.697C48.0507 216.835 48.2733 216.963 48.4865 217.091C48.9547 216.467 48.977 216.436 48.4754 216.069C46.9399 214.942 45.194 214.134 43.341 213.693C42.1856 213.426 41.0789 212.979 40.0607 212.371C39.4243 211.989 38.7779 211.625 38.1216 211.28C36.4773 210.413 34.7578 209.792 32.8827 209.696Z" fill="#F74700"/>
<path d="M69.9692 290.548C70.1568 290.558 70.3479 290.49 70.5377 290.459L70.5549 290.211C67.5939 290.005 65.0389 288.81 62.6014 287.138C64.5171 287.149 66.3485 287.159 68.1798 287.183C68.4467 287.189 68.7121 287.224 68.9716 287.287C70.6449 287.682 72.3192 288.073 73.9871 288.493C76.1148 289.031 78.2296 289.62 80.3637 290.128C81.5512 290.428 82.7984 290.396 83.9692 290.036C84.7229 289.797 85.4948 289.505 85.6084 288.605C85.7219 287.705 85.0554 287.232 84.3993 286.787C84.1253 286.601 83.8662 286.393 83.6007 286.194L83.6833 285.941C84.3828 285.962 85.0868 285.949 85.782 286.011C87.228 286.148 88.667 286.409 90.1145 286.474C92.6176 286.585 95.1152 286.552 97.0578 284.578C97.0578 284.578 98.1406 283.147 97.1124 282.345C96.7735 282.081 96.4754 281.68 96.0842 281.543C95.3354 281.281 94.5384 281.158 93.7606 280.98C93.5817 280.939 93.4017 280.907 93.2217 280.872L93.2227 280.694C94.0043 280.563 94.7838 280.42 95.5674 280.306C96.8388 280.135 98.0493 279.657 99.0947 278.914C99.7951 278.407 100.464 277.743 100.897 277.002C101.782 275.48 100.838 273.813 99.0906 273.606C98.9242 273.586 98.7557 273.578 98.307 273.542C98.6249 273.227 98.8449 273.071 98.9873 272.859C99.3996 272.244 99.8371 271.638 100.157 270.976C100.866 269.504 99.923 267.959 98.3085 267.979C97.72 268 97.1459 268.166 96.6377 268.464C95.8977 268.894 95.2559 269.48 94.5712 269.999C94.4029 270.128 94.2305 270.25 94.0083 270.418C93.9525 269.841 93.9636 269.364 93.8512 268.908C93.5348 267.642 92.2497 267.173 91.2221 267.974C90.8016 268.302 90.4552 268.715 90.2058 269.186C89.7179 270.131 89.3109 271.12 88.9081 272.106C88.3921 273.367 87.9455 274.657 87.4032 275.908C87.1897 276.398 86.9475 276.94 86.2921 277.111C86.0165 276.47 86.3651 275.936 86.4641 275.371C86.623 274.472 86.8177 273.569 86.8523 272.662C86.881 271.867 86.5827 271.122 85.7595 270.785C85.0845 270.507 84.2491 270.844 83.6476 271.568C83.5694 271.659 83.5004 271.755 83.4416 271.859C82.7781 273.112 82.0704 274.345 81.469 275.628C80.8771 276.889 80.4092 278.206 79.8562 279.484C79.6139 280.046 79.3095 280.587 78.6273 280.847C78.6036 280.519 78.6411 280.191 78.7381 279.877C78.9421 279.198 79.2514 278.539 79.3722 277.847C79.5693 276.714 78.6451 275.973 77.6119 276.435C77.1055 276.671 76.6665 277.031 76.3352 277.481C75.7057 278.344 75.1397 279.251 74.6414 280.196C73.3837 282.578 71.6209 284.433 69.2136 285.662C69.056 285.756 68.9054 285.86 68.7629 285.976L68.7712 285.997C69.6311 285.989 70.4888 285.824 71.319 285.661C71.6207 285.602 71.9224 285.543 72.2251 285.491C72.2501 285.489 72.2745 285.482 72.2969 285.471C72.5433 285.225 72.803 284.993 73.0753 284.776C73.4935 284.429 73.8894 284.101 74.1942 283.665C74.916 282.628 75.5687 281.546 76.1481 280.422L76.1726 280.371C76.194 280.305 76.2292 280.244 76.276 280.193C76.3229 280.142 76.3801 280.101 76.444 280.074C76.5185 280.056 76.5961 280.052 76.6718 280.066C76.7475 280.079 76.8195 280.108 76.883 280.151C76.9263 280.175 76.959 280.214 76.974 280.262C76.989 280.308 76.9853 280.36 76.9638 280.404C76.8786 280.576 76.7954 280.75 76.7112 280.923C76.0833 282.221 75.4373 283.55 74.3627 284.638C74.2269 284.798 74.0806 284.964 73.9226 285.138C75.3007 284.789 76.5852 284.423 77.8277 284.022C78.3587 283.84 78.8421 283.543 79.2425 283.15C80.2891 282.171 81.0187 281.146 81.4729 280.018C82.114 278.427 82.7646 276.837 83.396 275.299C83.4206 275.237 83.4431 275.174 83.4655 275.11C83.5512 274.869 83.6475 274.599 83.891 274.405C83.9018 274.388 83.9158 274.371 83.9324 274.357C83.9647 274.331 84.0049 274.315 84.0467 274.314C84.0886 274.312 84.1298 274.325 84.1642 274.348C84.2066 274.379 84.2367 274.423 84.2489 274.474L84.2488 274.48L84.3138 274.353L84.2602 274.52C84.3295 274.763 84.245 274.979 84.1734 275.152L84.1563 275.194C84.0313 275.51 83.9105 275.825 83.7907 276.14C83.6046 276.625 83.4132 277.127 83.2071 277.612C83.0587 277.961 82.9155 278.322 82.7797 278.671C82.1833 280.176 81.5677 281.72 80.3518 283.019C80.636 282.88 80.9203 282.742 81.2045 282.602C83.0842 281.688 85.0274 280.742 86.8502 279.644C87.5419 279.227 88.139 278.668 88.6033 278.007C89.6461 276.567 90.3923 274.841 90.9519 272.577L90.9875 272.432C91.1697 271.687 91.3595 270.916 91.8742 270.065C91.8963 270.029 91.9298 270.001 91.9695 269.986C92.0092 269.97 92.0529 269.969 92.0936 269.981C92.1344 269.994 92.1699 270.02 92.1945 270.053C92.2191 270.088 92.2315 270.131 92.2298 270.173C92.207 270.633 92.1112 271.088 91.9462 271.518C91.8693 271.727 91.8082 271.942 91.7635 272.16C91.5967 273.048 91.3667 273.925 91.0755 274.781C90.6928 275.948 90.0852 277.01 89.4883 278.038C89.4968 278.033 89.505 278.027 89.5126 278.021L89.5623 277.985C91.8577 276.369 94.0014 274.546 95.9669 272.541C96.0729 272.427 96.179 272.304 96.2851 272.174C96.58 271.822 96.8845 271.458 97.3587 271.269C97.3743 271.253 97.3925 271.24 97.4126 271.229C97.4422 271.216 97.4748 271.209 97.5073 271.212C97.5399 271.213 97.5715 271.224 97.5991 271.241L97.619 271.253C97.6495 271.273 97.6739 271.301 97.6893 271.333C97.7048 271.366 97.7107 271.403 97.7065 271.438C97.701 271.474 97.6863 271.509 97.6638 271.537C97.6035 271.718 97.493 271.879 97.3451 272L97.2826 272.066C95.8917 273.548 94.196 275.29 92.2515 276.867C91.3263 277.619 90.3466 278.318 89.2137 279.086C89.3456 279.064 89.4753 279.042 89.604 279.019C90.4742 278.869 91.2916 278.728 92.1049 278.576C92.8177 278.424 93.5191 278.222 94.2042 277.973C94.635 277.828 95.0805 277.678 95.529 277.553C96.2767 277.331 97.0088 277.06 97.7201 276.741C97.9979 276.622 98.2841 276.502 98.5894 276.379C98.628 276.363 98.6708 276.361 98.711 276.371C98.7513 276.382 98.787 276.406 98.8124 276.439C98.8413 276.476 98.8551 276.523 98.8507 276.57C98.8803 276.552 98.9109 276.537 98.9416 276.519C98.9098 276.548 98.877 276.575 98.8452 276.604C98.8399 276.628 98.8297 276.65 98.8153 276.67C98.4533 277.163 98.2003 277.363 97.6415 277.605C97.3021 277.751 96.9606 277.889 96.6171 278.02C96.5632 278.041 96.5115 278.06 96.4534 278.079C95.5133 278.423 94.5501 278.699 93.571 278.906C93.4507 278.932 93.3294 278.955 93.2091 278.977C92.7564 279.089 92.3027 279.195 91.847 279.286C91.7995 279.301 91.7509 279.316 91.7034 279.333C91.4531 279.418 91.1941 279.476 90.9311 279.504C90.5557 279.558 90.2014 279.605 89.9082 279.832C89.8712 279.86 89.825 279.875 89.7784 279.872C89.5702 279.858 89.3614 279.859 89.1535 279.875C88.4433 280.052 87.7414 280.252 87.053 280.496C86.7361 280.642 86.4264 280.801 86.1094 280.964C85.8981 281.068 85.6867 281.179 85.4754 281.283C84.7273 281.649 83.981 282.057 83.256 282.453C83.0192 282.583 82.7817 282.712 82.5435 282.842C82.4766 282.874 82.4056 282.898 82.3324 282.911C82.2966 282.918 82.2614 282.928 82.2269 282.939C82.3808 282.958 82.5367 282.954 82.6895 282.928C82.8351 282.907 82.9822 282.899 83.1291 282.905C84.4047 282.993 85.6657 283.249 86.8835 283.497L87.3487 283.591C89.8875 284.102 92.1477 284.132 94.2577 283.686C94.2795 283.682 94.3009 283.676 94.322 283.668C94.4392 283.635 94.6598 283.572 94.8421 283.767C94.8658 283.793 94.8823 283.824 94.8895 283.858C94.8968 283.892 94.8946 283.928 94.8831 283.96C94.7599 284.321 94.4372 284.379 94.2241 284.422C92.4814 284.753 90.7707 285.023 88.9991 284.688C88.6025 284.615 88.2061 284.54 87.8096 284.462C86.4759 284.207 85.0959 283.943 83.7336 283.728C82.2059 283.488 80.8742 283.624 79.6627 284.145C78.8095 284.529 77.9201 284.828 77.0075 285.034C76.9091 285.056 76.8152 285.094 76.7297 285.148C76.6621 285.189 76.6535 285.22 76.6533 285.241C76.6692 285.241 76.6944 285.253 76.7123 285.257C77.4488 285.446 78.1578 285.728 78.8214 286.099C79.9114 286.687 81.0446 287.192 82.2113 287.607C82.2482 287.62 82.286 287.632 82.325 287.644C82.5448 287.712 82.8194 287.797 82.9811 288.087C83.0057 288.13 83.0124 288.182 82.9997 288.229C82.987 288.277 82.956 288.319 82.9133 288.344C82.5728 288.553 82.2899 288.446 82.0617 288.356C81.9962 288.33 81.9291 288.307 81.8609 288.289C80.8114 288.005 79.8005 287.595 78.8508 287.066C77.0096 285.973 75.1706 285.637 73.2115 286.039C73.067 286.069 72.9161 286.102 72.7589 286.135C71.3294 286.443 69.4135 286.846 67.7264 286.473C66.0619 286.582 64.3918 286.573 62.7286 286.446C61.7448 286.369 60.77 286.192 59.7908 286.06C59.0316 285.951 57.6512 285.191 57.6512 285.191C56.7478 284.689 55.8933 284.098 55.0176 283.545C54.8002 283.409 54.5775 283.28 54.3643 283.152C53.8962 283.777 53.8739 283.807 54.3755 284.173C55.9109 285.301 57.6567 286.108 59.5098 286.549C60.6656 286.818 61.7726 287.264 62.7912 287.873C63.4266 288.253 64.0727 288.617 64.7293 288.963C66.3736 289.828 68.0941 290.452 69.9692 290.548Z" fill="#F74700"/>
<path d="M76.8923 172.231C77.0587 172.07 77.159 171.84 77.2908 171.642L77.0813 171.417C74.4045 173.918 71.1738 175.217 67.6171 176.015C69.2411 174.297 70.7898 172.651 72.3501 171.015C72.5796 170.778 72.8346 170.568 73.1102 170.387C74.8744 169.208 76.6366 168.025 78.4175 166.873C80.6913 165.402 83.0038 163.99 85.2577 162.49C86.5195 161.654 87.5468 160.551 88.2089 159.157C88.6269 158.276 89.0137 157.333 88.2945 156.473C87.5754 155.614 86.5879 155.816 85.6362 156.037C85.2374 156.129 84.8324 156.188 84.4295 156.261L84.2699 155.973C84.8771 155.359 88.8861 151.867 90.1618 150.613C92.3668 148.448 94.4386 146.164 94.2901 142.749C94.2901 142.749 93.9092 140.568 92.3198 140.821C91.7925 140.906 91.1838 140.838 90.7314 141.076C89.8648 141.532 89.0826 142.148 88.2682 142.7C88.0809 142.827 87.9 142.962 87.7159 143.094L87.5587 142.941C88.0985 142.127 88.6216 141.303 89.1825 140.499C90.098 139.208 90.6851 137.713 90.8928 136.143C91.0241 135.084 90.9874 133.921 90.6811 132.909C90.051 130.83 87.7516 130.279 86.0957 131.683C85.9369 131.817 85.7886 131.963 85.3776 132.337C85.3617 131.788 85.4047 131.454 85.3326 131.147C85.1268 130.258 84.9506 129.353 84.6203 128.508C83.8931 126.632 81.6996 126.182 80.3594 127.657C79.8834 128.207 79.5513 128.865 79.3929 129.574C79.1617 130.601 79.1483 131.68 79.0402 132.733C79.0135 132.994 78.9793 133.253 78.9406 133.59C78.3729 133.155 77.9474 132.741 77.4453 132.462C76.0334 131.68 74.5317 132.446 74.3889 134.052C74.3321 134.707 74.4134 135.367 74.6279 135.989C75.0709 137.224 75.6217 138.418 76.1724 139.616C76.8784 141.144 77.6635 142.635 78.3409 144.174C78.6052 144.775 78.8891 145.452 78.4919 146.189C77.6822 145.899 77.4915 145.135 77.0668 144.57C76.389 143.67 75.7367 142.734 74.9455 141.941C74.2529 141.245 73.3286 140.889 72.3313 141.347C71.5136 141.724 71.1148 142.761 71.2632 143.912C71.2779 144.059 71.3079 144.202 71.3525 144.343C71.9249 145.996 72.4435 147.673 73.0952 149.295C73.7354 150.888 74.5319 152.42 75.2217 153.995C75.5235 154.686 75.7554 155.416 75.4147 156.248C75.0978 155.995 74.8312 155.686 74.6284 155.335C74.1858 154.578 73.8522 153.75 73.3281 153.054C72.4725 151.924 71.0298 152.129 70.5724 153.46C70.3599 154.116 70.3151 154.815 70.442 155.492C70.6919 156.785 71.0348 158.06 71.4681 159.304C72.5602 162.443 72.7534 165.596 71.8366 168.803C71.7895 169.024 71.7582 169.25 71.7433 169.475L71.7695 169.487C72.4852 168.703 73.0572 167.79 73.6091 166.903C73.809 166.581 74.0099 166.259 74.2172 165.942C74.2361 165.918 74.2506 165.889 74.2598 165.86C74.2451 165.431 74.2543 165.001 74.287 164.573C74.3255 163.902 74.3628 163.269 74.2262 162.628C73.9002 161.106 73.4752 159.607 72.9541 158.14L72.9271 158.074C72.8852 158 72.86 157.916 72.8531 157.832C72.8461 157.747 72.8575 157.66 72.8866 157.58C72.9538 157.433 73.0988 157.324 73.3268 157.248C73.3847 157.229 73.4477 157.233 73.5027 157.259C73.5576 157.285 73.6005 157.331 73.6222 157.388L73.8809 158.039C74.5239 159.699 75.1825 161.401 75.2594 163.286C75.2896 163.543 75.3169 163.815 75.3413 164.103C76.1855 162.565 76.9387 161.098 77.6202 159.636C77.9036 159.005 78.0412 158.318 78.0224 157.626C78.0186 155.857 77.7067 154.336 77.0715 152.978C76.1739 151.059 75.2858 149.135 74.4258 147.273C74.3914 147.198 74.3528 147.124 74.3153 147.051C74.1693 146.771 74.0025 146.456 74.0363 146.072C74.0294 146.047 74.0267 146.021 74.0283 145.994C74.0313 145.943 74.0512 145.893 74.0849 145.854C74.1186 145.815 74.1643 145.789 74.2149 145.777C74.278 145.764 74.3438 145.775 74.3992 145.808C74.3992 145.808 74.3992 145.808 74.4065 145.808L74.3453 145.642C74.3829 145.704 74.4162 145.769 74.4496 145.831C74.726 145.973 74.8499 146.231 74.9488 146.444L74.9728 146.494C75.1509 146.871 75.3343 147.245 75.5176 147.62C75.7989 148.195 76.0907 148.79 76.3571 149.387C76.5486 149.809 76.7538 150.247 76.9516 150.665C77.8078 152.47 78.6889 154.328 78.8347 156.516L79.1771 155.396C79.9285 152.929 80.713 150.378 81.2553 147.809C81.46 146.834 81.4588 145.826 81.2518 144.85C80.8286 142.697 79.8974 140.571 78.3239 138.161L78.2194 138.008C77.6969 137.216 77.163 136.397 76.8282 135.215C76.8137 135.165 76.8163 135.111 76.8356 135.063C76.8548 135.014 76.8897 134.973 76.9348 134.947C76.9798 134.92 77.0323 134.909 77.0843 134.915C77.1362 134.922 77.1844 134.945 77.2215 134.982C77.6984 135.45 77.9633 135.935 78.1969 136.369C78.3209 136.615 78.4634 136.85 78.6229 137.075C79.2854 137.975 79.8827 138.922 80.4101 139.907C81.1403 141.235 81.5906 142.676 82.0148 144.078L82.0151 144.041L82.0239 143.966C82.506 140.281 82.6598 136.89 82.4938 133.602C82.4843 133.406 82.4601 133.211 82.4339 133.003C82.3633 132.44 82.2907 131.859 82.5184 131.272C82.5165 131.244 82.5199 131.216 82.5283 131.189C82.5405 131.151 82.562 131.117 82.5911 131.088C82.6202 131.061 82.6558 131.041 82.6947 131.031L82.7231 131.024C82.7555 131.015 82.7894 131.014 82.8223 131.02C82.8553 131.025 82.8867 131.038 82.9144 131.056C82.9423 131.075 82.9657 131.1 82.9835 131.128C83.0011 131.156 83.0126 131.189 83.0171 131.221C83.1603 131.433 83.1641 131.691 83.1725 131.894L83.1782 132.006C83.3453 134.529 83.4877 137.522 83.2777 140.602C83.1789 142.07 82.9862 143.543 82.7251 145.213L82.9918 144.803C83.5891 143.891 84.1535 143.029 84.6925 142.172C85.171 141.414 85.5445 140.577 85.9146 139.769C86.1461 139.258 86.3851 138.729 86.6493 138.22C87.1255 137.3 87.4337 136.454 87.759 135.558C87.8874 135.207 88.018 134.847 88.1645 134.468C88.1828 134.42 88.2164 134.379 88.2602 134.352C88.304 134.325 88.3553 134.313 88.4066 134.318C88.4641 134.323 88.5175 134.35 88.5558 134.393L88.5871 134.268C88.5868 134.321 88.5865 134.374 88.5862 134.426C88.6035 134.451 88.6155 134.479 88.6216 134.509C88.7618 135.247 88.7311 135.647 88.4775 136.355C88.3247 136.785 88.1618 137.209 87.9888 137.626C87.961 137.694 87.9322 137.759 87.9034 137.825C87.4244 138.964 86.8654 140.067 86.2305 141.127C86.1518 141.257 86.07 141.385 85.9892 141.513C85.7103 142.016 85.424 142.515 85.1262 143.007C85.1006 143.063 85.0729 143.119 85.0494 143.177C84.9148 143.474 84.7482 143.756 84.5526 144.017C84.286 144.401 84.0342 144.765 83.9895 145.219C83.9836 145.275 83.9572 145.329 83.9149 145.368C83.7274 145.544 83.5535 145.733 83.3944 145.935C82.9558 146.725 82.5425 147.527 82.1849 148.352C82.053 148.757 81.9337 149.173 81.8144 149.596C81.7348 149.876 81.6553 150.156 81.5715 150.438C81.2731 151.423 81.0145 152.437 80.7635 153.423L80.5146 154.394C80.4904 154.48 80.4544 154.562 80.4079 154.639C80.385 154.677 80.3644 154.716 80.3461 154.756C80.4923 154.632 80.6199 154.489 80.7247 154.329C80.8284 154.179 80.9455 154.038 81.0748 153.909C82.2262 152.832 83.518 151.909 84.7675 151.016L85.2425 150.677C87.8399 148.813 89.769 146.803 91.14 144.519C91.1539 144.496 91.1666 144.47 91.1794 144.446C91.2476 144.311 91.3755 144.06 91.7085 144.059C91.7516 144.058 91.794 144.07 91.831 144.092C91.8681 144.114 91.8984 144.146 91.9185 144.184C92.1406 144.599 91.9248 144.941 91.7813 145.168C90.6118 147.019 89.4186 148.791 87.6261 150.109C87.2254 150.404 86.8238 150.699 86.421 150.993C85.0687 151.983 83.67 153.006 82.3311 154.056C80.8282 155.234 79.8303 156.551 79.2812 158.083C78.9058 159.18 78.4209 160.236 77.8336 161.236C77.7705 161.343 77.726 161.461 77.7021 161.583C77.6836 161.679 77.7014 161.712 77.7223 161.729C77.7445 161.717 77.7661 161.704 77.7868 161.69C78.5766 161.183 79.429 160.781 80.3225 160.494C81.7703 160.004 83.1788 159.405 84.536 158.701L84.6639 158.63C84.9112 158.488 85.2188 158.317 85.6135 158.409C85.6733 158.424 85.725 158.461 85.7577 158.513C85.7905 158.565 85.8016 158.628 85.789 158.688C85.6872 159.168 85.3533 159.334 85.0839 159.467C85.0043 159.504 84.9274 159.545 84.8535 159.592C83.9259 160.204 82.2608 160.978 81.218 161.283C78.6849 162.025 76.8289 163.409 75.5484 165.511C75.4537 165.666 75.3559 165.826 75.2538 166C74.3263 167.547 73.0818 169.618 71.3279 170.826C70.0269 172.421 68.6149 173.923 67.1026 175.32C66.2054 176.143 65.2256 176.874 64.2834 177.649C63.5425 178.242 61.6982 178.847 61.6982 178.847C60.4852 179.242 59.1 181.045 57.9942 181.683C57.7193 181.842 57.4507 182.011 57.1885 182.17C57.5999 183.04 57.6207 183.082 58.3096 182.746C60.4388 181.704 62.5242 179.62 64.4894 178.311C65.7039 177.494 67.0379 176.87 68.4439 176.463C69.3231 176.21 70.1972 175.933 71.0598 175.629C73.2179 174.871 75.2289 173.843 76.8923 172.231Z" fill="#F74700"/>
<path d="M20.0434 152.94C18.5287 153.406 17.62 155.357 19.3567 156.665L19.3406 156.719C20.8461 157.517 22.881 157.687 24.4745 156.903C24.7696 156.705 25.1003 156.539 25.4183 156.779C26.1684 157.571 25.1439 158.737 25.1324 159.661C24.8626 162.316 28.0743 161.213 29.6117 162.532L29.6276 162.516C29.6276 162.521 31.4347 164.988 32.483 166.162C28.577 165.356 27.1585 164.625 23.4347 166.862L24.1223 167.321C26.0697 165.422 31.8481 166.445 33.0894 167.194C32.9846 167.102 33.8815 167.831 34.2274 168.156C35.2451 168.391 36.0573 169.003 36.8769 169.604C37.4247 170.006 37.6556 169.791 37.6612 169.177C37.6589 169.167 37.6542 169.157 37.6475 169.15C37.6408 169.142 37.6322 169.136 37.6225 169.132C37.6129 169.129 37.6024 169.126 37.5921 169.128C37.5818 169.129 37.5719 169.133 37.5634 169.139C37.3068 168.887 37.0003 168.691 36.6635 168.565C36.6352 168.501 36.5893 168.448 36.5315 168.41C36.4735 168.373 36.4061 168.353 36.337 168.352C35.4233 167.609 34.5128 166.859 33.5992 166.114L33.5992 166.107C32.9384 165.378 32.3325 164.606 31.7394 163.824L31.7077 163.846C30.7345 162.436 29.2811 161.35 28.7541 159.671C28.7434 159.554 28.6991 159.443 28.6267 159.351C28.5543 159.259 28.4568 159.19 28.3461 159.152C28.0704 157.759 27.7269 156.803 27.2444 155.839C27.2787 155.357 27.0641 154.922 26.9972 154.444C26.9702 154.309 26.8939 154.19 26.7831 154.109C25.7916 153.334 24.3154 153.128 23.2304 153.623C22.45 154.105 22.1122 154.211 22.0771 154.091C21.9652 153.931 22.1781 153.738 22.3062 153.637C23.2461 152.516 25.3313 152.544 26.7399 153.354C26.0122 148.545 23.6363 146.227 18.8391 146.13C18.4186 145.943 18.504 145.563 19.1467 145.573C22.0841 145.475 24.7146 146.734 25.9669 149.105C25.99 147.053 25.5823 145.147 24.8474 143.146C23.9763 140.823 22.5095 140.616 21.0422 139.194L20.801 139.181L21.1377 138.897L21.1794 138.979C23.0344 139.273 24.4202 140.964 25.412 142.623C25.4051 140.651 25.6165 138.646 25.8085 136.707C26.0348 136.004 25.6982 133.638 26.5259 133.55C26.5138 137.04 25.8832 140.894 26.1176 143.827C26.6988 141.64 28.3014 139.981 29.7539 138.398C30.1336 137.957 30.3833 137.39 30.9748 137.14C31.1022 138.488 29.6331 139.463 28.91 140.442C25.7494 143.715 26.2935 146.675 26.9947 150.747C27.1259 146.111 32.2533 145.2 35.698 143.882C35.8387 143.788 36.0848 143.696 36.2243 143.991C35.2023 145.095 33.4425 145.286 32.0876 145.825C28.5853 146.872 26.8405 150.234 27.4083 153.479C27.765 153.761 27.349 154.095 27.5416 154.323C27.6463 154.439 27.7823 154.811 27.8874 154.481C28.8933 152.307 31.1366 151.957 33.6091 152.075C33.6445 152.077 33.6782 152.092 33.7042 152.115C33.7302 152.139 33.7468 152.172 33.751 152.207C33.7552 152.243 33.7468 152.277 33.7273 152.308C33.7077 152.337 33.6783 152.358 33.6443 152.368C32.6003 152.702 31.5095 152.726 30.4642 153.106C27.2501 154.259 28.1679 156.901 29.3076 159.243C29.5494 158.41 29.7709 157.811 30.6729 157.613C30.7343 157.951 30.5191 158.173 30.3388 158.387C29.595 159.491 29.5776 160.524 30.5681 161.486L30.4991 161.572L30.5732 161.7C30.687 161.69 30.7191 161.423 30.8185 161.366C30.8064 160.509 31.5855 159.879 32.0265 159.208C32.7416 158.15 32.5273 156.892 31.5031 156.131C31.3027 155.981 30.9542 155.924 30.9791 155.615C31.0074 155.265 31.3817 155.235 31.6362 155.135C33.5358 154.619 36.503 152.575 34.5281 150.544C33.6273 149.571 32.2609 150.254 31.157 150.37C28.516 149.854 34.4836 148.131 34.9303 147.767C38.0023 146.774 39.4688 142.3 35.4362 141.527C33.8109 140.843 30.7648 142.863 29.9316 141.663C29.7536 140.513 32.9767 138.887 33.31 137.324C33.8734 135.871 33.1141 134.658 31.5667 134.557C28.2915 134.947 29.0755 134.002 28.3344 131.421C28.0331 130.09 26.103 129.833 25.3435 130.923C24.0285 132.219 24.5798 135.585 22.3609 135.72C20.8404 135.712 18.7866 136.092 18.6617 137.695C18.4069 138.988 18.8687 139.887 20.1597 140.614C20.3011 140.757 20.6568 140.846 20.5978 141.038C20.1876 142.4 18.5166 141.984 17.1043 142.223C15.6456 142.455 14.867 144.325 15.3746 145.698C15.3874 145.676 15.4002 145.653 15.415 145.632C15.4002 145.653 15.3874 145.676 15.3746 145.698C15.779 146.884 16.8384 147.757 17.9617 148.317C19.9469 148.901 22.9158 150.337 20.8666 152.337L20.0434 152.94ZM20.1957 140.583L20.2539 140.538L20.1957 140.583Z" fill="#B53A25"/>
<path d="M23.1474 327.771C22.9811 327.932 22.8807 328.161 22.75 328.36L22.9595 328.584C25.6363 326.084 28.8681 324.785 32.4237 323.988C30.8008 325.705 29.251 327.351 27.6907 328.987C27.4614 329.224 27.2068 329.434 26.9317 329.615C25.1674 330.794 23.4053 331.977 21.6233 333.129C19.3495 334.6 17.037 336.012 14.7831 337.517C13.5223 338.353 12.494 339.457 11.8329 340.85C11.4138 341.731 11.0282 342.674 11.7463 343.534C12.4643 344.393 13.4528 344.191 14.4046 343.97C14.8034 343.878 15.2094 343.82 15.6113 343.747L15.7709 344.035C15.1637 344.649 11.1557 348.141 9.87894 349.394C7.67398 351.56 5.60324 353.843 5.75066 357.258C5.75066 357.258 6.13154 359.439 7.72096 359.186C8.24831 359.101 8.85701 359.169 9.3104 358.931C10.176 358.476 10.9581 357.859 11.7737 357.307C11.9598 357.181 12.1408 357.045 12.3249 356.913L12.4853 357.064C11.9454 357.879 11.4224 358.703 10.8615 359.506C9.94678 360.798 9.35983 362.293 9.15115 363.862C9.01984 364.921 9.05655 366.084 9.36281 367.096C9.99294 369.176 12.2923 369.726 13.9482 368.322C14.1071 368.188 14.2565 368.042 14.6663 367.668C14.6822 368.217 14.6393 368.551 14.7113 368.858C14.9171 369.747 15.0944 370.652 15.4237 371.497C16.1508 373.373 18.3454 373.823 19.6856 372.348C20.1611 371.798 20.4931 371.14 20.6521 370.431C20.8833 369.404 20.8957 368.325 21.0037 367.272C21.0305 367.012 21.0646 366.753 21.1044 366.416C21.671 366.85 22.0965 367.264 22.5987 367.543C24.0106 368.325 25.5133 367.559 25.655 365.953C25.7119 365.298 25.6305 364.638 25.4161 364.016C24.973 362.781 24.4223 361.587 23.8715 360.389C23.1656 358.862 22.3804 357.37 21.703 355.831C21.4387 355.23 21.1549 354.553 21.552 353.816C22.3618 354.106 22.5524 354.876 22.9782 355.435C23.656 356.335 24.3073 357.271 25.0984 358.065C25.7911 358.76 26.7153 359.116 27.7126 358.658C28.5314 358.281 28.9302 357.244 28.7807 356.093C28.7656 355.947 28.7357 355.803 28.6914 355.663C28.119 354.009 27.6004 352.333 26.9477 350.71C26.3075 349.117 25.511 347.585 24.8222 346.01C24.5194 345.319 24.2875 344.589 24.624 343.757C24.9409 344.01 25.2078 344.32 25.4114 344.67C25.8529 345.427 26.1865 346.255 26.7106 346.951C27.5673 348.082 29.01 347.876 29.4663 346.545C29.6791 345.89 29.7243 345.19 29.5978 344.513C29.3474 343.22 29.0042 341.946 28.5706 340.701C27.4785 337.562 27.2864 334.41 28.2021 331.202C28.2491 330.981 28.2806 330.755 28.2965 330.53L28.2702 330.518C27.5545 331.302 26.9825 332.215 26.4307 333.102C26.2297 333.424 26.0287 333.746 25.8215 334.063C25.8031 334.088 25.7887 334.116 25.7789 334.145C25.7939 334.574 25.7851 335.004 25.7527 335.432C25.7132 336.103 25.677 336.736 25.8135 337.377C26.1399 338.901 26.5659 340.401 27.0888 341.869C27.096 341.891 27.1054 341.913 27.1147 341.936C27.1568 342.01 27.1823 342.093 27.1892 342.178C27.1962 342.263 27.1846 342.349 27.1552 342.429C27.088 342.576 26.943 342.685 26.715 342.762C26.6571 342.78 26.5941 342.777 26.5392 342.75C26.4842 342.724 26.4414 342.678 26.4197 342.621C26.3355 342.399 26.2493 342.178 26.1641 341.958C25.5201 340.298 24.8626 338.595 24.7846 336.711C24.7544 336.453 24.7275 336.181 24.7038 335.894C23.8596 337.432 23.1064 338.898 22.4238 340.36C22.1409 340.992 22.0035 341.679 22.0216 342.371C22.0265 344.14 22.3373 345.66 22.9735 347.02C23.8701 348.938 24.7582 350.861 25.6182 352.725C25.6526 352.8 25.6912 352.874 25.7297 352.948C25.8757 353.227 26.0426 353.542 26.0077 353.925C26.0151 353.951 26.0178 353.977 26.0157 354.003C26.0129 354.055 25.993 354.104 25.9593 354.143C25.9255 354.183 25.8797 354.21 25.8291 354.22C25.7661 354.234 25.7005 354.223 25.6448 354.191L25.6385 354.191L25.6987 354.357C25.6622 354.294 25.6288 354.231 25.5944 354.168C25.317 354.026 25.1941 353.768 25.0941 353.555L25.0712 353.505C24.8931 353.128 24.7097 352.754 24.5264 352.379C24.244 351.804 23.9533 351.209 23.6858 350.612C23.4954 350.189 23.2892 349.752 23.0913 349.334C22.2352 347.529 21.3541 345.671 21.2082 343.483L20.8669 344.603C20.1155 347.069 19.3309 349.62 18.7876 352.19C18.5834 353.165 18.5846 354.173 18.7911 355.149C19.2153 357.303 20.1455 359.428 21.7201 361.837L21.8246 361.991C22.3471 362.783 22.881 363.601 23.2168 364.784C23.2313 364.834 23.2288 364.887 23.2094 364.936C23.1902 364.985 23.1553 365.026 23.1103 365.052C23.0652 365.079 23.0127 365.09 22.9608 365.083C22.9089 365.077 22.8606 365.053 22.8235 365.016C22.3456 364.549 22.0817 364.064 21.8481 363.629C21.7237 363.384 21.5813 363.148 21.4221 362.924C20.7595 362.026 20.1619 361.082 19.6339 360.099C18.9037 358.77 18.4544 357.329 18.0302 355.927L18.03 355.964L18.0201 356.039C17.5379 359.724 17.3841 363.116 17.5502 366.403C17.5596 366.599 17.5849 366.794 17.61 367.002C17.6807 367.565 17.7543 368.146 17.5266 368.733C17.5276 368.761 17.5239 368.789 17.5156 368.816C17.5035 368.854 17.4819 368.889 17.4529 368.917C17.4238 368.944 17.3881 368.964 17.3493 368.974L17.3208 368.981C17.2884 368.99 17.2546 368.991 17.2216 368.986C17.1887 368.98 17.1572 368.967 17.1295 368.949C17.1017 368.93 17.0782 368.906 17.0606 368.877C17.0428 368.849 17.0314 368.817 17.0269 368.784C16.8837 368.572 16.8809 368.314 16.8715 368.111C16.8717 368.073 16.8719 368.036 16.8658 367.999C16.6986 365.476 16.5573 362.483 16.7663 359.403C16.8661 357.936 17.0588 356.462 17.3189 354.793L17.0363 355.196C16.439 356.108 15.8747 356.97 15.3356 357.827C14.8562 358.585 14.4785 359.422 14.1125 360.23C13.882 360.741 13.643 361.27 13.3789 361.779C12.9017 362.698 12.5934 363.545 12.2681 364.441C12.1407 364.791 12.0091 365.152 11.8637 365.53C11.8452 365.579 11.8116 365.619 11.7679 365.646C11.7241 365.674 11.6727 365.686 11.6215 365.681C11.5637 365.675 11.51 365.649 11.4713 365.605C11.4616 365.647 11.4497 365.688 11.4411 365.73L11.442 365.572C11.4251 365.547 11.4132 365.519 11.4066 365.49C11.2674 364.752 11.2981 364.351 11.5507 363.644C11.7041 363.214 11.8674 362.79 12.0404 362.372C12.0672 362.305 12.096 362.24 12.1248 362.174C12.6042 361.035 13.1632 359.932 13.7976 358.872C13.8763 358.742 13.9582 358.614 14.0401 358.486C14.3189 357.982 14.6041 357.483 14.9019 356.992C14.9275 356.935 14.9563 356.881 14.9798 356.822C15.1137 356.524 15.28 356.243 15.4756 355.981C15.7422 355.597 15.994 355.234 16.0386 354.781C16.0442 354.723 16.0708 354.671 16.1132 354.631C16.3008 354.455 16.4751 354.265 16.6349 354.064C17.0734 353.274 17.4867 352.472 17.8433 351.647C17.9752 351.242 18.0945 350.825 18.2149 350.402C18.2944 350.123 18.3739 349.843 18.4577 349.561C18.7551 348.576 19.0147 347.562 19.2647 346.576L19.5135 345.604C19.5379 345.518 19.5738 345.436 19.6203 345.36C19.649 345.309 19.6692 345.272 19.682 345.243C19.5352 345.365 19.4073 345.51 19.3024 345.67C19.1988 345.82 19.082 345.96 18.9534 346.089C17.8009 347.167 16.5091 348.089 15.2607 348.982L14.7846 349.322C12.1872 351.185 10.2581 353.196 8.88708 355.481C8.87326 355.503 8.86153 355.528 8.84875 355.552C8.7795 355.688 8.65165 355.939 8.31971 355.939C8.27664 355.94 8.23423 355.928 8.19716 355.907C8.1601 355.885 8.12981 355.853 8.10965 355.815C7.88752 355.4 8.1044 355.057 8.24687 354.83C9.41634 352.979 10.6107 351.208 12.402 349.889C12.8034 349.594 13.2051 349.3 13.6072 349.006C14.9594 348.015 16.3582 346.993 17.6981 345.943C19.201 344.765 20.1979 343.448 20.747 341.916C21.1224 340.819 21.6074 339.763 22.1946 338.763C22.2579 338.656 22.3023 338.538 22.3261 338.416C22.3446 338.32 22.3268 338.287 22.3058 338.27C22.2879 338.279 22.2604 338.296 22.2413 338.309C21.4516 338.815 20.5992 339.217 19.7057 339.504C18.2575 339.995 16.8486 340.594 15.4912 341.297L15.3633 341.368C15.1169 341.51 14.8093 341.681 14.4136 341.59C14.3538 341.576 14.3018 341.538 14.2691 341.486C14.2363 341.434 14.2252 341.37 14.2382 341.31C14.3388 340.831 14.6738 340.665 14.9422 340.531C15.0214 340.495 15.0984 340.453 15.1726 340.407C16.1002 339.795 17.7652 339.021 18.808 338.715C21.3412 337.974 23.1983 336.59 24.4777 334.488C24.5723 334.332 24.6702 334.173 24.7723 333.998C25.6998 332.451 26.9453 330.38 28.6982 329.173C29.9991 327.577 31.4114 326.076 32.9246 324.68C33.8206 323.856 34.8016 323.125 35.7437 322.351C36.4794 321.757 38.3279 321.152 38.3279 321.152C39.5419 320.757 40.9261 318.953 42.0319 318.316C42.3068 318.157 42.5743 317.988 42.8365 317.829C42.4251 316.959 42.4043 316.916 41.7154 317.253C39.5862 318.295 37.5008 320.379 35.5356 321.687C34.3211 322.505 32.9871 323.128 31.5811 323.536C30.7016 323.789 29.8296 324.065 28.9653 324.364C26.8218 325.131 24.8119 326.155 23.1474 327.771Z" fill="#F74700"/>
<path d="M82.8806 347.22C84.3954 346.753 85.3041 344.803 83.5674 343.495L83.5835 343.442C82.0779 342.642 80.043 342.474 78.4506 343.256C78.1545 343.456 77.8237 343.621 77.5068 343.381C76.7557 342.589 77.7801 341.423 77.7927 340.499C78.0615 337.844 74.8508 338.947 73.3123 337.629L73.2975 337.644C73.2975 337.644 71.4904 335.173 70.4411 333.997C74.3471 334.803 75.7656 335.534 79.4894 333.299L78.8028 332.839C76.8554 334.738 71.076 333.715 69.8346 332.966C69.9395 333.058 69.0436 332.33 68.6977 332.004C67.679 331.769 66.8668 331.157 66.0472 330.555C65.4994 330.153 65.2684 330.37 65.2629 330.982C65.265 330.993 65.2695 331.002 65.2762 331.009C65.2829 331.018 65.2914 331.024 65.3011 331.029C65.3109 331.032 65.3213 331.034 65.3317 331.032C65.3421 331.031 65.3521 331.028 65.3607 331.021C65.6174 331.274 65.9244 331.469 66.2616 331.596C66.2896 331.659 66.3352 331.712 66.393 331.75C66.4507 331.787 66.5182 331.808 66.5871 331.808C67.5008 332.551 68.4123 333.301 69.3249 334.046L69.3248 334.053C69.9846 334.782 70.5905 335.554 71.1836 336.336L71.2164 336.315C72.1885 337.725 73.6419 338.811 74.1689 340.489C74.18 340.606 74.2244 340.716 74.2967 340.808C74.3691 340.9 74.4663 340.969 74.5769 341.008C74.8526 342.401 75.1961 343.357 75.6786 344.322C75.6443 344.803 75.8589 345.237 75.9258 345.716C75.9538 345.85 76.0304 345.97 76.141 346.051C77.1325 346.826 78.6087 347.032 79.6926 346.536C80.474 346.054 80.8118 345.949 80.847 346.069C80.9578 346.229 80.7449 346.423 80.6168 346.523C79.678 347.644 77.5917 347.615 76.1832 346.805C76.9108 351.615 79.2867 353.933 84.0839 354.031C84.5044 354.217 84.4201 354.596 83.7763 354.586C80.84 354.686 78.2084 353.426 76.9571 351.055C76.933 353.108 77.3407 355.013 78.0756 357.014C78.9467 359.337 80.4135 359.544 81.8808 360.967L82.122 360.98L81.7853 361.263L81.7436 361.181C79.8886 360.886 78.5039 359.195 77.511 357.537C77.519 359.509 77.3065 361.514 77.1145 363.452C76.8882 364.155 77.2259 366.522 76.3971 366.609C76.4103 363.121 77.0398 359.266 76.8054 356.333C76.2242 358.52 74.6216 360.179 73.1691 361.762C72.7905 362.204 72.5397 362.77 71.9482 363.02C71.8208 361.672 73.2899 360.697 74.013 359.719C77.1746 356.446 76.6306 353.486 75.9283 349.415C75.7971 354.051 70.6697 354.961 67.225 356.279C67.0843 356.373 66.8382 356.465 66.6987 356.171C67.7207 355.067 69.4805 354.876 70.8365 354.337C74.3376 353.29 76.0835 349.929 75.5158 346.683C75.1591 346.401 75.574 346.066 75.3814 345.84C75.2766 345.724 75.1407 345.352 75.0366 345.683C74.0297 347.856 71.7864 348.206 69.3139 348.087C69.2785 348.086 69.245 348.071 69.2192 348.046C69.1933 348.023 69.1769 347.99 69.1728 347.955C69.1687 347.92 69.1772 347.884 69.1968 347.855C69.2163 347.825 69.2458 347.804 69.2797 347.794C70.3227 347.461 71.4135 347.437 72.4588 347.057C75.674 345.904 74.7551 343.263 73.6153 340.919C73.3736 341.752 73.1521 342.353 72.2511 342.55C72.1898 342.213 72.4039 341.99 72.5842 341.775C73.328 340.672 73.3464 339.639 72.3549 338.677L72.425 338.591L72.3498 338.463C72.2359 338.473 72.2039 338.741 72.1045 338.797C72.1176 339.655 71.3375 340.285 70.8964 340.956C70.1814 342.014 70.3956 343.271 71.4198 344.032C71.6213 344.182 71.9687 344.24 71.9438 344.548C71.9155 344.898 71.5413 344.929 71.2868 345.028C69.3871 345.545 66.4252 347.588 68.3949 349.619C69.2957 350.593 70.6631 349.909 71.766 349.792C74.408 350.308 68.4394 352.033 67.9927 352.396C64.9207 353.389 63.4542 357.864 67.4879 358.637C69.1132 359.32 72.1593 357.3 72.9914 358.501C73.1704 359.649 69.9463 361.276 69.613 362.839C69.0496 364.292 69.8089 365.505 71.3563 365.606C74.6314 365.216 73.8485 366.161 74.5886 368.742C74.8899 370.073 76.82 370.335 77.5795 369.239C78.8955 367.945 78.3432 364.578 80.5568 364.443C82.0784 364.451 84.1311 364.07 84.256 362.469C84.5098 361.175 84.048 360.275 82.757 359.549C82.6155 359.406 82.2609 359.318 82.3199 359.125C82.7291 357.757 84.4001 358.18 85.8134 357.939C87.271 357.708 88.0497 355.838 87.542 354.464C87.5302 354.487 87.5167 354.51 87.5016 354.531C87.5167 354.51 87.5302 354.487 87.542 354.464C87.1387 353.279 86.0783 352.406 84.9549 351.847C82.9708 351.262 80.002 349.826 82.05 347.826L82.8806 347.22ZM82.7284 359.577C82.7093 359.592 82.6892 359.607 82.6712 359.622C82.6892 359.607 82.7093 359.592 82.7284 359.577Z" fill="#B53A25"/>
<path d="M77.9714 315.282C77.3703 316.122 78.3369 316.256 78.8343 316.635C79.3316 317.014 79.6233 317.809 79.9618 318.336C80.177 318.672 80.5326 319.335 80.9914 319.825C81.6566 320.537 83.1485 320.95 83.7803 320.465C83.719 319.359 83.5706 318.389 83.6585 316.603C83.693 315.907 83.9176 314.181 83.932 313.48C83.9465 312.779 84.3217 311.453 83.7982 311.212C82.8523 310.773 81.1712 311.78 80.4651 312.552C79.442 313.673 79.7477 314.024 79.1244 314.688C78.7035 315.139 77.9714 315.282 77.9714 315.282Z" fill="#A88771"/>
<path d="M79.4087 305.091C78.9462 306.016 79.9221 305.995 80.4726 306.293C81.0231 306.591 81.4342 307.33 81.8499 307.797C82.1149 308.096 82.5699 308.695 83.0997 309.109C83.8667 309.707 85.4053 309.883 85.9533 309.306C85.7212 308.222 85.4229 307.287 85.2369 305.508C85.1627 304.816 85.1145 303.071 85.0204 302.382C84.9262 301.692 85.0899 300.318 84.5354 300.166C83.5285 299.881 82.0283 301.136 81.4513 302.01C80.6149 303.276 80.9715 303.575 80.4594 304.323C80.1099 304.832 79.4087 305.091 79.4087 305.091Z" fill="#A88771"/>
<path d="M91.5516 315.78C91.5516 315.78 89.2881 321.622 83.2919 319.99L83.4297 311.734C83.4297 311.734 88.6661 310.543 91.5516 315.78Z" fill="#B8CDB4"/>
<path d="M92.9006 303.468C92.9006 303.468 91.5745 309.591 85.397 308.913L84.254 300.737C84.254 300.737 89.2357 298.741 92.9006 303.468Z" fill="#B8CDB4"/>
<path d="M22.936 182.762C23.5381 181.923 22.5705 181.789 22.0731 181.41C21.5758 181.031 21.2851 180.235 20.9467 179.708C20.7315 179.373 20.3748 178.71 19.916 178.22C19.2519 177.508 17.7599 177.095 17.1281 177.58C17.1884 178.686 17.3378 179.656 17.2488 181.442C17.2144 182.138 16.9908 183.864 16.9764 184.565C16.9619 185.265 16.5857 186.592 17.1091 186.833C18.0551 187.272 19.7372 186.265 20.4423 185.492C21.4665 184.372 21.1607 184.021 21.7841 183.357C22.2038 182.909 22.936 182.762 22.936 182.762Z" fill="#A88771"/>
<path d="M9.36109 182.265C9.36109 182.265 11.6245 176.423 17.6218 178.055L17.483 186.309C17.483 186.309 12.2413 187.505 9.36109 182.265Z" fill="#B8CDB4"/>
<path d="M21.4986 192.957C21.9611 192.032 20.9863 192.052 20.4358 191.755C19.8853 191.458 19.4742 190.718 19.0574 190.251C18.7925 189.952 18.3375 189.353 17.8076 188.939C17.0407 188.341 15.5032 188.165 14.9541 188.742C15.1862 189.826 15.4845 190.76 15.6758 192.54C15.7499 193.232 15.7971 194.976 15.8912 195.666C15.9854 196.357 15.8217 197.73 16.3762 197.887C17.383 198.172 18.8832 196.917 19.4603 196.043C20.2967 194.777 19.9401 194.478 20.4522 193.724C20.7985 193.216 21.4986 192.957 21.4986 192.957Z" fill="#A88771"/>
<path d="M8.00674 194.58C8.00674 194.58 9.33284 188.457 15.5104 189.135L16.6586 197.311C16.6586 197.311 11.6727 199.307 8.00674 194.58Z" fill="#B8CDB4"/>
<path d="M48.8003 292.636C48.7367 292.755 48.6862 292.883 48.6496 293.013C48.3671 294.719 47.0663 295.744 45.3445 295.548C44.0124 295.394 42.6781 295.247 41.3422 295.201C40.3592 295.166 39.3938 294.829 38.3999 295.04C38.3348 295.013 38.2696 294.987 38.2044 294.959C38.2033 295.16 38.3369 295.009 38.401 295.038C38.4457 295.144 38.484 295.266 38.6104 295.274C39.7186 295.345 40.7244 295.813 41.7809 296.083C42.9489 296.384 44.0954 296.752 45.2622 297.078C45.6468 297.182 46.006 297.363 46.3168 297.612C46.6277 297.861 46.8838 298.171 47.0687 298.524C47.7594 299.764 47.4741 301.404 46.3766 302.259C45.1753 303.2 43.3945 303.196 42.4575 302.113C40.9697 300.396 39.376 298.759 38.1201 296.849C37.9466 296.586 37.7373 296.524 37.3439 296.574C38.4751 298.371 39.3501 300.199 40.3698 301.946C40.922 302.897 41.4509 303.849 41.2516 305.015C40.9902 306.535 39.394 307.613 37.7895 307.361C36.3639 307.143 35.1351 305.472 35.3445 304.009C35.6373 301.971 35.6983 299.912 35.8973 297.866C35.913 297.705 35.9719 297.536 35.7701 297.434C35.5497 297.47 35.5717 297.673 35.5288 297.817C34.9552 299.761 34.368 301.701 33.826 303.653C33.227 305.811 30.8374 306.686 29.1066 305.284C27.7124 304.154 27.5501 302.094 28.914 300.887C29.8788 300.033 30.8624 299.197 31.8512 298.375C32.6029 297.746 33.4605 297.196 34.0616 296.367C33.7801 296.209 33.6085 296.364 33.4182 296.469C31.6372 297.44 29.8625 298.423 28.0679 299.369C26.8705 300.001 25.7095 299.961 24.6164 299.072C23.7237 298.346 23.3747 297.073 23.7676 295.777C24.051 294.847 25.0636 294.09 26.0907 293.96C27.3909 293.795 28.66 294.1 29.9453 294.157C31.0747 294.208 32.2017 294.294 33.3699 294.367C33.2892 294.094 33.1536 294.032 33.0274 293.997C31.364 293.535 29.6888 293.109 28.034 292.614C26.9147 292.279 25.7571 291.988 25.2099 290.725C24.6627 289.462 24.9233 288.089 26.0023 287.154C26.9489 286.33 28.4478 286.248 29.5323 286.969C30.1328 287.369 30.5225 287.975 30.9726 288.516C32.2224 290.018 33.4659 291.525 34.8373 292.937C35.0157 292.703 34.8847 292.578 34.8053 292.438C33.6648 290.437 32.5295 288.435 31.446 286.402C30.4542 284.542 31.5547 282.211 33.7781 282.02C35.5377 281.869 37.1069 283.358 36.9576 284.989C36.7647 287.082 36.6381 289.184 36.5136 291.283C36.4949 291.611 36.1496 291.937 36.5361 292.351C37.2226 290.366 37.77 288.392 38.2616 286.408C38.6497 284.841 39.6058 283.652 40.9517 283.415C41.9844 283.233 43.545 283.983 43.9805 284.873C44.6057 286.141 44.4115 287.708 43.4669 288.528C41.8087 289.967 40.1191 291.372 38.4483 292.797C38.2641 292.954 37.9885 293.056 37.9504 293.461C39.929 292.39 41.8179 291.348 43.7245 290.338C46.2546 289.001 46.8366 289.525 48.2908 290.84C48.5373 291.417 48.7912 291.991 48.8003 292.636ZM35.9221 292.865C34.8787 293.082 34.2591 294.015 34.5023 294.998C34.7083 295.849 35.7407 296.464 36.627 296.268C37.5132 296.073 38.092 295.091 37.8821 294.168C37.6693 293.223 36.842 292.674 35.9221 292.865Z" fill="#B8CDB4"/>
<path d="M38.5343 294.005C38.2381 292.699 37.0927 291.938 35.8183 292.198C34.3719 292.499 33.5133 293.788 33.8502 295.155C34.1408 296.335 35.566 297.187 36.7909 296.914C38.0159 296.642 38.8243 295.287 38.5343 294.005Z" fill="#F74700"/>
<path d="M83.799 118.008C84.9728 115.381 86.8963 113.61 89.6403 112.849C91.5675 112.315 93.2153 114.239 92.5583 116.232C92.0427 117.797 90.8814 118.752 89.3186 119.143C87.7906 119.527 86.2185 119.497 84.6555 119.374C83.7528 119.301 83.3092 118.913 83.799 118.008Z" fill="#F74700"/>
<path d="M22.1518 118.445C20.9017 115.853 18.9334 114.134 16.1732 113.449C14.2317 112.969 12.6411 114.943 13.3499 116.911C13.9081 118.46 15.0958 119.38 16.6693 119.729C18.2069 120.072 19.7774 120 21.3358 119.832C22.2404 119.74 22.6736 119.339 22.1518 118.445Z" fill="#F74700"/>
<path d="M82.3184 383.187C83.4628 385.827 85.3664 387.619 88.1017 388.41C90.0228 388.966 91.692 387.06 91.0573 385.059C90.5592 383.49 89.4086 382.521 87.8503 382.114C86.3267 381.713 84.7544 381.724 83.19 381.831C82.2866 381.892 81.8387 382.276 82.3184 383.187Z" fill="#F74700"/>
<path d="M20.6799 382.058C19.401 384.636 17.4136 386.332 14.6459 386.986C12.6992 387.446 11.1307 385.454 11.8614 383.493C12.4369 381.949 13.6348 381.043 15.2121 380.711C16.7534 380.386 18.323 380.476 19.8794 380.661C20.783 380.768 21.2117 381.173 20.6799 382.058Z" fill="#F74700"/>
<path d="M51.1792 207.593C51.2428 207.473 51.2933 207.346 51.3299 207.215C51.6124 205.51 52.9132 204.484 54.6339 204.679C55.9671 204.833 57.3014 204.98 58.6362 205.027C59.6192 205.062 60.5847 205.4 61.5785 205.187C61.6437 205.215 61.7078 205.242 61.773 205.268C61.7741 205.068 61.6415 205.218 61.5774 205.189C61.5327 205.089 61.4944 204.961 61.368 204.954C60.2598 204.883 59.2529 204.415 58.1975 204.145C57.0285 203.845 55.883 203.477 54.7162 203.15C54.3302 203.048 53.9695 202.866 53.6572 202.617C53.345 202.369 53.0879 202.057 52.9023 201.703C52.2106 200.465 52.4969 198.824 53.5944 197.969C54.7957 197.033 56.5765 197.037 57.5136 198.115C59.0014 199.832 60.595 201.468 61.8499 203.378C62.0244 203.643 62.2338 203.704 62.6271 203.654C61.4959 201.857 60.621 200.029 59.6012 198.282C59.048 197.331 58.5201 196.38 58.7195 195.212C58.9798 193.693 60.577 192.615 62.1815 192.867C63.606 193.085 64.8349 194.755 64.6255 196.218C64.3338 198.257 64.2727 200.316 64.0738 202.362C64.0581 202.522 63.9981 202.693 64.1999 202.794C64.4203 202.758 64.3993 202.555 64.4423 202.412C65.0159 200.468 65.6031 198.527 66.1451 196.574C66.743 194.417 69.1336 193.542 70.8645 194.944C72.2586 196.074 72.421 198.133 71.057 199.341C70.0923 200.196 69.1087 201.03 68.1199 201.854C67.3682 202.482 66.5105 203.032 65.9095 203.862C66.191 204.02 66.3626 203.865 66.5528 203.761C68.3338 202.79 70.1086 201.806 71.9031 200.859C73.1006 200.228 74.2605 200.268 75.3546 201.158C76.2473 201.883 76.5964 203.156 76.2024 204.451C75.9201 205.382 74.9074 206.139 73.8803 206.268C72.5791 206.434 71.3099 206.13 70.0257 206.072C68.8964 206.021 67.7694 205.935 66.6011 205.862C66.6818 206.134 66.8174 206.197 66.9437 206.232C68.6071 206.694 70.2823 207.12 71.936 207.615C73.0564 207.95 74.2139 208.241 74.7611 209.504C75.3083 210.768 75.0478 212.14 73.9688 213.075C73.0221 213.899 71.5222 213.981 70.4387 213.26C69.8382 212.86 69.4485 212.254 68.9984 211.713C67.7423 210.211 66.5052 208.704 65.1326 207.292C64.9554 207.525 65.0853 207.651 65.1657 207.791C66.3063 209.791 67.4405 211.794 68.5251 213.827C69.5168 215.687 68.4163 218.018 66.1918 218.209C64.4333 218.359 62.8642 216.87 63.0134 215.241C63.2064 213.146 63.333 211.045 63.4574 208.946C63.4761 208.617 63.8215 208.292 63.4349 207.878C62.7473 209.862 62.2 211.838 61.7094 213.82C61.3213 215.388 60.3652 216.577 59.0193 216.815C57.9867 216.997 56.426 216.246 55.9895 215.356C55.3643 214.088 55.5596 212.521 56.5041 211.7C58.1623 210.261 59.852 208.857 61.5228 207.432C61.7059 207.275 61.9826 207.173 62.0207 206.768C60.0421 207.839 58.1532 208.881 56.2466 209.89C53.7164 211.229 53.1345 210.703 51.6803 209.389C51.4422 208.81 51.1841 208.238 51.1792 207.593ZM64.0574 207.363C65.1008 207.147 65.7203 206.213 65.4771 205.23C65.2712 204.378 64.2387 203.764 63.3525 203.96C62.4662 204.156 61.8875 205.137 62.0963 206.06C62.3102 207.005 63.1375 207.554 64.0574 207.363Z" fill="#B8CDB4"/>
<path d="M61.4452 206.222C61.7403 207.529 62.8868 208.29 64.1612 208.029C65.6076 207.729 66.4651 206.44 66.1292 205.073C65.8387 203.894 64.4124 203.042 63.1886 203.313C61.9647 203.584 61.1541 204.941 61.4452 206.222Z" fill="#F74700"/>
</g>
<defs>
<clipPath id="clip0_435:137">
<rect width="500" height="100" fill="white" transform="translate(0 499.992) rotate(-89.6801)"/>
</clipPath>
</defs>
</svg>
