<svg width="77" height="80" viewBox="0 0 77 80" fill="none" xmlns="http://www.w3.org/2000/svg">
<path d="M33.0146 4.48277C33.3859 4.50309 33.8382 4.62965 33.818 5.19684C33.7025 8.42342 33.6994 11.75 33.7744 14.9562C33.7764 15.0562 33.7432 15.1538 33.6803 15.2316C33.6176 15.3094 33.5292 15.3624 33.4311 15.3813C25.8385 16.8546 26.8291 22.4437 26.8572 28.6921C26.8572 29.6031 26.8885 30.8484 26.9446 31.6921C26.9513 31.7861 26.9937 31.8739 27.0631 31.9375C27.1324 32.0012 27.2235 32.0358 27.3175 32.0344C29.6107 31.9984 42.9877 32.0672 49.9844 32.0234C51.3026 31.9953 52.5413 31.9859 53.8579 31.9813C54.3883 31.9813 54.5833 31.7921 54.5755 31.2765C54.3664 24.4687 55.8048 17.9687 47.947 15.2656C47.8366 15.2275 47.741 15.1555 47.6738 15.0598C47.6066 14.9642 47.5711 14.8497 47.5726 14.7328C47.6131 11.3718 47.5149 8.06094 47.5087 4.70153C47.5087 4.59661 47.5475 4.49541 47.6174 4.41729C47.6873 4.33918 47.7836 4.28962 47.8877 4.27809C53.0654 3.71559 58.7422 6.37653 61.516 10.6203C61.8919 11.1937 62.2101 11.2625 62.6251 10.6093C64.8747 7.07341 67.6842 5.79841 71.0195 4.76872C72.6544 4.26246 74.4344 4.55621 75.6824 4.55777C76.2814 4.55777 76.5107 4.69215 76.4952 5.32653C76.4655 6.61559 76.5123 7.90622 76.5264 9.19686C76.5264 11.4828 76.5155 13.539 76.5029 14.6656C76.4997 14.786 76.4516 14.9008 76.3682 14.9875C76.2849 15.0742 76.1721 15.1266 76.0521 15.1344C70.2551 15.5281 69.3191 19.1906 69.0991 24.3297C69.1335 30.4062 68.5376 37.4969 76.1629 38.4984C76.2464 38.5103 76.3233 38.5509 76.3802 38.6133C76.4372 38.6758 76.4706 38.7561 76.4749 38.8406C76.4873 39.0938 76.5357 39.5078 76.5466 39.7593C76.5638 40.1922 76.478 40.4281 76.0631 40.55C75.1817 40.8093 72.9618 41.4734 72.0523 42.3172C70.7419 43.5297 69.2551 45.6703 69.3004 47.9015C69.2162 51.0062 69.2006 54.1156 69.213 57.2218C69.213 57.2218 69.7029 62.9203 75.5467 63.6641C76.0287 63.725 76.1878 63.8281 76.1925 64.4078C76.2128 67.4953 76.3017 70.5015 76.1114 73.7031C76.1004 73.9015 75.9678 74.2125 75.7136 74.2546C75.1956 74.3164 74.6726 74.321 74.1535 74.2687C70.0757 74.0766 66.7982 72.7187 64.9605 71.3C64.3364 70.8156 63.1244 69.5813 62.491 68.8859C62.4439 68.8331 62.3865 68.7907 62.3222 68.7612C62.258 68.7318 62.1883 68.716 62.1177 68.7148C62.0471 68.7136 61.977 68.7271 61.9118 68.7544C61.8466 68.7817 61.7878 68.8223 61.7391 68.8734C57.8296 72.9079 53.7096 74.8938 47.8892 74.039C47.8472 70.8203 47.7535 67.7578 47.7489 64.5078C47.7489 64.0484 47.9423 63.8328 48.2512 63.7125C49.6895 63.15 54.1387 63.425 54.719 57.5687C54.8251 54.0531 54.6815 51.1625 54.719 47.6359C54.6925 47.5531 54.5365 47.3969 54.4211 47.4453C45.2731 47.4046 34.6089 47.4297 27.1505 47.5C26.8463 47.5 26.695 47.5797 26.6965 47.9344C26.7106 49.9656 26.8775 51.4938 26.9212 53.5234C27.046 55.6281 27.1957 57.4969 28.0475 59.5687C28.879 61.5875 30.4577 63.0641 33.2065 63.7344C33.7572 63.8687 34.0567 64.1828 34.0879 64.8172C34.2438 67.8375 34.2657 71.2703 34.3609 74.2922C31.7291 74.3453 29.1208 74.3187 26.5608 73.3828C23.9743 72.4375 22.6608 71.0515 20.9183 69.3046C20.8529 69.2384 20.7735 69.1877 20.686 69.1561C20.5984 69.1245 20.505 69.113 20.4124 69.1222C20.3198 69.1315 20.2305 69.1614 20.1509 69.2098C20.0714 69.2581 20.0036 69.3236 19.9527 69.4015C16.7375 74.2546 11.1042 74.2859 6.75494 74.2453C6.13096 74.2453 6.07012 74.0156 6.04516 73.3969C5.91724 70.2813 5.88916 67.1281 5.82052 64.0015C5.81463 63.932 5.82335 63.8621 5.84608 63.7961C5.86882 63.7302 5.90508 63.6698 5.95254 63.6186C6 63.5676 6.0576 63.527 6.12165 63.4996C6.18569 63.4722 6.25476 63.4585 6.3244 63.4594C9.82819 63.3031 12.5645 60.9187 12.6128 58.2046C12.6393 57.0313 12.6908 55.4687 12.6908 54.2922C12.6908 48.0172 13.0371 43.3453 5.78308 40.8078C5.66452 40.7672 5.78308 39.6218 5.74564 39.1047C5.74305 39.0756 5.75112 39.0465 5.76835 39.0229C5.78557 38.9993 5.81077 38.9829 5.83924 38.9765C9.34305 38.2062 12.0543 34.9249 12.4319 31.4172C12.2649 25.389 13.7454 16.6234 6.0358 15.3234C5.84526 15.2941 5.6703 15.2009 5.53963 15.0589C5.40895 14.9169 5.33033 14.7348 5.31664 14.5421C5.20744 12.2125 5.21368 7.78434 5.248 5.25153C5.2636 4.16872 5.62084 4.07809 6.53345 4.06246C7.8603 4.02241 9.18825 4.07933 10.5068 4.23277C13.6034 4.63121 17.2148 7.56403 19.0026 10.8249C19.2725 11.3234 19.5392 11.2062 19.7093 10.7828C21.4175 6.94997 25.759 4.75621 29.6933 4.53277L33.0146 4.48277Z" fill="#2D3837"/>
<path d="M36.9084 57.0202H36.8803C36.2404 57.0151 35.6164 56.82 35.0873 56.4596C34.5581 56.0991 34.1477 55.5895 33.9079 54.9953C33.668 54.4011 33.6096 53.749 33.7399 53.1214C33.8703 52.494 34.1835 51.9193 34.6402 51.4702C35.2418 50.8694 36.0571 50.5322 36.9069 50.5327H36.9349C37.3607 50.5358 37.7818 50.623 38.1738 50.7894C38.5659 50.9558 38.9214 51.1981 39.2198 51.5023C39.5182 51.8066 39.7537 52.1668 39.9128 52.5625C40.0719 52.9581 40.1515 53.3813 40.147 53.8078L39.1236 53.7984L40.147 53.8078C40.1395 54.6621 39.7956 55.4789 39.19 56.0805C38.5843 56.6821 37.7661 57.0198 36.9131 57.0202H36.9084ZM36.9084 52.589C36.5931 52.5875 36.2902 52.7116 36.0662 52.9338C35.8422 53.1561 35.7156 53.4584 35.7142 53.7742C35.7128 54.0899 35.8366 54.3934 36.0585 54.6177C36.2804 54.8419 36.5822 54.9688 36.8974 54.9702H36.9084C37.2165 54.9603 37.5088 54.8311 37.7236 54.6098C37.9386 54.3883 38.0593 54.0921 38.0605 53.7834C38.0617 53.4746 37.9433 53.1774 37.7302 52.9543C37.517 52.7313 37.2258 52.5998 36.9177 52.5874L36.9084 52.589Z" fill="#B53A25"/>
<path d="M36.9085 42.8876H36.8804C36.4555 42.8858 36.0352 42.8003 35.6432 42.6358C35.2514 42.4713 34.8957 42.2312 34.5965 41.929C33.9922 41.3188 33.6547 40.4932 33.6582 39.6336C33.6617 38.7742 34.006 37.9513 34.6152 37.3461C35.2245 36.7408 36.0488 36.4028 36.9069 36.4063H36.935C37.7936 36.4133 38.6144 36.7616 39.2167 37.3746C39.819 37.9876 40.1537 38.815 40.1471 39.6751L39.1237 39.6657L40.1471 39.6751C40.1396 40.5294 39.7957 41.3462 39.1901 41.9478C38.5845 42.5495 37.7662 42.8872 36.9132 42.8876H36.9085ZM36.9085 38.4563C36.5932 38.4548 36.2903 38.5789 36.0663 38.8012C35.8423 39.0234 35.7157 39.3257 35.7143 39.6415C35.7129 39.9572 35.8367 40.2607 36.0586 40.485C36.2805 40.7093 36.5823 40.8361 36.8975 40.8376H36.9085C37.2237 40.8388 37.5266 40.7145 37.7504 40.4921C37.9742 40.2697 38.1007 39.9674 38.1019 39.6516C38.1031 39.3359 37.9791 39.0325 37.7571 38.8084C37.535 38.5842 37.2331 38.4576 36.9178 38.4563H36.9085Z" fill="#B53A25"/>
<path d="M61.1041 38.4984H39.2125V40.5484H61.1041V38.4984Z" fill="#B53A25"/>
<path d="M39.4669 54.8938C39.0373 54.8938 38.6086 54.8545 38.1862 54.7766L38.5559 52.761C40.9676 53.2062 43.5884 51.836 45.2296 49.2688C45.9035 48.2172 46.4214 47 46.9721 45.7141C47.398 44.7141 47.8379 43.6828 48.3637 42.7188C49.997 39.7203 52.2527 38.2359 54.3946 38.7469L53.9266 40.7406C52.5226 40.4062 51.0234 42.125 50.1654 43.7C49.6881 44.5782 49.2856 45.5203 48.8598 46.5126C48.3012 47.8203 47.724 49.1688 46.9597 50.3688C45.1391 53.2157 42.2999 54.8938 39.4669 54.8938Z" fill="#B53A25"/>
<path d="M61.622 43.0282H61.5924C60.93 43.0227 60.2843 42.8206 59.7367 42.4474C59.189 42.0742 58.7643 41.5466 58.5161 40.9316C58.268 40.3165 58.2075 39.6415 58.3424 38.992C58.4774 38.3425 58.8017 37.7477 59.2742 37.2829C59.5859 36.9721 59.9566 36.7269 60.3644 36.5616C60.7721 36.3963 61.2087 36.3143 61.6486 36.3204C62.5364 36.3286 63.3848 36.6895 64.0072 37.3238C64.6296 37.9581 64.9753 38.8138 64.9682 39.7032L63.8325 39.6922L64.9682 39.7032C64.9608 40.5873 64.605 41.4328 63.9784 42.0555C63.3517 42.6782 62.5048 43.0278 61.622 43.0282ZM61.622 38.5969C61.3438 38.6063 61.0799 38.7233 60.8859 38.9233C60.6919 39.1233 60.5828 39.3909 60.5816 39.6697C60.5804 39.9486 60.6871 40.2172 60.8794 40.4189C61.0716 40.6206 61.3345 40.7399 61.6126 40.7517C61.7542 40.7535 61.8947 40.7268 62.0258 40.6731C62.1569 40.6194 62.2758 40.5398 62.3755 40.4391C62.5276 40.2898 62.6319 40.0987 62.6753 39.8899C62.7188 39.6811 62.6993 39.4641 62.6194 39.2665C62.5395 39.0688 62.4028 38.8993 62.2266 38.7796C62.0505 38.6598 61.8427 38.5952 61.6298 38.5938L61.622 38.5969Z" fill="#B53A25"/>
<path d="M62.8972 5.18677L60.8505 5.1907L60.9115 37.0641L62.9583 37.0602L62.8972 5.18677Z" fill="#B53A25"/>
<path d="M71.0586 13.4672C70.4199 13.4672 69.7954 13.2778 69.264 12.923C68.7326 12.5681 68.3179 12.0636 68.0722 11.4731C67.8265 10.8826 67.7608 10.2325 67.8834 9.60467C68.006 8.97683 68.3113 8.39939 68.761 7.94504C69.2107 7.49074 69.7846 7.1799 70.4104 7.0517C71.0361 6.9235 71.6858 6.98368 72.2774 7.22464C72.8691 7.46561 73.3763 7.8766 73.7351 8.40579C74.0941 8.93499 74.2885 9.55875 74.2941 10.1984C74.3003 11.0574 73.9661 11.8838 73.3648 12.4963C72.7636 13.1088 71.9442 13.4574 71.0866 13.4656L71.0586 13.4672ZM71.0586 9.03595H71.0477C70.7324 9.03739 70.4306 9.16427 70.2087 9.38859C69.9868 9.61291 69.8629 9.91627 69.8644 10.232C69.8659 10.5479 69.9925 10.8501 70.2164 11.0723C70.4404 11.2946 70.7434 11.4187 71.0586 11.4172H71.068C71.3831 11.4143 71.6843 11.2863 71.9053 11.0614C72.1264 10.8364 72.2494 10.5329 72.2473 10.2172C72.244 9.90363 72.1176 9.60387 71.8955 9.38283C71.6734 9.16179 71.3733 9.03715 71.0601 9.03595H71.0586Z" fill="#B53A25"/>
<path d="M62.9464 24.2562L60.9028 24.1515C60.9262 23.6827 61.5595 12.7265 68.2068 10.475L68.862 12.4155C67.3659 12.9234 65.2973 14.4468 63.9449 18.8562C63.4178 20.6147 63.083 22.4253 62.9464 24.2562Z" fill="#B53A25"/>
<path d="M62.7264 40.9507L60.6797 40.955L60.7516 75.3361L62.7983 75.3318L62.7264 40.9507Z" fill="#B53A25"/>
<path d="M70.8949 71.5937H70.8668C70.2268 71.5884 69.6029 71.3931 69.0737 71.0326C68.5445 70.6721 68.134 70.1625 67.8941 69.5683C67.654 68.974 67.5954 68.3219 67.7255 67.6943C67.8556 67.0667 68.1687 66.4919 68.625 66.0424C69.0814 65.593 69.6604 65.2892 70.2892 65.1696C70.9179 65.0499 71.568 65.1196 72.1571 65.37C72.7462 65.6203 73.248 66.04 73.599 66.576C73.9499 67.112 74.1343 67.7402 74.1287 68.3811C74.1205 69.2352 73.7764 70.0515 73.1709 70.653C72.5655 71.2545 71.7476 71.5925 70.8949 71.5937ZM70.8949 67.1624C70.5796 67.161 70.2767 67.285 70.0527 67.5073C69.8287 67.7295 69.7021 68.0318 69.7007 68.3475C69.6993 68.6633 69.8231 68.9667 70.045 69.1911C70.2669 69.4154 70.5687 69.5422 70.8839 69.5436H70.8949C71.2101 69.5449 71.513 69.4207 71.7368 69.1983C71.9606 68.9759 72.087 68.6735 72.0882 68.3577C72.0895 68.0419 71.9655 67.7386 71.7434 67.5144C71.5214 67.2903 71.2195 67.1636 70.9042 67.1624H70.8949Z" fill="#B53A25"/>
<path d="M61.7939 80.0001H61.7658C60.9007 79.9963 60.0723 79.649 59.4626 79.0343C58.8527 78.4196 58.5114 77.5877 58.5132 76.7212C58.515 75.8546 58.86 75.0242 59.4725 74.4121C60.0848 73.8001 60.9147 73.4563 61.7798 73.4563C62.645 73.4563 63.4748 73.8001 64.0873 74.4121C64.6996 75.0242 65.0446 75.8546 65.0465 76.7212C65.0484 77.5877 64.7069 78.4196 64.0972 79.0343C63.4874 79.649 62.6591 79.9963 61.7939 80.0001ZM61.7939 75.5688C61.6378 75.5681 61.4831 75.5984 61.3386 75.6576C61.1942 75.7169 61.0628 75.8041 60.9519 75.9142C60.8412 76.0243 60.7531 76.1553 60.6927 76.2994C60.6324 76.4437 60.6011 76.5984 60.6005 76.7547C60.5999 76.9111 60.63 77.0661 60.6892 77.2107C60.7483 77.3554 60.8354 77.487 60.9453 77.598C61.0553 77.709 61.186 77.7972 61.33 77.8576C61.474 77.918 61.6285 77.9494 61.7845 77.9501C61.941 77.954 62.0965 77.9257 62.2417 77.8672C62.3868 77.8085 62.5185 77.7209 62.6285 77.6094C62.7958 77.4441 62.9104 77.2328 62.958 77.0023C63.0055 76.7717 62.984 76.5323 62.8959 76.3141C62.8078 76.0958 62.6571 75.9086 62.463 75.776C62.2688 75.6433 62.0398 75.5713 61.8048 75.5688H61.7939Z" fill="#B53A25"/>
<path d="M61.7936 6.48128H61.7656C60.9075 6.47776 60.0859 6.13296 59.4816 5.52273C58.8774 4.91251 58.5398 4.08684 58.5434 3.22737C58.5469 2.36791 58.8911 1.54504 59.5004 0.939793C60.1097 0.334549 60.934 -0.00349515 61.7921 2.72538e-05H61.8201C62.6777 0.00827992 63.497 0.356892 64.0983 0.969393C64.6996 1.58189 65.0338 2.40826 65.0276 3.26722L64.0042 3.2594L65.0276 3.26722C65.0197 4.12155 64.6757 4.9383 64.0702 5.54008C63.4647 6.14186 62.6466 6.48008 61.7936 6.48128ZM61.7936 2.05002C61.4784 2.04878 61.1756 2.17303 60.9518 2.39544C60.728 2.61785 60.6015 2.92019 60.6002 3.23597C60.599 3.55174 60.7231 3.85507 60.9451 4.07924C61.1672 4.3034 61.469 4.43003 61.7843 4.43128H61.7952C62.1105 4.43252 62.4133 4.30827 62.6371 4.08587C62.8609 3.86346 62.9874 3.56111 62.9886 3.24534C62.9899 2.92957 62.8658 2.62623 62.6438 2.40207C62.4217 2.17791 62.1198 2.05127 61.8046 2.05002H61.7936Z" fill="#B53A25"/>
<path d="M68.1226 68.3954C61.4863 66.147 60.7064 55.4266 60.6768 54.975L62.7173 54.8391C62.88 56.6322 63.2378 58.4021 63.7843 60.1173C65.1883 64.4329 67.2771 65.9454 68.7763 66.4532L68.1226 68.3954Z" fill="#B53A25"/>
<path d="M60.4617 30.1298L61.2713 30.5813C61.5927 31.675 61.9094 32.8298 62.1418 33.7438C62.4293 33.6861 62.7199 33.6459 63.0122 33.6234L62.5692 33.0766C62.46 32.525 62.3056 32.1172 61.9452 30.636C61.8951 30.4198 61.869 30.1986 61.8672 29.9766C61.8454 28.5438 61.8204 27.1094 61.8204 25.6766C61.8204 23.8469 61.8688 22.0172 61.8438 20.1891C61.8449 19.1683 61.5583 18.168 61.017 17.3032C60.6629 16.7469 60.262 16.186 59.4929 16.2875C58.7238 16.3891 58.4726 17.0266 58.2449 17.6501C58.1482 17.9094 58.0296 18.1626 57.922 18.4188L57.6942 18.4063C57.5663 17.8391 57.0452 14.2906 56.7972 13.1094C56.3713 11.0688 55.816 9.06256 53.7801 7.91879C53.7801 7.91879 52.3761 7.3516 51.9237 8.3516C51.7756 8.67976 51.5072 9.00632 51.476 9.35008C51.4152 10.0094 51.476 10.6782 51.4932 11.3438C51.4932 11.5001 51.5072 11.6563 51.515 11.8001L51.3684 11.8375C51.0985 11.236 50.8177 10.6391 50.5603 10.0313C50.1523 9.0396 49.5048 8.16496 48.6758 7.48597C48.1015 7.00908 47.4365 6.65398 46.7212 6.44222C45.2797 6.05316 44.0972 7.17035 44.2906 8.62976C44.3093 8.7688 44.3374 8.90632 44.3998 9.27504C44.176 9.12184 43.9402 8.98704 43.6947 8.87192C43.108 8.64888 42.5064 8.4672 41.8945 8.32816C40.531 8.07032 39.4499 9.15944 39.8024 10.4578C39.9421 10.9314 40.1998 11.3616 40.5512 11.7078C41.0599 12.2094 41.6792 12.6047 42.2501 13.0454C42.3906 13.1547 42.5279 13.2672 42.7088 13.411C42.2408 13.5782 41.843 13.6719 41.4935 13.8594C40.5108 14.3844 40.3937 15.5203 41.2704 16.1782C41.6336 16.4421 42.0482 16.6263 42.4873 16.7188C43.3702 16.911 44.2719 17.0313 45.1704 17.1422C46.3202 17.2891 47.4793 17.3766 48.6259 17.5438C49.0736 17.6094 49.5728 17.6906 49.8505 18.1829C49.3825 18.5422 48.8645 18.375 48.3779 18.4157C47.5978 18.4782 46.8178 18.5141 46.0581 18.6813C45.3951 18.8266 44.8413 19.2266 44.7337 19.961C44.6447 20.5641 45.0971 21.1657 45.8257 21.4938C45.9159 21.5386 46.0105 21.5736 46.1081 21.5985C47.2811 21.8657 48.4481 22.1734 49.6336 22.3798C50.8192 22.586 51.983 22.6922 53.1562 22.8563C53.6694 22.9329 54.1795 23.0626 54.5336 23.5578C54.2688 23.6482 53.9895 23.6889 53.71 23.6782C53.1062 23.6578 52.4978 23.5501 51.9003 23.6001C50.9238 23.6829 50.4963 24.5813 51.1001 25.3188C51.4026 25.678 51.7904 25.9552 52.228 26.125C53.0737 26.4466 53.9411 26.7076 54.8238 26.9063C57.0437 27.4266 58.9438 28.4516 60.4617 30.1298Z" fill="#B8CDB4"/>
<path d="M60.0232 28.4375C59.8532 28.2469 59.8001 27.9765 59.6941 27.7437C59.6873 27.7241 59.6767 27.7061 59.6628 27.6906C59.4088 27.5445 59.1629 27.3843 58.9265 27.2109C58.5744 26.9382 58.1871 26.7143 57.7752 26.5453C56.7694 26.1834 55.7413 25.8869 54.6973 25.6578C54.6814 25.6537 54.6652 25.6506 54.649 25.6484C54.5905 25.6457 54.5333 25.6303 54.4813 25.6033C54.4293 25.5764 54.3838 25.5385 54.3479 25.4921C54.3166 25.4362 54.2979 25.3741 54.293 25.3101C54.2881 25.2461 54.2973 25.1819 54.3198 25.1218C54.3305 25.0812 54.3564 25.0462 54.3921 25.0241C54.4278 25.0021 54.4706 24.9945 54.5117 25.0031L54.9922 25.0953C56.1965 25.3249 57.4305 25.5641 58.5521 26.189C58.7081 26.2641 58.8797 26.3453 59.056 26.4359C58.4819 25.4 57.911 24.4437 57.3213 23.5249C57.0599 23.1337 56.7125 22.8077 56.3057 22.5718C55.3824 21.9766 54.3395 21.5925 53.2512 21.4469C51.8035 21.2687 50.3543 21.0828 48.9518 20.9047C48.8956 20.9047 48.8395 20.8921 48.7818 20.8875C48.5439 20.8897 48.3103 20.823 48.1094 20.6953C48.092 20.6903 48.0757 20.6824 48.061 20.6718C48.0328 20.6517 48.012 20.6225 48.0021 20.5891C47.9922 20.5557 47.9937 20.5199 48.0065 20.4875C48.0221 20.4461 48.0527 20.4121 48.0923 20.3921L47.9736 20.3672H48.1297C48.2982 20.2849 48.4894 20.2617 48.6725 20.3016H48.71C48.9955 20.3359 49.281 20.3656 49.5665 20.3953C50.0064 20.4421 50.4603 20.489 50.9065 20.5516C51.2185 20.5969 51.5539 20.6344 51.8706 20.6718C53.2387 20.8281 54.6459 20.9984 55.9687 21.7016L55.4477 21.1031C54.3011 19.7844 53.1154 18.4187 51.8285 17.1844C51.3367 16.7138 50.7522 16.3514 50.1125 16.1203C48.7085 15.5875 47.125 15.3547 45.1376 15.3875H45.0097C44.3561 15.3984 43.6805 15.4109 42.8693 15.1781C42.8353 15.1689 42.8053 15.1485 42.7844 15.1201C42.7634 15.0917 42.7527 15.0571 42.7539 15.0218C42.7548 14.9853 42.7678 14.95 42.791 14.9217C42.8142 14.8933 42.8462 14.8736 42.8818 14.8656C43.2664 14.7857 43.6612 14.7662 44.0518 14.8078C44.2406 14.8249 44.4304 14.828 44.6196 14.8172C45.3883 14.7636 46.1598 14.7636 46.9285 14.8172C47.9737 14.8765 48.9768 15.139 49.9487 15.4016L49.9284 15.3859L49.8894 15.3531C48.0709 13.8445 46.1185 12.5056 44.0565 11.3531C43.9395 11.289 43.8163 11.2313 43.6868 11.1718C43.3343 11.0156 42.9692 10.8421 42.7149 10.5C42.6981 10.4917 42.6832 10.4801 42.6712 10.4656C42.6528 10.4446 42.6402 10.419 42.6351 10.3915C42.6299 10.3641 42.6321 10.3357 42.6416 10.3093V10.2906C42.6517 10.2617 42.6696 10.2362 42.6932 10.2169C42.7169 10.1977 42.7454 10.1853 42.7757 10.1813C42.8065 10.1763 42.838 10.1806 42.8662 10.1937C43.0268 10.2044 43.1815 10.2584 43.314 10.35L43.381 10.3875C45.1255 11.29 46.8073 12.3089 48.4152 13.4375C49.2295 14.0234 50.011 14.6641 50.8816 15.4125C50.8348 15.3125 50.7895 15.2125 50.7443 15.1125C50.44 14.4437 50.1515 13.8109 49.8566 13.1921C49.5823 12.6496 49.2695 12.1274 48.9206 11.6297C48.7116 11.3172 48.4947 10.9875 48.2966 10.6516C47.9566 10.0968 47.5792 9.56589 47.1672 9.06245C47.0112 8.86405 46.8552 8.65933 46.6867 8.43749C46.6653 8.41005 46.6537 8.37621 46.6537 8.34141C46.6537 8.30653 46.6653 8.27277 46.6867 8.24525C46.7111 8.21333 46.7469 8.19213 46.7865 8.18589C46.7662 8.16557 46.7475 8.14373 46.7256 8.12341C46.7569 8.14373 46.785 8.16405 46.8161 8.18277C46.8369 8.18261 46.8576 8.18629 46.877 8.19373C47.2871 8.32717 47.6437 8.58901 47.8941 8.94061C48.0844 9.18277 48.2701 9.42813 48.4463 9.67813C48.4761 9.71717 48.5026 9.75621 48.5306 9.79685C49.0104 10.4788 49.4411 11.1941 49.8192 11.9375C49.8644 12.0297 49.9081 12.1218 49.9518 12.2141C50.139 12.5547 50.3215 12.8984 50.4947 13.2453C50.5181 13.2813 50.5399 13.3172 50.5649 13.3516C50.6866 13.535 50.7876 13.7316 50.8659 13.9375C50.9892 14.2281 51.1047 14.5031 51.3511 14.6921C51.382 14.7155 51.4031 14.7494 51.4104 14.7875C51.4419 14.9583 51.4861 15.1265 51.543 15.2906C51.8363 15.8249 52.1483 16.3484 52.4915 16.8531C52.6771 17.075 52.8737 17.2921 53.075 17.5141C53.2075 17.6593 53.3385 17.8062 53.4681 17.9531C53.9361 18.4781 54.4197 18.9921 54.897 19.489L55.365 19.9813C55.4059 20.0281 55.4395 20.0807 55.4649 20.1375C55.4785 20.1638 55.4936 20.1894 55.5101 20.2141C55.4933 20.0867 55.4581 19.9625 55.4055 19.8453C55.3572 19.7325 55.3202 19.6153 55.2948 19.4953C55.1266 18.4521 55.0286 17.3986 55.0016 16.3421L54.9828 15.9484C54.8767 13.7937 54.4321 11.9656 53.6241 10.3609C53.6156 10.3442 53.6063 10.3281 53.596 10.3125C53.5469 10.2507 53.518 10.1752 53.5133 10.0964C53.5085 10.0175 53.5281 9.93909 53.5694 9.87181C53.5861 9.84629 53.6095 9.82573 53.637 9.81253C53.6645 9.79933 53.6951 9.79389 53.7254 9.79685C54.0484 9.82029 54.1669 10.0672 54.2434 10.2297C54.8798 11.5641 55.4586 12.8859 55.5507 14.3844L55.6115 15.3906C55.6786 16.5203 55.7472 17.689 55.8533 18.8281C55.9718 20.1125 56.3619 21.1562 57.0452 22.0218C57.5392 22.6302 57.9694 23.2878 58.329 23.9844C58.3692 24.0595 58.4219 24.1272 58.485 24.1844C58.5334 24.2297 58.56 24.2297 58.577 24.2249C58.5942 24.2203 58.577 24.189 58.577 24.1734C58.5786 23.5397 58.6652 22.909 58.8345 22.2984C59.0928 21.2957 59.2732 20.2744 59.3743 19.2437C59.3743 19.2109 59.3743 19.1781 59.3743 19.1453C59.3679 19.0309 59.3849 18.9165 59.4243 18.809C59.4638 18.7016 59.5248 18.6033 59.6036 18.5203C59.6343 18.491 59.6751 18.4748 59.7175 18.4748C59.7598 18.4748 59.8006 18.491 59.8313 18.5203C59.919 18.6081 59.9823 18.7172 60.0152 18.8369C60.048 18.9566 60.0491 19.0828 60.0185 19.2031C60.0102 19.2616 60.0056 19.3205 60.0044 19.3797C59.9884 20.2879 59.86 21.1906 59.6223 22.0672C59.1012 23.7859 59.2088 25.3484 59.9483 26.8297C60.0013 26.939 60.0607 27.0547 60.1199 27.1734C60.1231 27.1687 61.3991 29.9813 60.0232 28.4375Z" fill="#2D3837"/>
<path d="M62.3849 31.4954C62.4436 31.5543 62.5084 31.6067 62.5783 31.6516C63.5143 32.0892 63.909 33.0079 63.5143 33.9751C63.2116 34.7235 62.9137 35.4735 62.6719 36.2438C62.4956 36.8079 62.1446 37.3141 62.1087 37.9251L62.0307 38.0251C62.1462 38.0595 62.0806 37.9564 62.1071 37.9235C62.1727 37.9141 62.2523 37.9126 62.2772 37.8423C62.4956 37.2172 62.9262 36.7016 63.2538 36.1313C63.6141 35.5064 64.0119 34.8938 64.3863 34.272C64.5072 34.0643 64.6699 33.8841 64.8641 33.7428C65.0583 33.6016 65.2797 33.5024 65.5143 33.4516C65.919 33.3519 66.3457 33.3973 66.7205 33.58C67.0953 33.7627 67.3943 34.0711 67.5656 34.4516C67.9167 35.2985 67.6311 36.3266 66.8543 36.7016C65.6219 37.2907 64.4191 37.9516 63.1103 38.3735C62.9293 38.4329 62.8607 38.5438 62.8263 38.7797C64.0509 38.4126 65.2475 38.1985 66.4143 37.8876C67.0524 37.7204 67.692 37.5672 68.3331 37.8688C69.1709 38.2641 69.539 39.3641 69.1366 40.2548C68.7793 41.0454 67.6187 41.4907 66.7965 41.1344C65.6624 40.6376 64.4799 40.272 63.3271 39.8282C63.2366 39.7938 63.1477 39.7329 63.0572 39.8282C63.0432 39.9626 63.1633 39.9844 63.2397 40.0297C64.274 40.6751 65.3036 41.3266 66.3473 41.9548C67.5001 42.6469 67.6249 44.1751 66.5361 44.9532C65.6593 45.5782 64.4394 45.3454 63.9589 44.361C63.6188 43.6641 63.2928 42.9548 62.9714 42.2532C62.7281 41.7157 62.5471 41.1297 62.1633 40.6485C62.0261 40.786 62.09 40.911 62.1197 41.0376C62.3973 42.2266 62.6828 43.4141 62.9433 44.6079C63.1165 45.4032 62.9075 46.0704 62.2179 46.5626C61.6547 46.9641 60.8623 46.9626 60.1743 46.5266C59.6813 46.2141 59.4052 45.5032 59.4941 44.8876C59.6065 44.1063 59.9856 43.4188 60.2258 42.6813C60.4349 42.036 60.6657 41.3954 60.8951 40.7282C60.8412 40.7224 60.7869 40.7326 60.7388 40.7576C60.6908 40.7827 60.6513 40.8213 60.6252 40.8688C60.0916 41.7595 59.5769 42.6626 59.0261 43.5438C58.6518 44.1392 58.2991 44.7641 57.4802 44.8782C57.0956 44.9469 56.6993 44.8874 56.3518 44.7088C56.0043 44.5301 55.7249 44.2422 55.5565 43.8892C55.3881 43.5363 55.3399 43.1377 55.4194 42.7547C55.499 42.3716 55.7017 42.0253 55.9966 41.7688C56.3242 41.4844 56.7376 41.3548 57.1229 41.1813C58.1931 40.6969 59.2648 40.2172 60.3023 39.6485C60.1946 39.5079 60.101 39.5626 60.0074 39.586C58.6658 39.9282 57.3241 40.2641 55.9748 40.5672C55.6863 40.6391 55.3844 40.637 55.097 40.5611C54.8096 40.4852 54.5459 40.338 54.3302 40.1332C54.1146 39.9282 53.954 39.6722 53.8633 39.3887C53.7725 39.1052 53.7546 38.8033 53.811 38.511C54.0045 37.4672 55.1183 36.7923 56.0403 37.1438C57.2212 37.5907 58.4178 38.0016 59.6142 38.411C59.8015 38.4751 59.9341 38.7235 60.2383 38.5672C59.1978 37.85 58.1416 37.2157 57.073 36.6126C56.2275 36.136 55.6908 35.3907 55.7689 34.572C55.8297 33.9469 56.5146 33.1657 57.0995 33.0485C57.9341 32.8923 58.8155 33.2532 59.1276 33.9329C59.6954 35.1266 60.2383 36.3313 60.7952 37.5266C60.8576 37.6579 60.8717 37.8392 61.1072 37.922C60.7952 36.6016 60.5019 35.3392 60.2227 34.0704C59.853 32.3892 60.2507 32.1344 61.2444 31.5016C61.6361 31.4532 62.0104 31.3954 62.3849 31.4954ZM60.4551 39.0032C60.4389 39.1472 60.4526 39.2931 60.4954 39.4316C60.5382 39.57 60.6092 39.6981 60.7039 39.8077C60.7986 39.9174 60.9149 40.0062 61.0455 40.0686C61.1761 40.1311 61.3182 40.1657 61.4629 40.1704C61.7366 40.1592 61.997 40.0485 62.1951 39.859C62.3932 39.6695 62.5156 39.4141 62.5393 39.1407C62.5392 38.8664 62.4337 38.6027 62.2445 38.4042C62.0554 38.2058 61.7973 38.088 61.5238 38.0751C61.3922 38.0633 61.2597 38.0783 61.1341 38.1189C61.0085 38.1596 60.8924 38.2252 60.7927 38.3119C60.6929 38.3985 60.6116 38.5044 60.5536 38.6232C60.4956 38.7419 60.4622 38.8712 60.4551 39.0032Z" fill="#F74700"/>
<path d="M61.594 37.8485C61.4117 37.832 61.2281 37.8527 61.054 37.9091C60.8798 37.9655 60.7189 38.0565 60.5808 38.1768C60.4427 38.297 60.3302 38.444 60.2502 38.6088C60.1702 38.7736 60.1242 38.9529 60.1151 39.136C60.0558 40.0235 60.6658 40.7282 61.5113 40.7516C62.2414 40.772 62.9621 40.0813 63.0011 39.3251C63.0401 38.5688 62.3818 37.886 61.594 37.8485Z" fill="#B8CDB4"/>
<path d="M20.0525 51.5625C20.0368 51.6594 20.1461 50.8516 20.2085 50.5235C19.976 49.8235 20.0446 49.1094 20.1039 48.3954C20.1445 47.9172 19.9292 47.8579 19.5595 48.0828C19.5542 48.0879 19.5503 48.0943 19.5481 48.1012C19.5458 48.1082 19.5453 48.1156 19.5465 48.1228C19.5478 48.13 19.5507 48.1369 19.5551 48.1427C19.5596 48.1485 19.5653 48.1532 19.572 48.1563C19.5151 48.4036 19.5103 48.6601 19.5579 48.9094C19.5308 48.9499 19.5157 48.9971 19.5144 49.0458C19.5129 49.0944 19.5254 49.1425 19.5501 49.1844C19.4394 50.0079 19.3239 50.8328 19.2132 51.6563C19.0181 52.3219 18.7763 52.9719 18.5236 53.6172L18.5486 53.6282C18.3668 54.0731 18.2106 54.5279 18.0806 54.9907L17.6298 55.1938L17.6781 55.1016C17.6313 55.0359 17.4581 55.1156 17.3879 55.0766C16.8779 55.4 16.2117 55.1625 15.6469 55.1438C15.4426 55.1266 15.2367 55.1507 15.0418 55.2147C14.8469 55.2787 14.6667 55.3813 14.5122 55.5164C14.3576 55.6515 14.2318 55.8164 14.1421 56.0012C14.0525 56.186 14.0009 56.387 13.9902 56.5922C13.9747 56.7688 14.0667 56.9985 13.8732 57.0985C13.6532 57.2094 13.4973 56.9954 13.3429 56.8797C12.3319 55.9251 10.0154 54.8922 9.52081 56.8282C9.26657 57.7297 10.1791 58.3 10.6549 58.9219C11.3164 60.7031 8.08558 57.7438 7.70339 57.6094C5.97804 56.1251 2.75038 56.8907 3.76751 59.6031C3.95627 60.8328 6.28848 61.9235 5.87352 62.8672C5.24952 63.3969 3.08735 62.0563 2.02498 62.4313C0.945458 62.6266 0.496176 63.5328 1.00317 64.5C2.4415 66.3266 1.58662 66.2031 0.307413 67.6C-0.380552 68.2719 0.173252 69.5282 1.10926 69.5828C2.36974 69.8953 4.19028 68.3328 5.08727 69.6125C5.63952 70.5328 6.62543 71.6266 7.63478 71.1141C8.50523 70.7907 8.88279 70.1766 8.8375 69.1375C8.87185 69 8.79389 68.7531 8.93423 68.7172C9.903 68.4625 10.2665 69.6203 10.931 70.3828C11.6065 71.1751 13.0152 70.9563 13.6548 70.1438C14.218 69.4641 14.3521 68.5031 14.2788 67.6235C13.8997 66.2172 13.672 63.8969 15.6283 64.3922L16.2928 64.6672C17.1306 65.4079 18.6328 65.2359 18.7888 63.7079L18.8279 63.6985C18.7545 62.4985 18.1056 61.211 17.051 60.5407C16.8232 60.4359 16.6017 60.2969 16.6298 60.0187C16.8295 59.2751 17.2725 59.3938 17.4909 59.1703C18.82 57.8391 18.3177 56.7875 18.5439 55.3751H18.5283C18.5283 55.3751 19.3489 53.3766 19.6687 52.3125L20.0525 51.5625ZM8.80635 69.1219L8.75795 69.1031L8.80635 69.1219Z" fill="#B8CDB4"/>
<path d="M17.1275 56.9391C17.0624 56.989 17.0129 57.0567 16.9853 57.1339C16.9576 57.2113 16.9529 57.295 16.9715 57.375C16.3546 57.9231 15.8202 58.5579 15.385 59.2594C15.0838 59.4156 14.9013 59.7047 14.6377 59.9203C14.5675 59.9868 14.5242 60.0769 14.516 60.1734C14.4147 61.0563 14.828 62.0203 15.53 62.4906C16.1073 62.7828 16.296 62.9484 16.2352 63.014C16.1806 63.1391 15.9856 63.0828 15.8779 63.0422C14.8592 62.8859 14.1104 61.6234 14.0792 60.4766C11.4568 62.6859 10.9373 64.9703 12.6425 67.8937C12.6862 68.2187 12.4256 68.3047 12.1948 67.914C11.056 66.1828 10.8453 64.1343 11.8094 62.5078C10.5614 63.25 9.57081 64.1969 8.63479 65.3766C7.55683 66.7578 7.97336 67.7203 7.65826 69.1266L7.73933 69.2828L7.44604 69.1843L7.48039 69.1297C6.97496 67.9047 7.48039 66.4484 8.11378 65.2391C6.93127 65.9703 5.64739 66.5812 4.41342 67.1797C3.90798 67.3015 2.61005 68.3766 2.25281 67.9094C4.35414 66.6328 6.90163 65.5922 8.57712 64.3719C7.0498 64.8266 5.45707 64.4719 3.97818 64.1812C3.57414 64.1156 3.14045 64.1735 2.77385 63.9094C3.53669 63.3375 4.66302 63.8625 5.51635 63.9375C8.64573 64.6343 10.2245 63.2171 12.4116 61.2953C9.57081 62.9156 7.14652 60.1563 5.08735 58.5734C4.9797 58.5234 4.83306 58.4094 4.95631 58.2171C5.99527 58.425 6.7581 59.414 7.58023 60.0328C9.49597 61.7515 12.1573 61.5671 13.8983 60.0328C13.9373 59.7203 14.2898 59.8406 14.3569 59.6406C14.3882 59.5359 14.5612 59.3171 14.3242 59.375C12.6487 59.5703 11.6128 58.3484 10.7751 56.8171C10.7664 56.7962 10.7647 56.773 10.7701 56.7509C10.7755 56.7289 10.7879 56.7091 10.8053 56.6947C10.8228 56.6802 10.8445 56.6716 10.8671 56.6703C10.8897 56.6691 10.9122 56.6751 10.9311 56.6875C11.5146 57.1937 11.9295 57.8406 12.5426 58.3297C14.4147 59.8406 16.0027 57.6 16.6548 56.7671C16.5909 56.8656 17.1275 56.9391 17.1275 56.9391Z" fill="#2D3837"/>
<path d="M21.2069 18.8704H19.1602V35.0376H21.2069V18.8704Z" fill="#B53A25"/>
<path d="M29.3097 13.7155C28.4638 13.7007 27.6574 13.3546 27.0632 12.7515C26.4689 12.1483 26.1343 11.3361 26.1308 10.4887C26.1273 9.64135 26.4554 8.8263 27.0446 8.2183C27.6339 7.61026 28.4375 7.25759 29.2832 7.23584H29.3113C30.1571 7.25065 30.9636 7.59671 31.5578 8.1999C32.152 8.80302 32.4867 9.61535 32.4901 10.4627C32.4936 11.3101 32.1656 12.125 31.5763 12.7331C30.9871 13.3411 30.1835 13.6937 29.3378 13.7155H29.3097ZM29.3097 9.2843H29.2987C28.9908 9.29678 28.6995 9.42847 28.4865 9.65175C28.2735 9.87495 28.1553 10.1722 28.1567 10.4809C28.1581 10.7897 28.2791 11.0859 28.4941 11.3072C28.7092 11.5284 29.0015 11.6574 29.3097 11.6671H29.319C29.6271 11.6548 29.9183 11.5233 30.1315 11.3001C30.3446 11.0771 30.463 10.7799 30.4618 10.4712C30.4606 10.1624 30.3399 9.86614 30.1249 9.64478C29.9101 9.42342 29.6178 9.29414 29.3097 9.2843Z" fill="#B53A25"/>
<path d="M21.1977 24.5062L19.1541 24.4C19.1775 23.9312 19.8108 12.975 26.4581 10.7234L27.1133 12.6656C25.6157 13.1718 23.5486 14.6968 22.1961 19.1062C21.6689 20.8647 21.3342 22.6753 21.1977 24.5062Z" fill="#B53A25"/>
<path d="M11.599 13.7156H11.5708C10.7032 13.7118 9.87251 13.3636 9.26093 12.7471C8.64942 12.1306 8.30701 11.2964 8.30885 10.4273C8.31076 9.55827 8.65669 8.72547 9.27091 8.11163C9.88505 7.49781 10.7172 7.15308 11.5849 7.15308C12.4526 7.15308 13.2847 7.49781 13.8989 8.11163C14.5131 8.72547 14.859 9.55827 14.8609 10.4273C14.8628 11.2964 14.5204 12.1306 13.9088 12.7471C13.2973 13.3636 12.4665 13.7118 11.599 13.7156ZM11.599 9.28427C11.2908 9.29419 10.9986 9.42339 10.7837 9.64483C10.5688 9.86619 10.448 10.1624 10.4468 10.4712C10.4456 10.78 10.564 11.0772 10.7771 11.3002C10.9903 11.5232 11.2815 11.6548 11.5895 11.6671H11.599C11.9069 11.656 12.1986 11.5256 12.4126 11.3033C12.6266 11.0811 12.7462 10.7844 12.7462 10.4757C12.7462 10.167 12.6266 9.87027 12.4126 9.64811C12.1986 9.42587 11.9069 9.29547 11.599 9.28427Z" fill="#B53A25"/>
<path d="M19.1619 24.9391C19.0637 23.0744 18.7651 21.2257 18.2712 19.425C17.006 14.9407 14.964 13.3985 13.4741 12.8938L14.1293 10.9517C20.7906 13.2094 21.1931 24.4032 21.2071 24.8782L19.1619 24.9391Z" fill="#B53A25"/>
<path d="M20.9737 43.9121L18.927 43.9215L18.9868 57.1276L21.0336 57.1183L20.9737 43.9121Z" fill="#B53A25"/>
<path d="M29.1458 71.8421H29.1177C28.6928 71.8404 28.2725 71.7549 27.8806 71.5904C27.4887 71.4259 27.133 71.1857 26.8338 70.8836C26.2296 70.2733 25.892 69.4477 25.8955 68.5882C25.899 67.7288 26.2433 66.9059 26.8526 66.3006C27.4618 65.6954 28.2862 65.3573 29.1443 65.3609H29.1724C30.0181 65.3826 30.8217 65.7353 31.4109 66.3433C32.0002 66.9513 32.3282 67.7664 32.3247 68.6137C32.3213 69.4611 31.9865 70.2733 31.3924 70.8765C30.7982 71.4797 29.9917 71.8258 29.1458 71.8406V71.8421ZM29.1458 67.4109C28.8323 67.4113 28.5316 67.5356 28.309 67.7567C28.0864 67.9779 27.96 68.2781 27.9571 68.5921C27.9546 68.9077 28.0772 69.2113 28.2981 69.4362C28.5189 69.6613 28.8199 69.7893 29.1349 69.7921H29.1458C29.4594 69.7925 29.7603 69.6687 29.983 69.4477C30.2057 69.2267 30.332 68.9265 30.3345 68.6125L31.3563 68.6202L30.3345 68.6125C30.3366 68.2966 30.2137 67.9929 29.9927 67.7677C29.7716 67.5425 29.4705 67.4141 29.1552 67.4109H29.1458Z" fill="#B53A25"/>
<path d="M26.3737 68.6438C19.7374 66.3969 18.9574 55.675 18.9277 55.2235L20.9682 55.0891C21.1312 56.8821 21.489 58.652 22.0353 60.3673C23.4393 64.6829 25.5282 66.1953 27.0274 66.7032L26.3737 68.6438Z" fill="#B53A25"/>
<path d="M20.9309 31.4953C20.9902 31.5543 21.0555 31.6066 21.1259 31.6517C22.0619 32.0891 22.455 33.0079 22.0619 33.9751C21.7593 34.7235 21.4613 35.4735 21.2195 36.2438C21.0417 36.8079 20.6907 37.3141 20.6548 37.925L20.5768 38.025C20.6923 38.0594 20.6267 37.9563 20.6548 37.9235C20.7203 37.9141 20.7998 37.9125 20.8232 37.8422C21.0417 37.2173 21.4738 36.7017 21.7998 36.1313C22.1602 35.5063 22.558 34.8938 22.9324 34.2719C23.0523 34.0615 23.2149 33.8785 23.4098 33.7349C23.6045 33.5911 23.8272 33.4899 24.0634 33.4376C24.4683 33.3381 24.8952 33.3836 25.2702 33.5662C25.6451 33.7489 25.9445 34.0571 26.1164 34.4376C26.4658 35.2845 26.1804 36.3125 25.405 36.6876C24.171 37.2766 22.9683 37.9376 21.661 38.3594C21.48 38.4188 21.4098 38.5297 21.3755 38.7657C22.6001 38.3985 23.7967 38.1845 24.9635 37.8735C25.6015 37.7063 26.2412 37.5532 26.8824 37.8548C27.7201 38.2501 28.0882 39.3501 27.6857 40.2407C27.3285 41.0313 26.1678 41.4766 25.3457 41.1204C24.235 40.6251 23.0478 40.2641 21.895 39.8204C21.8045 39.786 21.7172 39.725 21.6251 39.8204C21.6111 39.9548 21.7327 39.9766 21.8076 40.0219C22.8419 40.6673 23.8715 41.3188 24.9152 41.9469C26.0696 42.6391 26.1928 44.1673 25.1039 44.9453C24.2272 45.5704 23.0089 45.3376 22.5268 44.3532C22.1867 43.6563 21.8607 42.9469 21.5409 42.2453C21.2975 41.7079 21.115 41.1219 20.7312 40.6407C20.5955 40.7782 20.6579 40.9032 20.6875 41.0297C20.9653 42.2188 21.2507 43.4063 21.5113 44.6001C21.6859 45.3953 21.4769 46.0625 20.7858 46.5548C20.2227 46.9563 19.4302 46.9548 18.7422 46.5188C18.2493 46.2063 17.9732 45.4953 18.0621 44.8797C18.1744 44.0985 18.555 43.411 18.7937 42.6735C19.0043 42.0282 19.2336 41.3876 19.4629 40.7204C19.4093 40.7149 19.3553 40.7253 19.3077 40.7503C19.26 40.7753 19.2207 40.8138 19.1946 40.861C18.6595 41.7517 18.1463 42.6548 17.5941 43.536C17.2212 44.1313 16.8671 44.7563 16.0481 44.8704C15.6645 44.9378 15.2694 44.8777 14.9231 44.6993C14.5767 44.5209 14.2982 44.2339 14.1299 43.8821C13.9616 43.5304 13.9129 43.1331 13.9911 42.751C14.0692 42.3689 14.2701 42.0229 14.5629 41.7657C14.8906 41.4813 15.304 41.3517 15.6893 41.1782C16.7594 40.6938 17.8311 40.2141 18.8686 39.6453C18.7609 39.5048 18.6689 39.5594 18.5737 39.5829C17.2337 39.925 15.8921 40.261 14.5411 40.5641C14.2528 40.6357 13.951 40.6333 13.6639 40.5573C13.3767 40.4813 13.1132 40.334 12.8977 40.1292C12.6823 39.9243 12.5219 39.6684 12.4312 39.385C12.3405 39.1017 12.3226 38.8 12.379 38.5079C12.5723 37.4641 13.6862 36.7891 14.6082 37.1407C15.7906 37.5876 16.9872 37.9985 18.1822 38.4079C18.3694 38.4719 18.502 38.7204 18.8061 38.5641C17.7672 37.8469 16.7111 37.2125 15.6409 36.6094C14.7954 36.1329 14.2603 35.3876 14.3383 34.5688C14.3976 33.9438 15.0824 33.1625 15.6674 33.0453C16.5036 32.8891 17.3835 33.2501 17.6954 33.9297C18.2632 35.1235 18.8061 36.3282 19.3647 37.5235C19.4255 37.6548 19.4411 37.836 19.6688 37.9188C19.3647 36.5985 19.0636 35.336 18.7859 34.0673C18.4146 32.386 18.8124 32.1313 19.8061 31.4985C20.179 31.4532 20.5565 31.3953 20.9309 31.4953ZM19.0027 39.0032C18.9863 39.1473 18.9998 39.2932 19.0426 39.4318C19.0853 39.5704 19.1562 39.6985 19.251 39.8082C19.3457 39.9179 19.4621 40.0068 19.5928 40.0691C19.7236 40.1314 19.8657 40.1659 20.0105 40.1704C20.5362 40.1845 21.0573 39.686 21.0853 39.1407C21.0856 38.8662 20.9802 38.6023 20.7911 38.4038C20.6018 38.2053 20.3434 38.0875 20.0698 38.075C19.9383 38.0631 19.8058 38.0779 19.6802 38.1185C19.5546 38.1591 19.4385 38.2247 19.3388 38.3114C19.2391 38.3981 19.158 38.5041 19.1002 38.6229C19.0425 38.7418 19.0093 38.8712 19.0027 39.0032Z" fill="#F74700"/>
<path d="M20.1399 37.8484C19.9577 37.8321 19.7741 37.8529 19.6001 37.9094C19.4261 37.9659 19.2653 38.057 19.1272 38.1772C18.9891 38.2974 18.8767 38.4442 18.7966 38.6089C18.7164 38.7737 18.6704 38.9529 18.661 39.1359C18.6033 40.0233 19.2117 40.728 20.0573 40.7515C20.7873 40.7718 21.5096 40.0812 21.5486 39.3249C21.5876 38.5687 20.9293 37.8859 20.1399 37.8484Z" fill="#B8CDB4"/>
</svg>
