<svg width="420" height="260" viewBox="0 0 420 260" fill="none" xmlns="http://www.w3.org/2000/svg">
<path d="M82.4982 26.9258C87.4236 27.0382 91.5535 22.5055 91.6589 16.6953C91.7622 11.0414 88.1322 6.46928 83.3536 6.03272C78.4572 5.58553 74.133 9.77214 73.7033 15.5426C73.257 21.5343 77.3994 26.8094 82.4982 26.9258Z" stroke="#A88771" stroke-width="10.1302" stroke-linecap="round" stroke-linejoin="round"/>
<path d="M121.168 64.007C122.296 62.4907 137.71 64.9931 140.477 87.7739C143.245 110.555 118.242 140.802 119.106 154.299C119.969 167.795 121.453 166.553 122.957 174.406C122.957 174.406 116.393 171.389 113.187 161.277C109.98 151.164 109.199 148.23 111.596 138.519C113.995 128.809 125.996 99.8059 125.808 87.05C125.622 74.2944 120.042 65.5234 121.168 64.007Z" stroke="#A88771" stroke-width="5.74047" stroke-linecap="round" stroke-linejoin="round"/>
<path d="M124.847 66.1208C125.729 64.6237 136.857 66.1452 137.972 87.5515C139.09 108.958 119.684 138.955 119.779 151.68C119.876 164.404 121.004 163.148 121.791 170.496C121.791 170.496 117.128 168.002 115.193 158.609C113.259 149.215 112.804 146.481 114.934 137.16C117.062 127.839 126.95 99.7334 127.318 87.6723C127.686 75.6112 123.967 67.6177 124.847 66.1208Z" stroke="#A88771" stroke-width="5.74047" stroke-linecap="round" stroke-linejoin="round"/>
<path d="M127.475 69.0824C128.142 67.5716 135.464 68.1999 135.047 88.7677C134.63 109.335 120.089 139.741 119.463 152.01C118.839 164.279 119.657 162.981 119.781 170.011C119.781 170.011 116.815 167.957 116.036 159.04C115.257 150.124 115.104 147.521 117.027 138.367C118.949 129.214 127.052 101.352 127.95 89.6882C128.849 78.0244 126.808 70.5931 127.475 69.0824Z" stroke="#A88771" stroke-width="5.74047" stroke-linecap="round" stroke-linejoin="round"/>
<path d="M130.043 69.7026C130.504 68.1421 134.045 67.857 132.022 88.0376C130.002 108.218 120.176 139.762 118.785 151.846C117.395 163.93 117.911 162.56 117.352 169.425C117.352 169.425 116.077 167.778 116.482 159.148C116.887 150.517 117.042 147.988 118.794 138.794C120.546 129.599 126.985 101.336 128.456 89.8108C129.927 78.2852 129.582 71.2633 130.043 69.7026Z" stroke="#A88771" stroke-width="5.74047" stroke-linecap="round" stroke-linejoin="round"/>
<path d="M182.904 160.48C187.829 160.592 191.961 156.06 192.066 150.25C192.168 144.596 188.54 140.023 183.759 139.587C178.863 139.14 174.538 143.326 174.109 149.097C173.664 155.088 177.807 160.364 182.904 160.48Z" stroke="#A88771" stroke-width="10.1302" stroke-linecap="round" stroke-linejoin="round"/>
<path d="M86.3783 85.853C86.3783 85.853 81.1658 67.68 73.1146 61.6277C66.3134 56.5159 52.9092 56.6078 52.9092 56.6078" stroke="#A88771" stroke-width="10.1302" stroke-linecap="round" stroke-linejoin="round"/>
<path d="M4.09573 92.5363C2.5359 93.3623 0.0340089 111.477 17.6797 121.292C35.3253 131.107 67.183 111.8 77.8642 116.74C88.5474 121.68 87.1053 122.987 93.0265 126.989C93.0265 126.989 92.51 118.703 85.2584 112.117C78.0067 105.531 75.8581 103.787 67.2863 103.637C58.7124 103.486 31.685 108.497 21.4046 104.539C11.1222 100.581 5.65556 91.7104 4.09573 92.5363Z" stroke="#A88771" stroke-width="5.74047" stroke-linecap="round" stroke-linejoin="round"/>
<path d="M4.72817 97.3058C3.25512 97.8595 1.22011 110.854 18.2356 118.402C35.2532 125.951 65.2639 112.884 75.5443 116.731C85.8267 120.579 84.4776 121.482 90.2004 124.527C90.2004 124.527 89.5497 118.538 82.5067 113.596C75.4637 108.653 73.3832 107.338 65.204 107C57.0247 106.663 31.3465 109.552 21.4648 106.423C11.5831 103.294 6.19916 96.7521 4.72817 97.3058Z" stroke="#A88771" stroke-width="5.74047" stroke-linecap="round" stroke-linejoin="round"/>
<path d="M6.35606 101.139C4.93466 101.447 3.2922 109.888 20.0805 115.461C36.8708 121.033 65.7803 113.572 75.9057 116.472C86.0312 119.371 84.7379 119.914 90.3987 122.119C90.3987 122.119 89.6053 118.171 82.6099 114.673C75.6123 111.174 73.5484 110.236 65.5675 109.714C57.5845 109.193 32.6273 110.142 22.9129 107.729C13.1966 105.315 7.7754 100.83 6.35606 101.139Z" stroke="#A88771" stroke-width="5.74047" stroke-linecap="round" stroke-linejoin="round"/>
<path d="M6.10411 104.217C4.70337 104.279 3.43277 108.186 20.3781 111.837C37.3254 115.486 65.7721 113.676 75.9719 115.658C86.1717 117.641 84.9094 117.821 90.6364 119.206C90.6364 119.206 89.6777 117.285 82.5645 115.206C75.4533 113.127 73.3584 112.558 65.394 111.833C57.4275 111.107 32.6335 110.064 22.8635 108.336C13.0913 106.609 7.50279 104.156 6.10411 104.217Z" stroke="#A88771" stroke-width="5.74047" stroke-linecap="round" stroke-linejoin="round"/>
<path d="M43.451 68.8442C48.3763 68.9565 52.5063 64.4237 52.6116 58.6136C52.7149 52.9597 49.085 48.3875 44.3063 47.951C39.4099 47.5038 35.0858 51.6905 34.6561 57.4609C34.2098 63.4525 38.3521 68.7277 43.451 68.8442Z" stroke="#A88771" stroke-width="10.1302" stroke-linecap="round" stroke-linejoin="round"/>
<path d="M152.139 124.871C149.193 130.513 148.957 139.996 150.176 141.2C151.393 142.403 158.44 136.326 160.506 131.939C162.471 127.766 162.7 122.642 159.564 120.606C156.872 118.86 155.083 119.229 152.139 124.871Z" stroke="#F74700" stroke-width="4.0521" stroke-linecap="round" stroke-linejoin="round"/>
<path d="M153.005 126.22C150.815 130.415 150.639 137.467 151.544 138.362C152.449 139.257 157.69 134.738 159.225 131.476C160.688 128.373 160.857 124.563 158.525 123.049C156.523 121.75 155.194 122.024 153.005 126.22Z" stroke="#F74700" stroke-width="4.0521" stroke-linecap="round" stroke-linejoin="round"/>
<path d="M153.858 126.951C152.416 129.549 151.811 134.138 152.213 134.78C152.616 135.421 155.662 132.806 156.695 130.775C157.68 128.843 158.046 126.369 156.949 125.233C156.009 124.258 155.298 124.353 153.858 126.951Z" stroke="#F74700" stroke-width="7.09117" stroke-linecap="round" stroke-linejoin="round"/>
<path d="M37.9039 18.5775C41.7632 23.3933 49.4673 26.1158 50.7668 25.04C52.0684 23.9643 48.9157 14.3622 45.858 10.8727C42.9491 7.55352 38.813 5.96556 36.3338 9.01354C34.2079 11.6282 34.0467 13.7616 37.9039 18.5775Z" stroke="#F74700" stroke-width="4.0521" stroke-linecap="round" stroke-linejoin="round"/>
<path d="M39.2322 17.9409C42.1018 21.522 47.8308 23.5464 48.7977 22.7465C49.7646 21.9466 47.4197 14.8064 45.1471 12.2116C42.984 9.74337 39.9098 8.56255 38.0649 10.8291C36.4844 12.7733 36.3646 14.3598 39.2322 17.9409Z" stroke="#F74700" stroke-width="4.0521" stroke-linecap="round" stroke-linejoin="round"/>
<path d="M40.0525 17.1572C41.8065 19.4718 45.4076 21.3509 46.0377 21.0573C46.6678 20.7637 45.3125 16.6178 43.918 14.9136C42.5916 13.2926 40.6599 12.2335 39.4451 13.1899C38.4039 14.0104 38.2985 14.8426 40.0525 17.1572Z" stroke="#F74700" stroke-width="7.09117" stroke-linecap="round" stroke-linejoin="round"/>
<path d="M182.251 165.1C182.251 165.1 196.417 192.867 214.015 192.867C261.74 192.867 264.89 107.828 264.89 107.828" stroke="#A88771" stroke-width="10.1302" stroke-linecap="round" stroke-linejoin="round"/>
<path d="M239.762 83.4631C230.954 96.8876 261.137 101.44 261.038 103.191C260.939 104.943 231.251 94.5531 234.814 111.947C238.376 129.34 261.632 106.343 262.819 107.977C264.007 109.612 236.694 125.254 249.163 135.994C261.632 146.734 264.996 109.145 266.778 109.612C268.559 110.079 257.08 143.297 272.814 141.247C288.549 139.197 268.46 109.262 269.944 108.795C271.429 108.328 285.184 139.496 294.387 124.787C303.591 110.079 271.825 107.277 272.221 105.176C272.616 103.075 302.601 113.114 299.533 95.7203C296.465 78.3266 272.517 102.608 271.528 100.74C270.538 98.8722 297.95 83.4631 285.679 72.2565C273.408 61.0499 269.944 97.1211 268.163 96.8876C266.382 96.6542 275.684 64.2013 260.935 66.6533C246.186 69.1051 264.798 96.8876 263.611 98.1718C262.424 99.4559 248.569 70.0385 239.762 83.4631Z" stroke="#F74700" stroke-width="2.02605" stroke-linecap="round" stroke-linejoin="round"/>
<path d="M262.347 103.244C262.384 102.591 262.059 102.168 261.92 102.012C261.756 101.83 261.571 101.7 261.429 101.612C261.135 101.429 260.754 101.259 260.351 101.098C259.546 100.777 258.422 100.407 257.151 99.9879L257.072 99.9618C254.43 99.0908 251.057 97.9748 247.959 96.5133C244.816 95.0301 242.167 93.2834 240.801 91.272C240.143 90.3028 239.825 89.3321 239.838 88.3233C239.85 87.3036 240.204 86.0629 241.184 84.5694C242.16 83.0821 243.145 82.2763 244.093 81.9025C245.04 81.5289 246.05 81.5464 247.133 81.9066C249.356 82.6458 251.736 84.7773 254.025 87.4565C256.267 90.0798 258.293 93.0713 259.869 95.3995L259.917 95.469C260.695 96.6183 261.385 97.6363 261.919 98.3226C262.178 98.6555 262.456 98.9841 262.725 99.21C262.853 99.3172 263.063 99.4751 263.33 99.5517C263.635 99.6391 264.114 99.636 264.512 99.2051C264.89 98.7964 264.934 98.2744 264.934 98.0248C264.935 97.7531 264.885 97.5011 264.839 97.3139C264.744 96.9291 264.579 96.485 264.393 96.0342C264.014 95.1168 263.431 93.8956 262.776 92.5215L262.761 92.4908C261.433 89.7081 259.747 86.1758 258.472 82.6236C257.173 79.0057 256.396 75.6162 256.693 73.0816C256.835 71.8628 257.22 70.8972 257.883 70.1665C258.556 69.4254 259.615 68.8166 261.27 68.5415C262.922 68.267 264.129 68.4978 265.022 69.0001C265.907 69.4985 266.584 70.3206 267.096 71.4455C268.153 73.7681 268.441 77.2291 268.315 81.0412C268.196 84.6389 267.72 88.3221 267.341 91.2642C267.323 91.4012 267.306 91.5362 267.289 91.6698C267.098 93.1459 266.933 94.4608 266.875 95.4154C266.847 95.8784 266.836 96.3593 266.89 96.7638C266.916 96.9598 266.971 97.2539 267.117 97.5374C267.284 97.8603 267.604 98.2217 268.096 98.2863C268.59 98.3509 268.953 98.0743 269.139 97.8822C269.326 97.6899 269.457 97.4628 269.546 97.2873C269.729 96.9279 269.891 96.4641 270.039 95.983C270.339 95.0028 270.675 93.6282 271.049 92.0826C271.076 91.971 271.103 91.8581 271.13 91.7446C271.875 88.6609 272.803 84.8197 274.019 81.2983C275.3 77.5927 276.816 74.509 278.586 72.9734C279.436 72.2364 280.311 71.8854 281.252 71.9495C282.209 72.0148 283.369 72.5193 284.755 73.7857C286.134 75.0449 286.87 76.2835 287.201 77.4462C287.53 78.6004 287.497 79.8063 287.149 81.0863C286.432 83.7252 284.424 86.5094 281.895 89.1805C279.506 91.7029 276.8 93.9767 274.632 95.7985C274.531 95.8831 274.432 95.9664 274.334 96.049C273.244 96.9649 272.278 97.7835 271.616 98.4355C271.294 98.7537 270.981 99.0918 270.762 99.4257C270.655 99.5885 270.516 99.8297 270.436 100.13C270.35 100.455 270.307 100.962 270.568 101.454C270.841 101.969 271.271 102.138 271.567 102.175C271.838 102.209 272.086 102.152 272.255 102.099C272.605 101.992 272.999 101.783 273.384 101.553C274.174 101.081 275.226 100.335 276.412 99.4866C276.564 99.3774 276.719 99.266 276.877 99.1529C279.209 97.4811 282.095 95.4115 285.029 93.7569C288.201 91.9676 291.231 90.7829 293.567 90.9554C294.698 91.039 295.607 91.4365 296.31 92.1794C297.018 92.9273 297.624 94.1386 297.966 96.0788C298.308 98.0177 298.166 99.4349 297.769 100.487C297.373 101.533 296.67 102.361 295.664 103.01C293.59 104.347 290.428 104.792 286.933 104.757C283.649 104.723 280.261 104.272 277.539 103.91C277.4 103.892 277.262 103.873 277.126 103.855C275.753 103.673 274.535 103.517 273.647 103.476C273.213 103.456 272.784 103.459 272.43 103.526C272.257 103.56 272.023 103.622 271.796 103.765C271.561 103.913 271.213 104.233 271.104 104.816C270.989 105.425 271.211 105.906 271.398 106.167C271.572 106.41 271.782 106.57 271.933 106.671C272.245 106.88 272.65 107.056 273.063 107.212C273.911 107.532 275.109 107.878 276.463 108.261C276.606 108.302 276.75 108.343 276.897 108.385C279.577 109.143 282.905 110.085 285.986 111.366C289.284 112.736 292.066 114.405 293.503 116.43C294.193 117.402 294.536 118.405 294.527 119.485C294.517 120.585 294.141 121.942 293.103 123.601C292.068 125.256 291.032 126.166 290.046 126.601C289.068 127.033 288.041 127.041 286.948 126.686C284.697 125.955 282.291 123.724 279.97 120.859C277.678 118.029 275.605 114.756 273.988 112.169C273.904 112.035 273.821 111.902 273.739 111.771C273.044 110.658 272.428 109.672 271.937 108.959C271.666 108.565 271.398 108.202 271.152 107.937C271.032 107.807 270.874 107.653 270.689 107.534C270.536 107.436 270.152 107.223 269.681 107.371C269.418 107.454 269.169 107.642 268.993 107.934C268.833 108.202 268.783 108.475 268.767 108.658C268.738 108.995 268.804 109.295 268.846 109.46C268.939 109.829 269.111 110.265 269.3 110.698C269.662 111.532 270.219 112.666 270.857 113.961C270.902 114.053 270.947 114.144 270.993 114.237C272.401 117.099 274.218 120.823 275.599 124.577C277.002 128.388 277.856 131.977 277.554 134.636C277.408 135.913 277.004 136.914 276.3 137.658C275.585 138.416 274.451 139.024 272.672 139.255C270.893 139.487 269.612 139.206 268.683 138.652C267.765 138.104 267.092 137.231 266.609 136.056C265.609 133.624 265.481 130.037 265.812 126.089C266.129 122.317 266.839 118.461 267.405 115.395C267.423 115.294 267.442 115.193 267.46 115.094C267.742 113.563 267.99 112.202 268.108 111.207C268.165 110.723 268.205 110.23 268.178 109.814C268.164 109.612 268.13 109.318 268.012 109.027C267.881 108.705 267.601 108.291 267.106 108.162C266.59 108.026 266.186 108.289 265.969 108.498C265.765 108.696 265.626 108.936 265.536 109.112C265.351 109.477 265.189 109.952 265.043 110.442C264.744 111.443 264.412 112.861 264.041 114.464C264.006 114.618 263.97 114.774 263.933 114.933C263.199 118.113 262.283 122.078 261.078 125.751C259.797 129.659 258.266 132.981 256.452 134.717C255.576 135.555 254.679 135.98 253.727 135.979C252.765 135.978 251.602 135.543 250.203 134.338C248.801 133.13 248.05 131.934 247.705 130.812C247.363 129.701 247.378 128.532 247.707 127.281C248.386 124.695 250.355 121.936 252.85 119.277C255.215 116.757 257.902 114.48 260.037 112.67C260.125 112.596 260.212 112.522 260.298 112.449C261.367 111.543 262.313 110.736 262.953 110.1C263.263 109.792 263.57 109.458 263.781 109.126C263.883 108.966 264.028 108.708 264.097 108.377C264.179 107.993 264.162 107.449 263.828 106.99C263.514 106.558 263.103 106.458 262.854 106.442C262.607 106.427 262.378 106.481 262.209 106.534C261.865 106.642 261.476 106.843 261.089 107.067C260.301 107.524 259.259 108.237 258.089 109.043C257.997 109.105 257.905 109.169 257.812 109.233C255.481 110.839 252.571 112.843 249.605 114.403C246.484 116.045 243.492 117.088 241.149 116.814C240.011 116.681 239.069 116.243 238.32 115.448C237.567 114.65 236.921 113.396 236.523 111.452C236.123 109.5 236.22 108.087 236.571 107.054C236.918 106.035 237.565 105.237 238.51 104.616C240.47 103.329 243.526 102.931 246.937 103.031C250.3 103.129 253.788 103.698 256.49 104.148L256.678 104.179C257.933 104.388 259.036 104.572 259.836 104.653C260.246 104.694 260.648 104.718 260.975 104.682C261.126 104.665 261.364 104.627 261.599 104.499C261.843 104.365 262.305 103.991 262.347 103.244ZM273.032 104.323C273.032 104.323 273.034 104.325 273.038 104.328C273.034 104.325 273.032 104.323 273.032 104.323ZM272.765 106.179C272.765 106.179 272.766 106.179 272.77 106.178C272.767 106.179 272.765 106.179 272.765 106.179ZM271.019 108.672C271.019 108.672 271.021 108.678 271.022 108.688C271.02 108.677 271.019 108.672 271.019 108.672ZM267.501 110.462C267.501 110.462 267.5 110.465 267.497 110.469C267.499 110.465 267.501 110.462 267.501 110.462ZM265.91 110C265.91 110 265.91 110.003 265.911 110.01C265.91 110.004 265.91 110 265.91 110ZM262.828 109.115C262.828 109.115 262.827 109.116 262.824 109.116C262.827 109.116 262.828 109.115 262.828 109.115ZM261.971 107.504C261.971 107.504 261.969 107.507 261.965 107.513C261.969 107.507 261.971 107.504 261.971 107.504ZM260.79 102.009C260.791 102.009 260.788 102.009 260.781 102.01C260.786 102.009 260.79 102.009 260.79 102.009ZM271.659 99.5114C271.659 99.5112 271.662 99.5105 271.667 99.5095C271.661 99.511 271.659 99.5114 271.659 99.5114ZM272.546 101.088C272.546 101.089 272.547 101.086 272.55 101.081C272.548 101.085 272.546 101.088 272.546 101.088ZM264.044 97.0268C264.05 97.0307 264.052 97.0331 264.052 97.0334C264.053 97.0339 264.05 97.0319 264.044 97.0268ZM267.577 95.945C267.578 95.9447 267.578 95.9435 267.58 95.9411C267.578 95.944 267.577 95.9452 267.577 95.945ZM269.135 96.3495C269.137 96.3568 269.137 96.3605 269.137 96.3603C269.137 96.3598 269.136 96.3566 269.135 96.3495Z" stroke="#F74700" stroke-width="3.71442" stroke-linecap="round" stroke-linejoin="round"/>
<path d="M264.924 103.442C264.945 103.071 264.925 102.729 264.877 102.416C265.321 102.253 265.775 101.969 266.198 101.512C266.353 101.345 266.487 101.171 266.603 100.996C266.928 101.175 267.298 101.306 267.714 101.361C267.739 101.364 267.764 101.367 267.789 101.37C267.848 101.903 267.999 102.476 268.301 103.046C268.406 103.244 268.519 103.423 268.638 103.585C268.585 103.756 268.539 103.938 268.503 104.131C268.471 104.298 268.449 104.461 268.435 104.62C268.145 104.759 267.866 104.946 267.609 105.182C267.59 105.177 267.572 105.172 267.553 105.167L267.538 105.249L267.553 105.167C266.936 105.005 266.381 105.05 265.907 105.195C265.859 105.119 265.807 105.044 265.753 104.969C265.469 104.578 265.159 104.289 264.849 104.076C264.886 103.876 264.912 103.665 264.924 103.442ZM285.644 101.91C283.096 101.885 280.463 101.577 278.136 101.274C280.172 99.8181 282.5 98.1882 284.851 96.8626C287.779 95.2113 290.148 94.3885 291.694 94.5028C292.357 94.5518 292.667 94.7589 292.847 94.9495C293.042 95.155 293.419 95.6982 293.668 97.1071C293.916 98.5118 293.761 99.222 293.637 99.5484C293.52 99.8586 293.28 100.227 292.682 100.612C291.3 101.503 288.862 101.943 285.644 101.91ZM248.087 105.822C251.039 105.909 254.131 106.405 256.657 106.825C254.566 108.262 252.141 109.901 249.691 111.19C246.828 112.696 244.503 113.404 242.952 113.223C242.279 113.144 241.897 112.914 241.638 112.639C241.367 112.351 240.956 111.721 240.665 110.3C240.369 108.857 240.508 108.148 240.607 107.859C240.692 107.608 240.87 107.301 241.388 106.96C242.636 106.141 244.945 105.731 248.087 105.822ZM269.393 116.445C270.554 118.836 271.84 121.596 272.854 124.35C274.149 127.871 274.703 130.624 274.512 132.307C274.434 132.992 274.258 133.276 274.095 133.449C273.895 133.661 273.348 134.08 272.004 134.255C270.658 134.43 269.941 134.186 269.58 133.97C269.251 133.774 268.955 133.449 268.688 132.799C268.053 131.253 267.861 128.556 268.165 124.938C268.408 122.042 268.915 119.067 269.393 116.445ZM275.915 110.832C278.389 111.534 281.287 112.367 283.958 113.477C287.012 114.746 289.076 116.112 289.983 117.39C290.351 117.907 290.398 118.228 290.396 118.449C290.394 118.728 290.299 119.447 289.52 120.692C288.749 121.924 288.119 122.379 287.72 122.556C287.343 122.722 286.894 122.765 286.26 122.559C284.796 122.084 282.912 120.469 280.794 117.855C278.994 115.632 277.328 113.076 275.915 110.832ZM255.257 120.335C257.288 118.17 259.601 116.192 261.569 114.523C260.927 117.288 260.168 120.431 259.21 123.351C258.026 126.961 256.771 129.468 255.584 130.603C255.084 131.082 254.75 131.168 254.51 131.168C254.239 131.168 253.622 131.053 252.588 130.162C251.544 129.263 251.193 128.554 251.068 128.148C250.953 127.774 250.92 127.308 251.106 126.601C251.543 124.935 252.969 122.773 255.257 120.335ZM272.916 93.8786C272.942 93.7716 272.968 93.6644 272.994 93.5572C273.015 93.4665 273.038 93.3754 273.06 93.2837C273.765 90.365 274.603 86.8934 275.694 83.7375C276.876 80.3187 278.095 78.0705 279.191 77.1202C279.632 76.7381 279.925 76.6772 280.165 76.6938C280.456 76.7135 281.101 76.8831 282.149 77.8402C283.173 78.7753 283.526 79.5152 283.654 79.9651C283.775 80.3887 283.797 80.9049 283.595 81.6509C283.125 83.379 281.656 85.5724 279.339 88.0195C277.272 90.2022 274.923 92.1917 272.916 93.8786ZM264.941 91.6679C263.702 89.0712 262.225 85.9573 261.112 82.857C259.916 79.524 259.424 76.9506 259.609 75.3721C259.684 74.7287 259.849 74.4523 260.002 74.2834C260.185 74.0824 260.68 73.681 261.904 73.4775C263.116 73.2759 263.76 73.4833 264.082 73.6649C264.384 73.8345 264.681 74.1348 264.97 74.7692C265.647 76.2553 265.951 78.8582 265.835 82.3449C265.729 85.5566 265.301 88.8713 264.942 91.6555C264.942 91.6596 264.941 91.6638 264.941 91.6679ZM258.379 97.5541L258.273 97.5195C255.782 96.6981 252.741 95.6892 249.974 94.3836C247.07 93.0137 245.095 91.5931 244.225 90.3114C243.864 89.7799 243.834 89.4769 243.836 89.3176C243.838 89.1248 243.903 88.5262 244.608 87.4512C245.301 86.3945 245.863 86.024 246.223 85.8819C246.58 85.7416 247.036 85.7065 247.693 85.9248C249.174 86.4176 251.05 87.9859 253.136 90.4272C255.103 92.7286 256.9 95.3719 258.379 97.5541Z" stroke="#F74700" stroke-width="11.1433" stroke-linecap="round" stroke-linejoin="round"/>
<path d="M263.056 103.38C263.092 102.734 262.77 102.319 262.638 102.17C262.481 101.995 262.306 101.874 262.178 101.794C261.911 101.628 261.57 101.476 261.217 101.336C260.513 101.055 259.531 100.731 258.427 100.367L258.354 100.343C256.052 99.5845 253.122 98.6147 250.433 97.3457C247.698 96.0553 245.422 94.5474 244.258 92.8334C243.701 92.0128 243.441 91.2054 243.451 90.376C243.461 89.5355 243.753 88.4902 244.593 87.2097C245.429 85.9356 246.265 85.2579 247.057 84.9452C247.848 84.633 248.697 84.6449 249.619 84.9513C251.517 85.5825 253.568 87.412 255.558 89.7412C257.504 92.0189 259.264 94.6179 260.638 96.647L260.678 96.705C261.354 97.704 261.959 98.596 262.428 99.1991C262.655 99.4906 262.905 99.7882 263.153 99.9961C263.27 100.094 263.472 100.246 263.73 100.321C264.028 100.406 264.5 100.404 264.894 99.9783C265.267 99.5747 265.309 99.0612 265.309 98.8231C265.309 98.5628 265.262 98.3254 265.22 98.1556C265.134 97.8056 264.986 97.4079 264.823 97.0133C264.49 96.2088 263.98 95.1399 263.41 93.945L263.399 93.9216C262.241 91.4959 260.776 88.4264 259.669 85.3417C258.539 82.1944 257.877 79.2801 258.129 77.1223C258.25 76.0921 258.573 75.2903 259.121 74.6864C259.679 74.0715 260.571 73.5519 261.992 73.3157C263.409 73.0801 264.43 73.2806 265.175 73.7001C265.913 74.1154 266.482 74.8021 266.916 75.7555C267.817 77.7352 268.07 80.7095 267.96 84.0244C267.857 87.1476 267.444 90.3471 267.113 92.9111C267.098 93.0296 267.083 93.1466 267.068 93.2621C266.903 94.5452 266.757 95.698 266.706 96.5378C266.682 96.9434 266.671 97.3786 266.721 97.7515C266.745 97.9316 266.797 98.2133 266.938 98.488C267.1 98.8024 267.415 99.1589 267.9 99.2225C268.387 99.2864 268.743 99.0132 268.921 98.8289C269.1 98.6445 269.224 98.4293 269.305 98.2694C269.472 97.9414 269.617 97.5246 269.746 97.1035C270.01 96.2429 270.304 95.039 270.629 93.6949C270.652 93.5987 270.675 93.5012 270.699 93.4032C271.348 90.7158 272.154 87.3782 273.211 84.3203C274.325 81.0962 275.632 78.4507 277.139 77.1437C277.857 76.5213 278.586 76.2325 279.366 76.2854C280.162 76.3397 281.144 76.7601 282.336 77.8488C283.52 78.9301 284.14 79.9825 284.417 80.9551C284.692 81.9192 284.666 82.9311 284.371 84.0176C283.759 86.2693 282.036 88.6681 279.836 90.9912C277.762 93.1814 275.411 95.1567 273.522 96.7442C273.435 96.8174 273.349 96.8897 273.264 96.9611C272.316 97.7576 271.47 98.4748 270.888 99.0478C270.605 99.3266 270.323 99.6308 270.122 99.9369C270.024 100.086 269.891 100.315 269.814 100.605C269.731 100.919 269.688 101.417 269.945 101.901C270.214 102.409 270.637 102.573 270.924 102.609C271.185 102.642 271.421 102.587 271.575 102.539C271.896 102.441 272.25 102.251 272.588 102.05C273.282 101.635 274.204 100.982 275.235 100.244C275.367 100.149 275.502 100.052 275.639 99.9539C277.671 98.4973 280.178 96.6989 282.727 95.2617C285.487 93.7052 288.096 92.6913 290.091 92.8385C291.051 92.9094 291.809 93.2455 292.391 93.8606C292.978 94.4811 293.494 95.4989 293.788 97.1632C294.081 98.826 293.956 100.022 293.626 100.897C293.297 101.766 292.711 102.462 291.856 103.013C290.085 104.155 287.364 104.544 284.323 104.513C281.471 104.484 278.527 104.092 276.156 103.777C276.035 103.761 275.915 103.745 275.797 103.729C274.603 103.571 273.537 103.434 272.757 103.398C272.376 103.38 271.99 103.382 271.667 103.444C271.51 103.474 271.287 103.532 271.069 103.67C270.843 103.813 270.501 104.126 270.392 104.7C270.279 105.301 270.499 105.773 270.681 106.026C270.848 106.26 271.048 106.412 271.185 106.504C271.471 106.695 271.836 106.853 272.198 106.989C272.942 107.27 273.991 107.573 275.169 107.907C275.293 107.942 275.418 107.977 275.546 108.013C277.88 108.674 280.773 109.493 283.449 110.605C286.319 111.798 288.708 113.239 289.932 114.964C290.515 115.786 290.797 116.621 290.789 117.512C290.782 118.423 290.469 119.571 289.578 120.996C288.689 122.417 287.808 123.185 286.982 123.549C286.164 123.911 285.302 123.92 284.374 123.619C282.454 122.995 280.381 121.082 278.364 118.591C276.374 116.135 274.575 113.293 273.166 111.039C273.093 110.922 273.02 110.806 272.949 110.692C272.344 109.724 271.805 108.861 271.375 108.237C271.138 107.892 270.899 107.568 270.677 107.328C270.568 107.211 270.421 107.066 270.244 106.954C270.101 106.861 269.724 106.649 269.259 106.796C268.999 106.878 268.752 107.064 268.578 107.354C268.419 107.619 268.37 107.888 268.355 108.067C268.327 108.394 268.391 108.682 268.429 108.831C268.514 109.17 268.67 109.561 268.834 109.94C269.151 110.67 269.639 111.661 270.193 112.788C270.233 112.867 270.272 112.948 270.312 113.03C271.539 115.523 273.117 118.758 274.317 122.017C275.537 125.334 276.265 128.421 276.008 130.686C275.885 131.767 275.545 132.597 274.964 133.213C274.37 133.842 273.414 134.361 271.886 134.561C270.356 134.76 269.27 134.516 268.493 134.053C267.727 133.596 267.162 132.866 266.753 131.871C265.901 129.799 265.785 126.715 266.073 123.283C266.347 120.008 266.965 116.657 267.458 113.985C267.474 113.898 267.49 113.812 267.505 113.726C267.751 112.395 267.968 111.202 268.072 110.328C268.122 109.904 268.158 109.459 268.133 109.077C268.121 108.893 268.089 108.612 267.975 108.331C267.848 108.018 267.574 107.611 267.085 107.482C266.577 107.349 266.18 107.609 265.971 107.81C265.774 108.001 265.642 108.23 265.561 108.391C265.391 108.724 265.246 109.151 265.118 109.58C264.856 110.459 264.566 111.7 264.243 113.095C264.212 113.229 264.181 113.364 264.149 113.501C263.509 116.272 262.714 119.718 261.667 122.908C260.552 126.309 259.23 129.164 257.682 130.645C256.94 131.356 256.19 131.707 255.402 131.706C254.604 131.706 253.62 131.344 252.419 130.31C251.214 129.273 250.582 128.257 250.294 127.32C250.009 126.393 250.02 125.415 250.298 124.354C250.878 122.149 252.566 119.773 254.736 117.461C256.79 115.272 259.124 113.294 260.985 111.717C261.06 111.653 261.136 111.589 261.21 111.527C262.139 110.738 262.969 110.031 263.531 109.472C263.803 109.202 264.08 108.901 264.275 108.595C264.368 108.449 264.508 108.202 264.576 107.881C264.655 107.507 264.64 106.971 264.31 106.519C264.001 106.093 263.598 105.996 263.358 105.981C263.121 105.966 262.905 106.018 262.751 106.067C262.437 106.166 262.088 106.347 261.749 106.543C261.056 106.945 260.144 107.569 259.126 108.269C259.047 108.324 258.968 108.379 258.887 108.434C256.856 109.833 254.328 111.575 251.752 112.93C249.037 114.358 246.461 115.249 244.461 115.016C243.495 114.902 242.705 114.532 242.081 113.869C241.452 113.202 240.902 112.145 240.56 110.476C240.217 108.801 240.304 107.608 240.596 106.752C240.883 105.908 241.419 105.24 242.219 104.715C243.89 103.618 246.517 103.269 249.484 103.356C252.403 103.441 255.433 103.936 257.788 104.327L257.953 104.355C259.044 104.536 260.008 104.697 260.71 104.768C261.068 104.804 261.429 104.826 261.727 104.793C261.865 104.778 262.092 104.742 262.319 104.618C262.556 104.488 263.014 104.12 263.056 103.38ZM270.989 99.9486C270.989 99.9483 270.992 99.9476 270.998 99.9464C270.992 99.9481 270.989 99.9486 270.989 99.9486ZM272.294 104.163C272.294 104.163 272.296 104.164 272.301 104.168C272.296 104.165 272.293 104.163 272.294 104.163ZM272.014 106.094C272.014 106.094 272.016 106.093 272.021 106.092C272.017 106.094 272.014 106.094 272.014 106.094ZM267.519 109.752C267.519 109.753 267.517 109.756 267.514 109.76C267.518 109.755 267.519 109.752 267.519 109.752ZM265.866 109.273C265.867 109.272 265.867 109.276 265.867 109.283C265.867 109.277 265.866 109.273 265.866 109.273ZM263.357 108.652C263.357 108.652 263.354 108.652 263.351 108.653C263.355 108.652 263.357 108.652 263.357 108.652ZM262.458 106.985C262.458 106.986 262.457 106.987 262.456 106.988C262.462 106.977 262.464 106.976 262.458 106.985ZM261.145 104.184C261.145 104.184 261.143 104.183 261.141 104.181C261.144 104.183 261.145 104.184 261.145 104.184ZM261.533 102.121C261.534 102.121 261.53 102.122 261.523 102.123C261.529 102.122 261.533 102.121 261.533 102.121ZM263.044 98.9338C263.044 98.9338 263.044 98.9318 263.043 98.9279C263.044 98.9318 263.044 98.9335 263.044 98.9338ZM264.468 97.8095C264.477 97.8166 264.478 97.8183 264.47 97.8115C264.47 97.8107 264.469 97.8102 264.468 97.8095ZM267.344 96.9134C267.344 96.9131 267.345 96.9109 267.347 96.907C267.345 96.9117 267.344 96.9136 267.344 96.9134ZM268.966 97.3318C268.968 97.3426 268.967 97.3443 268.966 97.335C268.966 97.334 268.966 97.3328 268.966 97.3318ZM271.911 101.59C271.911 101.59 271.913 101.588 271.916 101.583C271.913 101.588 271.912 101.59 271.911 101.59Z" stroke="#F74700" stroke-width="3.71442" stroke-linecap="round" stroke-linejoin="round"/>
<path d="M262.829 103.171C262.866 102.528 262.545 102.115 262.415 101.969C262.261 101.797 262.09 101.679 261.966 101.602C261.709 101.442 261.383 101.297 261.048 101.163C260.379 100.896 259.449 100.59 258.405 100.246L258.335 100.223C256.155 99.5042 253.384 98.5873 250.842 97.3875C248.254 96.1665 246.113 94.7447 245.022 93.1377C244.501 92.3707 244.261 91.622 244.271 90.8573C244.281 90.0815 244.55 89.1064 245.34 87.9027C246.125 86.7054 246.907 86.0737 247.644 85.7832C248.379 85.4929 249.17 85.5029 250.032 85.7898C251.814 86.3822 253.746 88.1031 255.628 90.306C257.468 92.4592 259.133 94.917 260.434 96.8382L260.47 96.8921C261.11 97.8369 261.684 98.6836 262.13 99.2568C262.345 99.5332 262.586 99.8198 262.826 100.021C262.939 100.116 263.137 100.266 263.393 100.34C263.688 100.424 264.158 100.423 264.55 99.9989C264.921 99.597 264.963 99.0864 264.963 98.8525C264.963 98.5963 264.916 98.3641 264.876 98.2006C264.793 97.8633 264.651 97.4823 264.496 97.108C264.181 96.344 263.696 95.3299 263.157 94.1995L263.147 94.1786C262.051 91.8818 260.666 88.979 259.619 86.0627C258.55 83.0848 257.929 80.3416 258.166 78.3197C258.278 77.3573 258.579 76.6145 259.086 76.0561C259.602 75.4871 260.433 74.9994 261.77 74.7774C263.103 74.5556 264.057 74.7452 264.749 75.1347C265.434 75.5202 265.964 76.1582 266.369 77.05C267.215 78.9061 267.455 81.7049 267.351 84.8407C267.253 87.7933 266.863 90.8183 266.55 93.2461C266.535 93.358 266.521 93.4684 266.507 93.5773C266.351 94.7913 266.213 95.8858 266.164 96.6839C266.141 97.069 266.13 97.4877 266.179 97.8494C266.202 98.0236 266.253 98.301 266.392 98.5725C266.553 98.8837 266.865 99.2383 267.348 99.3016C267.833 99.365 268.185 99.0935 268.362 98.9119C268.538 98.7301 268.659 98.5193 268.737 98.3651C268.897 98.0485 269.036 97.6485 269.159 97.2491C269.41 96.4314 269.689 95.2892 269.996 94.0175C270.018 93.9266 270.04 93.8349 270.062 93.7423C270.677 91.1977 271.439 88.0416 272.438 85.1507C273.493 82.0999 274.725 79.6124 276.137 78.3877C276.807 77.8065 277.483 77.5399 278.205 77.5891C278.943 77.6393 279.861 78.0295 280.983 79.054C282.097 80.0713 282.675 81.0569 282.933 81.961C283.188 82.8567 283.165 83.7986 282.889 84.8154C282.315 86.9276 280.694 89.1876 278.613 91.3851C276.653 93.4557 274.43 95.3235 272.64 96.827C272.558 96.896 272.477 96.9642 272.397 97.0317C271.501 97.785 270.697 98.4657 270.144 99.0104C269.876 99.2751 269.605 99.5668 269.41 99.8629C269.316 100.007 269.185 100.231 269.109 100.518C269.026 100.828 268.984 101.323 269.239 101.804C269.506 102.309 269.927 102.472 270.21 102.508C270.469 102.54 270.7 102.485 270.849 102.439C271.159 102.344 271.5 102.162 271.82 101.971C272.48 101.577 273.354 100.957 274.329 100.259C274.455 100.169 274.582 100.077 274.712 99.9845C276.635 98.6051 279.007 96.9045 281.416 95.5458C284.028 94.0728 286.486 93.1204 288.357 93.2588C289.256 93.3251 289.96 93.6387 290.498 94.2083C291.042 94.7827 291.525 95.7308 291.801 97.2956C292.077 98.8593 291.958 99.9753 291.652 100.786C291.347 101.592 290.803 102.24 290.003 102.756C288.34 103.827 285.779 104.196 282.902 104.167C280.205 104.14 277.421 103.769 275.176 103.471C275.062 103.455 274.949 103.44 274.837 103.425C273.707 103.276 272.696 103.146 271.955 103.111C271.593 103.095 271.223 103.096 270.911 103.156C270.759 103.185 270.541 103.242 270.326 103.378C270.104 103.518 269.762 103.829 269.655 104.4C269.542 104.998 269.761 105.467 269.94 105.717C270.106 105.948 270.302 106.097 270.435 106.186C270.711 106.37 271.061 106.522 271.405 106.651C272.112 106.918 273.108 107.205 274.221 107.521C274.338 107.554 274.457 107.588 274.577 107.621C276.788 108.248 279.523 109.022 282.053 110.073C284.769 111.202 287.017 112.561 288.164 114.178C288.709 114.946 288.969 115.72 288.962 116.544C288.955 117.386 288.666 118.458 287.826 119.8C286.99 121.136 286.165 121.853 285.397 122.192C284.637 122.528 283.833 122.537 282.966 122.256C281.164 121.671 279.212 119.872 277.304 117.516C275.424 115.195 273.722 112.507 272.388 110.374C272.319 110.263 272.251 110.154 272.183 110.045C271.61 109.129 271.1 108.311 270.692 107.718C270.467 107.392 270.238 107.082 270.024 106.851C269.92 106.738 269.776 106.597 269.603 106.486C269.462 106.396 269.089 106.185 268.626 106.331C268.366 106.412 268.12 106.598 267.947 106.886C267.789 107.15 267.74 107.419 267.725 107.596C267.697 107.92 267.761 108.204 267.797 108.347C267.879 108.674 268.029 109.05 268.185 109.408C268.486 110.102 268.948 111.042 269.473 112.107C269.51 112.183 269.548 112.26 269.586 112.337C270.747 114.697 272.24 117.756 273.373 120.837C274.528 123.975 275.211 126.882 274.97 129.006C274.855 130.015 274.539 130.785 274.001 131.354C273.451 131.936 272.56 132.424 271.121 132.611C269.681 132.799 268.666 132.569 267.944 132.138C267.232 131.713 266.705 131.035 266.323 130.105C265.525 128.163 265.413 125.261 265.685 122.013C265.945 118.918 266.529 115.75 266.995 113.22C267.011 113.137 267.026 113.056 267.041 112.975C267.272 111.716 267.479 110.584 267.577 109.754C267.625 109.351 267.66 108.924 267.636 108.554C267.624 108.375 267.593 108.1 267.48 107.822C267.355 107.513 267.083 107.107 266.597 106.98C266.091 106.847 265.696 107.106 265.49 107.305C265.296 107.493 265.167 107.718 265.088 107.873C264.925 108.195 264.786 108.605 264.664 109.012C264.415 109.847 264.139 111.024 263.835 112.344C263.805 112.47 263.776 112.598 263.746 112.728C263.14 115.352 262.387 118.61 261.398 121.627C260.343 124.844 259.096 127.532 257.644 128.921C256.949 129.586 256.253 129.91 255.524 129.909C254.784 129.908 253.865 129.574 252.735 128.601C251.602 127.625 251.013 126.674 250.745 125.804C250.481 124.944 250.49 124.034 250.75 123.042C251.294 120.975 252.881 118.736 254.933 116.549C256.875 114.48 259.082 112.609 260.844 111.116C260.916 111.055 260.987 110.995 261.057 110.936C261.936 110.191 262.723 109.519 263.258 108.988C263.516 108.732 263.783 108.442 263.972 108.146C264.062 108.004 264.2 107.762 264.267 107.445C264.345 107.073 264.33 106.541 264.003 106.091C263.695 105.667 263.294 105.572 263.059 105.557C262.825 105.542 262.614 105.594 262.465 105.641C262.162 105.736 261.827 105.91 261.505 106.096C260.847 106.478 259.981 107.07 259.018 107.733C258.944 107.784 258.869 107.836 258.793 107.888C256.869 109.213 254.479 110.86 252.044 112.141C249.476 113.492 247.049 114.329 245.173 114.11C244.268 114.004 243.534 113.658 242.954 113.042C242.37 112.423 241.854 111.436 241.533 109.867C241.21 108.291 241.294 107.178 241.564 106.384C241.83 105.604 242.326 104.984 243.074 104.492C244.64 103.464 247.113 103.133 249.92 103.214C252.679 103.295 255.544 103.763 257.774 104.134L257.931 104.16C258.962 104.332 259.877 104.484 260.543 104.551C260.882 104.586 261.229 104.607 261.517 104.575C261.649 104.56 261.872 104.526 262.097 104.403C262.332 104.275 262.787 103.909 262.829 103.171ZM270.266 99.848C270.266 99.848 270.268 99.8471 270.274 99.8458C270.269 99.8476 270.266 99.848 270.266 99.848ZM271.546 103.846C271.546 103.846 271.549 103.848 271.553 103.852C271.548 103.848 271.545 103.846 271.546 103.846ZM271.262 105.805C271.262 105.805 271.264 105.804 271.269 105.803C271.264 105.805 271.262 105.805 271.262 105.805ZM269.975 107.584C269.971 107.565 269.973 107.567 269.976 107.587C269.976 107.586 269.976 107.585 269.975 107.584ZM267.045 109.238C267.045 109.238 267.043 109.24 267.04 109.246C267.043 109.241 267.044 109.238 267.045 109.238ZM265.37 108.761C265.37 108.761 265.37 108.762 265.37 108.762C265.369 108.75 265.369 108.749 265.37 108.761ZM263.067 108.227C263.067 108.227 263.064 108.227 263.06 108.228C263.064 108.227 263.066 108.226 263.067 108.227ZM262.155 106.536C262.154 106.537 262.153 106.538 262.152 106.54C262.158 106.53 262.159 106.529 262.155 106.536ZM260.929 103.988C260.929 103.988 260.927 103.987 260.924 103.985C260.927 103.987 260.929 103.988 260.929 103.988ZM261.32 101.904C261.32 101.904 261.317 101.904 261.309 101.905C261.316 101.904 261.32 101.904 261.32 101.904ZM262.699 98.9731C262.699 98.9731 262.699 98.9709 262.698 98.9665C262.699 98.9712 262.699 98.9731 262.699 98.9731ZM264.14 97.8338C264.148 97.8401 264.149 97.8418 264.143 97.8364C264.142 97.8357 264.141 97.8347 264.14 97.8338ZM266.778 97.0049C266.778 97.0047 266.779 97.0025 266.782 96.9981C266.779 97.0027 266.778 97.0049 266.778 97.0049ZM268.423 97.4285C268.425 97.4377 268.425 97.4397 268.424 97.4329C268.423 97.4314 268.423 97.4299 268.423 97.4285Z" stroke="#F74700" stroke-width="3.71442" stroke-linecap="round" stroke-linejoin="round"/>
<path d="M263.008 103.119C263.045 102.479 262.725 102.069 262.598 101.927C262.447 101.757 262.28 101.642 262.162 101.569C261.917 101.416 261.606 101.278 261.292 101.153C260.665 100.903 259.793 100.616 258.818 100.294L258.751 100.272C256.712 99.6 254.124 98.7434 251.75 97.6233C249.33 96.4817 247.343 95.1586 246.336 93.6744C245.857 92.9686 245.641 92.2874 245.65 91.5965C245.658 90.8949 245.902 90.0004 246.634 88.8847C247.361 87.7751 248.081 87.1965 248.754 86.9311C249.425 86.6662 250.149 86.674 250.945 86.9387C252.593 87.4865 254.389 89.0826 256.148 91.1413C257.866 93.1519 259.421 95.4474 260.638 97.2453L260.671 97.2943C261.269 98.177 261.808 98.972 262.227 99.5108C262.429 99.7699 262.658 100.044 262.89 100.238C262.999 100.329 263.193 100.477 263.446 100.549C263.736 100.633 264.204 100.632 264.594 100.21C264.964 99.8104 265.004 99.3032 265.004 99.0739C265.004 98.8226 264.959 98.5964 264.92 98.4402C264.841 98.1171 264.705 97.7554 264.56 97.4042C264.264 96.6867 263.81 95.7355 263.306 94.6792L263.297 94.6612C262.272 92.5121 260.977 89.8001 260 87.0769C259 84.2929 258.427 81.7459 258.646 79.8795C258.749 78.9949 259.024 78.32 259.484 77.8138C259.953 77.2969 260.715 76.8461 261.955 76.6401C263.191 76.4344 264.068 76.6114 264.699 76.9667C265.324 77.3181 265.808 77.9001 266.182 78.7209C266.963 80.4357 267.188 83.0337 267.091 85.9641C267 88.721 266.635 91.5463 266.343 93.818C266.329 93.922 266.316 94.0251 266.303 94.1267C266.157 95.261 266.027 96.2885 265.981 97.0394C265.96 97.4005 265.949 97.8005 265.996 98.149C266.018 98.3169 266.067 98.5889 266.205 98.857C266.364 99.1648 266.674 99.5172 267.154 99.5801C267.635 99.6432 267.985 99.3731 268.158 99.1947C268.331 99.0161 268.449 98.8102 268.524 98.6625C268.678 98.3591 268.81 97.9784 268.925 97.6036C269.161 96.8354 269.422 95.7638 269.709 94.5752C269.73 94.4906 269.751 94.4051 269.771 94.319C270.346 91.938 271.058 88.9898 271.991 86.2902C272.977 83.4382 274.123 81.1313 275.427 80.0012C276.042 79.4672 276.658 79.2262 277.313 79.2708C277.984 79.3166 278.829 79.6719 279.871 80.6231C280.904 81.567 281.435 82.4756 281.67 83.3015C281.903 84.1184 281.883 84.9805 281.629 85.9173C281.098 87.8699 279.595 89.9707 277.65 92.0247C275.82 93.9581 273.743 95.7028 272.069 97.1093C271.992 97.1736 271.917 97.2373 271.842 97.3004C271.004 98.0045 270.25 98.6432 269.731 99.1553C269.479 99.4036 269.22 99.6814 269.033 99.9661C268.942 100.105 268.814 100.324 268.739 100.606C268.658 100.911 268.615 101.402 268.868 101.881C269.134 102.383 269.552 102.544 269.832 102.579C270.086 102.611 270.312 102.557 270.456 102.513C270.753 102.421 271.078 102.247 271.378 102.068C271.998 101.698 272.819 101.116 273.73 100.463C273.847 100.379 273.967 100.294 274.088 100.207C275.887 98.9167 278.103 97.3282 280.353 96.0589C282.794 94.6819 285.079 93.8002 286.81 93.9281C287.638 93.9893 288.279 94.2776 288.768 94.7943C289.261 95.3161 289.708 96.1844 289.963 97.6355C290.219 99.0851 290.107 100.109 289.828 100.848C289.551 101.58 289.056 102.174 288.318 102.649C286.781 103.64 284.401 103.986 281.712 103.959C279.193 103.933 276.592 103.587 274.491 103.307C274.385 103.293 274.279 103.279 274.176 103.265C273.119 103.125 272.17 103.003 271.474 102.971C271.135 102.955 270.783 102.956 270.483 103.014C270.337 103.042 270.124 103.097 269.913 103.23C269.694 103.369 269.355 103.677 269.248 104.244C269.136 104.839 269.354 105.305 269.531 105.551C269.693 105.779 269.886 105.923 270.013 106.008C270.278 106.186 270.612 106.33 270.934 106.451C271.599 106.702 272.533 106.971 273.574 107.267C273.683 107.297 273.794 107.329 273.906 107.361C275.975 107.946 278.53 108.67 280.893 109.651C283.432 110.707 285.517 111.972 286.577 113.465C287.078 114.171 287.312 114.875 287.306 115.621C287.299 116.386 287.037 117.371 286.258 118.616C285.482 119.856 284.721 120.514 284.019 120.824C283.325 121.131 282.59 121.141 281.79 120.882C280.125 120.341 278.311 118.673 276.527 116.472C274.773 114.305 273.183 111.795 271.936 109.8C271.871 109.696 271.807 109.593 271.743 109.492C271.208 108.635 270.729 107.869 270.346 107.313C270.136 107.006 269.919 106.712 269.715 106.492C269.615 106.384 269.476 106.247 269.306 106.138C269.169 106.05 268.799 105.84 268.338 105.985C268.08 106.066 267.835 106.251 267.662 106.539C267.504 106.802 267.456 107.068 267.441 107.244C267.414 107.564 267.477 107.843 267.511 107.98C267.591 108.294 267.734 108.652 267.879 108.987C268.162 109.638 268.595 110.519 269.085 111.514C269.12 111.586 269.156 111.658 269.192 111.73C270.278 113.939 271.672 116.796 272.731 119.673C273.81 122.607 274.441 125.306 274.219 127.267C274.113 128.196 273.823 128.895 273.336 129.411C272.836 129.94 272.019 130.392 270.683 130.566C269.347 130.74 268.412 130.525 267.752 130.132C267.103 129.744 266.621 129.126 266.269 128.269C265.532 126.475 265.425 123.782 265.68 120.747C265.922 117.856 266.468 114.897 266.904 112.53C266.918 112.453 266.932 112.378 266.946 112.303C267.163 111.126 267.356 110.063 267.449 109.283C267.494 108.905 267.528 108.498 267.504 108.142C267.493 107.97 267.463 107.701 267.352 107.426C267.228 107.122 266.958 106.718 266.475 106.592C265.972 106.46 265.58 106.717 265.378 106.913C265.186 107.099 265.061 107.318 264.985 107.467C264.828 107.776 264.696 108.167 264.583 108.548C264.348 109.333 264.09 110.438 263.805 111.671C263.777 111.789 263.75 111.908 263.722 112.029C263.155 114.484 262.452 117.528 261.528 120.345C260.542 123.353 259.381 125.848 258.039 127.132C257.399 127.745 256.763 128.038 256.102 128.037C255.43 128.037 254.585 127.733 253.537 126.831C252.485 125.925 251.945 125.048 251.701 124.255C251.46 123.471 251.467 122.64 251.707 121.726C252.209 119.816 253.68 117.736 255.599 115.691C257.412 113.759 259.474 112.012 261.122 110.615C261.189 110.558 261.255 110.503 261.32 110.447C262.142 109.75 262.881 109.12 263.384 108.621C263.625 108.381 263.881 108.104 264.063 107.819C264.149 107.683 264.285 107.445 264.351 107.132C264.429 106.765 264.414 106.236 264.089 105.788C263.783 105.368 263.385 105.273 263.154 105.259C262.924 105.245 262.718 105.295 262.576 105.34C262.285 105.431 261.966 105.597 261.664 105.772C261.046 106.13 260.233 106.686 259.334 107.306C259.264 107.354 259.194 107.402 259.124 107.45C257.324 108.69 255.091 110.228 252.817 111.425C250.416 112.687 248.162 113.462 246.427 113.259C245.593 113.162 244.922 112.843 244.393 112.283C243.861 111.718 243.384 110.812 243.086 109.357C242.787 107.894 242.866 106.873 243.112 106.152C243.353 105.443 243.804 104.877 244.492 104.425C245.939 103.475 248.234 103.164 250.859 103.241C253.434 103.316 256.11 103.753 258.196 104.1L258.345 104.125C259.308 104.285 260.166 104.428 260.79 104.491C261.108 104.523 261.438 104.543 261.714 104.513C261.841 104.499 262.06 104.466 262.281 104.344C262.513 104.218 262.967 103.854 263.008 103.119ZM269.882 99.9191C269.872 99.922 269.873 99.921 269.883 99.9186C269.882 99.9188 269.882 99.9188 269.882 99.9191ZM271.127 103.671C271.127 103.671 271.129 103.673 271.134 103.676L271.134 103.676C271.129 103.673 271.127 103.671 271.127 103.671ZM270.837 105.662C270.837 105.662 270.84 105.662 270.845 105.66C270.84 105.662 270.837 105.662 270.837 105.662ZM269.69 107.217C269.686 107.201 269.688 107.204 269.692 107.222C269.691 107.22 269.69 107.218 269.69 107.217ZM268.159 108.447C268.159 108.447 268.16 108.448 268.161 108.45C268.16 108.448 268.159 108.448 268.159 108.447ZM266.94 108.835C266.94 108.836 266.938 108.838 266.935 108.844C266.938 108.838 266.94 108.835 266.94 108.835ZM265.239 108.349C265.239 108.35 265.239 108.351 265.239 108.352C265.238 108.342 265.238 108.34 265.239 108.349ZM263.173 107.927C263.173 107.927 263.17 107.928 263.166 107.929C263.171 107.927 263.173 107.927 263.173 107.927ZM261.12 103.952C261.12 103.952 261.118 103.951 261.115 103.948C261.118 103.951 261.12 103.952 261.12 103.952ZM261.504 101.844L261.504 101.844C261.511 101.842 261.514 101.842 261.515 101.842C261.515 101.842 261.511 101.843 261.504 101.844ZM262.742 99.2069C262.742 99.2067 262.742 99.2043 262.741 99.1996C262.742 99.2045 262.742 99.2069 262.742 99.2069ZM266.567 97.2979C266.567 97.2977 266.569 97.2953 266.571 97.2909C266.569 97.296 266.567 97.2982 266.567 97.2979ZM270.829 101.609C270.829 101.608 270.829 101.608 270.83 101.607C270.825 101.616 270.824 101.617 270.829 101.609Z" stroke="#F74700" stroke-width="3.71442" stroke-linecap="round" stroke-linejoin="round"/>
<path d="M264.836 103.313C264.853 103.017 264.835 102.744 264.793 102.496C265.14 102.374 265.496 102.157 265.827 101.799C265.953 101.664 266.06 101.522 266.153 101.379C266.406 101.523 266.696 101.629 267.023 101.672C267.052 101.675 267.081 101.679 267.11 101.682C267.151 102.096 267.266 102.543 267.502 102.988C267.586 103.147 267.677 103.289 267.772 103.417C267.729 103.554 267.691 103.7 267.662 103.856C267.636 103.992 267.619 104.124 267.608 104.253C267.375 104.362 267.151 104.512 266.946 104.703C266.927 104.697 266.906 104.691 266.886 104.686C266.408 104.561 265.979 104.6 265.614 104.715C265.573 104.649 265.529 104.584 265.482 104.519L264.999 105.008L265.482 104.519C265.259 104.213 265.016 103.989 264.773 103.826C264.804 103.665 264.826 103.495 264.836 103.313ZM258.611 105.887C258.618 105.888 258.625 105.889 258.632 105.89C257.003 107.011 255.101 108.302 253.178 109.313C250.977 110.472 249.182 111.021 247.979 110.88C247.455 110.819 247.154 110.639 246.947 110.42C246.731 110.191 246.412 109.698 246.187 108.599C245.959 107.483 246.065 106.929 246.145 106.695C246.214 106.491 246.357 106.247 246.762 105.982C247.731 105.346 249.515 105.031 251.931 105.101C254.237 105.169 256.654 105.561 258.611 105.887ZM257.417 116.269C259.01 114.571 260.828 113.022 262.36 111.724C261.86 113.879 261.268 116.348 260.517 118.638C259.606 121.414 258.638 123.35 257.718 124.231C257.328 124.604 257.063 124.676 256.867 124.676C256.649 124.676 256.167 124.582 255.368 123.894C254.561 123.199 254.285 122.647 254.186 122.324C254.094 122.026 254.07 121.657 254.214 121.106C254.554 119.813 255.657 118.145 257.417 116.269ZM274.915 101.679C276.503 100.543 278.33 99.2588 280.176 98.2179C282.427 96.948 284.256 96.3109 285.456 96.3994C285.971 96.4376 286.219 96.5997 286.365 96.7542C286.522 96.9202 286.815 97.3474 287.008 98.4373C287.199 99.5238 287.08 100.08 286.981 100.341C286.887 100.591 286.696 100.88 286.23 101.18C285.159 101.871 283.277 102.209 280.802 102.184C278.8 102.164 276.731 101.917 274.915 101.679ZM273.229 108.925C275.154 109.47 277.426 110.119 279.518 110.988C281.867 111.964 283.463 113.017 284.167 114.01C284.454 114.414 284.495 114.671 284.493 114.853C284.491 115.08 284.414 115.642 283.812 116.604C283.216 117.556 282.727 117.913 282.411 118.052C282.112 118.184 281.759 118.216 281.266 118.056C280.13 117.687 278.675 116.438 277.046 114.427C275.634 112.683 274.329 110.674 273.229 108.925ZM268.292 113.188C269.198 115.05 270.21 117.213 271.004 119.371C272.001 122.079 272.43 124.205 272.282 125.512C272.221 126.047 272.083 126.276 271.949 126.417C271.788 126.588 271.359 126.913 270.32 127.048C269.28 127.184 268.722 126.995 268.436 126.825C268.174 126.669 267.941 126.411 267.733 125.904C267.24 124.704 267.094 122.619 267.327 119.837C267.518 117.565 267.919 115.231 268.292 113.188ZM259.945 98.8706C259.911 98.8596 259.878 98.8484 259.844 98.8375L259.751 98.8065C257.836 98.1753 255.496 97.3991 253.366 96.3942C251.134 95.3409 249.607 94.2454 248.932 93.2504C248.65 92.8356 248.622 92.5928 248.624 92.4576C248.626 92.297 248.68 91.8276 249.225 90.9958C249.762 90.1781 250.2 89.8871 250.485 89.7746C250.768 89.6632 251.126 89.6371 251.637 89.807C252.786 90.1889 254.234 91.4016 255.838 93.2794C257.381 95.0841 258.788 97.1617 259.936 98.857L259.945 98.8706ZM270.951 96.0755C270.98 95.9526 271.01 95.8288 271.04 95.705C271.057 95.6351 271.074 95.5649 271.091 95.4942C271.633 93.2509 272.278 90.58 273.117 88.1517C274.026 85.5225 274.967 83.7839 275.819 83.0454C276.164 82.7466 276.397 82.6955 276.592 82.7089C276.826 82.7247 277.329 82.86 278.138 83.5994C278.93 84.3225 279.207 84.8981 279.308 85.2542C279.404 85.5905 279.421 85.9975 279.263 86.578C278.898 87.9187 277.763 89.6118 275.981 91.4939C274.359 93.206 272.512 94.7633 270.951 96.0755ZM264.907 94.4007C263.944 92.3825 262.781 89.9405 261.908 87.5092C260.988 84.9461 260.606 82.9579 260.75 81.7316C260.809 81.2288 260.938 81.006 261.064 80.8679C261.211 80.7053 261.6 80.3941 262.546 80.2369C263.484 80.0809 263.986 80.2405 264.243 80.3848C264.483 80.5198 264.718 80.7584 264.943 81.2529C265.468 82.4067 265.701 84.418 265.612 87.0998C265.53 89.5713 265.201 92.1217 264.925 94.2615C264.919 94.3081 264.913 94.3544 264.907 94.4007Z" stroke="#F74700" stroke-width="8.44187" stroke-linecap="round" stroke-linejoin="round"/>
<path d="M268.649 106.574C267.255 107.535 265.385 106.835 264.731 105.221C264.104 103.675 264.566 101.881 265.91 100.977C267.248 100.077 268.77 100.505 269.588 101.913C270.444 103.384 270.039 105.615 268.649 106.574Z" stroke="#A88771" stroke-width="9.11722" stroke-linecap="round" stroke-linejoin="round"/>
<path d="M338.284 206.88C339.833 206.027 342.106 187.871 324.338 178.366C306.571 168.861 274.961 188.724 264.218 183.972C253.475 179.219 254.9 177.888 248.929 173.989C248.929 173.989 249.549 182.266 256.884 188.724C264.218 195.182 266.387 196.888 274.961 196.888C283.535 196.888 310.496 191.405 320.826 195.182C331.156 198.96 336.734 207.733 338.284 206.88Z" stroke="#A88771" stroke-width="5.74047" stroke-linecap="round" stroke-linejoin="round"/>
<path d="M337.592 202.123C339.056 201.544 340.929 188.515 323.819 181.265C306.708 174.015 276.867 187.607 266.537 183.94C256.208 180.273 257.546 179.346 251.785 176.402C251.785 176.402 252.512 182.378 259.616 187.197C266.72 192.016 268.818 193.294 277 193.489C285.182 193.683 310.822 190.344 320.741 193.3C330.661 196.255 336.127 202.702 337.592 202.123Z" stroke="#A88771" stroke-width="5.74047" stroke-linecap="round" stroke-linejoin="round"/>
<path d="M335.916 198.318C337.332 197.985 338.868 189.516 322.011 184.239C305.154 178.961 276.342 186.927 266.181 184.205C256.02 181.484 257.305 180.919 251.618 178.813C251.618 178.813 252.461 182.747 259.5 186.122C266.54 189.497 268.616 190.399 276.603 190.781C284.591 191.163 309.533 189.776 319.277 192.019C329.022 194.262 334.5 198.652 335.916 198.318Z" stroke="#A88771" stroke-width="5.74047" stroke-linecap="round" stroke-linejoin="round"/>
<path d="M336.129 195.236C337.528 195.15 338.75 191.22 321.76 187.868C304.769 184.515 276.349 186.823 266.124 185.02C255.9 183.216 257.16 183.014 251.416 181.729C251.416 181.729 252.399 183.633 259.537 185.588C266.675 187.542 268.776 188.074 276.75 188.66C284.723 189.246 309.527 189.855 319.319 191.411C329.111 192.967 334.73 195.322 336.129 195.236Z" stroke="#A88771" stroke-width="5.74047" stroke-linecap="round" stroke-linejoin="round"/>
<path d="M179.72 162.281C179.72 162.281 178.175 194.887 188.116 208.891C201.826 228.205 226.308 234.358 226.308 234.358" stroke="#A88771" stroke-width="10.1302" stroke-linecap="round" stroke-linejoin="round"/>
<path d="M234.125 255.34C231.111 256.804 229.23 253.539 225.986 253.154C222.692 252.764 220.079 255.869 217.509 253.405C215.127 251.119 216.716 247.787 215.635 244.397C214.352 240.372 210.52 238.974 211.152 234.74C211.739 230.823 215.404 230.875 217.292 227.582C218.831 224.901 217.984 221.881 220.257 220.067C223.179 217.734 225.694 221.216 229.217 221.428C232.36 221.618 234.625 219.258 237.274 221.261C240.349 223.587 238.516 227.888 240.053 231.797C241.337 235.064 244.379 236.096 244.104 239.682C243.82 243.397 240.49 243.692 238.574 246.659C236.539 249.81 237.23 253.829 234.125 255.34Z" stroke="#F74700" stroke-width="8.44187" stroke-linecap="round" stroke-linejoin="round"/>
<path d="M232.74 251.301C230.363 252.459 228.888 249.907 226.335 249.615C223.741 249.318 221.677 251.76 219.66 249.837C217.788 248.053 219.046 245.44 218.201 242.788C217.199 239.641 214.183 238.557 214.691 235.24C215.16 232.172 218.046 232.202 219.542 229.617C220.758 227.514 220.098 225.152 221.891 223.725C224.197 221.89 226.171 224.608 228.946 224.765C231.42 224.904 233.208 223.05 235.291 224.61C237.708 226.422 236.255 229.796 237.458 232.852C238.462 235.406 240.855 236.205 240.632 239.014C240.4 241.924 237.777 242.164 236.261 244.493C234.652 246.966 235.188 250.112 232.74 251.301Z" stroke="#F74700" stroke-width="8.44187" stroke-linecap="round" stroke-linejoin="round"/>
<path d="M231.417 247.995C229.599 248.879 228.475 246.942 226.524 246.727C224.542 246.506 222.96 248.367 221.421 246.91C219.992 245.557 220.959 243.566 220.319 241.55C219.556 239.158 217.253 238.34 217.647 235.815C218.011 233.48 220.218 233.496 221.364 231.526C222.297 229.923 221.796 228.127 223.169 227.037C224.935 225.636 226.439 227.7 228.56 227.813C230.451 227.913 231.821 226.498 233.41 227.681C235.255 229.054 234.139 231.624 235.053 233.947C235.817 235.888 237.645 236.491 237.469 238.628C237.288 240.843 235.282 241.031 234.12 242.807C232.886 244.692 233.29 247.083 231.417 247.995Z" stroke="#B8CDB4" stroke-width="4.72745" stroke-linecap="round" stroke-linejoin="round"/>
<path d="M230.694 245.709C229.268 246.403 228.391 244.895 226.863 244.73C225.311 244.563 224.069 246.018 222.866 244.884C221.75 243.833 222.509 242.278 222.011 240.708C221.419 238.844 219.616 238.212 219.928 236.242C220.216 234.42 221.944 234.427 222.846 232.889C223.579 231.637 223.19 230.237 224.267 229.385C225.652 228.288 226.827 229.894 228.488 229.977C229.969 230.051 231.045 228.945 232.287 229.864C233.73 230.93 232.852 232.937 233.564 234.746C234.159 236.258 235.59 236.724 235.449 238.391C235.303 240.118 233.732 240.27 232.819 241.657C231.85 243.13 232.162 244.994 230.694 245.709Z" stroke="#B8CDB4" stroke-width="4.72745" stroke-linecap="round" stroke-linejoin="round"/>
<path d="M229.944 243.967C228.829 244.51 228.142 243.328 226.945 243.198C225.73 243.067 224.759 244.206 223.816 243.317C222.942 242.493 223.536 241.275 223.145 240.044C222.681 238.583 221.27 238.087 221.513 236.543C221.738 235.116 223.091 235.123 223.796 233.918C224.37 232.937 224.065 231.84 224.908 231.173C225.992 230.314 226.912 231.573 228.212 231.639C229.372 231.698 230.213 230.832 231.186 231.552C232.316 232.389 231.629 233.96 232.187 235.379C232.654 236.563 233.774 236.929 233.664 238.236C233.551 239.589 232.321 239.707 231.607 240.793C230.848 241.947 231.094 243.407 229.944 243.967Z" stroke="#B8CDB4" stroke-width="4.72745" stroke-linecap="round" stroke-linejoin="round"/>
<path d="M229.045 241.094C227.217 242.051 224.996 240.902 224.371 238.779C223.776 236.761 224.568 234.619 226.314 233.731C228.053 232.847 229.893 233.615 230.742 235.492C231.635 237.468 230.866 240.14 229.045 241.094Z" stroke="#F74700" stroke-width="8.77955" stroke-linecap="round" stroke-linejoin="round"/>
<path d="M226.711 237.761C226.897 238.392 227.527 238.702 228.044 238.431C228.559 238.161 228.787 237.412 228.522 236.826C228.277 236.284 227.739 236.072 227.26 236.315C226.778 236.56 226.539 237.177 226.711 237.761Z" stroke="#B8CDB4" stroke-width="3.37675" stroke-linecap="round" stroke-linejoin="round"/>
<path d="M192.506 91.9054C189.341 92.8207 187.895 89.2601 184.738 88.3055C181.53 87.3358 178.553 89.9447 176.325 87.0535C174.261 84.3725 176.255 81.3592 175.619 77.8159C174.861 73.6096 171.249 71.5493 172.412 67.4746C173.491 63.7061 177.106 64.4056 179.393 61.4835C181.255 59.1053 180.802 55.9697 183.28 54.5784C186.465 52.7893 188.509 56.6762 191.967 57.5097C195.05 58.2531 197.589 56.3209 199.952 58.77C202.698 61.6131 200.338 65.5418 201.361 69.6788C202.216 73.1356 205.092 74.6944 204.365 78.1912C203.611 81.8142 200.281 81.5159 198.008 84.1107C195.597 86.8661 195.768 90.9622 192.506 91.9054Z" stroke="#B8CDB4" stroke-width="8.44187" stroke-linecap="round" stroke-linejoin="round"/>
<path d="M191.651 87.6696C189.155 88.392 188.021 85.609 185.534 84.8687C183.007 84.1163 180.656 86.1633 178.904 83.9057C177.28 81.812 178.856 79.4507 178.358 76.6797C177.77 73.3906 174.925 71.7855 175.848 68.5955C176.702 65.6449 179.553 66.185 181.358 63.8943C182.829 62.0299 182.476 59.5777 184.43 58.4842C186.945 57.0782 188.55 60.1151 191.273 60.7604C193.703 61.3361 195.707 59.8195 197.566 61.7309C199.725 63.9499 197.861 67.028 198.661 70.2628C199.33 72.9655 201.595 74.1795 201.016 76.9166C200.417 79.7527 197.793 79.5258 195.998 81.5605C194.093 83.721 194.223 86.9253 191.651 87.6696Z" stroke="#B8CDB4" stroke-width="8.44187" stroke-linecap="round" stroke-linejoin="round"/>
<path d="M190.765 84.1655C188.854 84.7188 187.988 82.6046 186.087 82.0452C184.155 81.4771 182.354 83.0372 181.019 81.3234C179.78 79.7339 180.986 77.936 180.61 75.8298C180.162 73.3298 177.989 72.114 178.697 69.6868C179.354 67.442 181.534 67.8485 182.918 66.104C184.044 64.6841 183.777 62.82 185.273 61.9858C187.199 60.9127 188.422 63.2194 190.504 63.7059C192.362 64.1397 193.897 62.9835 195.316 64.4338C196.967 66.1179 195.537 68.4612 196.144 70.9195C196.653 72.9735 198.384 73.8931 197.938 75.9753C197.477 78.1324 195.471 77.964 194.095 79.514C192.636 81.1596 192.731 83.5957 190.765 84.1655Z" stroke="#F74700" stroke-width="4.72745" stroke-linecap="round" stroke-linejoin="round"/>
<path d="M190.339 81.7769C188.841 82.211 188.166 80.5647 186.676 80.1316C185.162 79.6919 183.751 80.9103 182.705 79.5769C181.734 78.3401 182.682 76.937 182.389 75.2963C182.042 73.3488 180.34 72.4045 180.897 70.512C181.416 68.7617 183.122 69.0751 184.209 67.7135C185.093 66.6053 184.887 65.153 186.06 64.5006C187.568 63.6615 188.527 65.4572 190.159 65.8332C191.614 66.1686 192.816 65.2651 193.93 66.3933C195.219 67.703 194.097 69.5313 194.57 71.4462C194.967 73.0461 196.322 73.76 195.971 75.3834C195.607 77.0652 194.035 76.937 192.955 78.1468C191.81 79.4314 191.882 81.3299 190.339 81.7769Z" stroke="#F74700" stroke-width="4.72745" stroke-linecap="round" stroke-linejoin="round"/>
<path d="M189.82 79.9226C188.647 80.2623 188.118 78.9719 186.953 78.6319C185.767 78.2868 184.662 79.2412 183.844 78.1957C183.083 77.2262 183.827 76.127 183.596 74.8409C183.323 73.3146 181.99 72.5739 182.428 71.0909C182.831 69.7193 184.168 69.9657 185.019 68.899C185.711 68.0308 185.548 66.8925 186.467 66.3816C187.647 65.7243 188.397 67.132 189.674 67.4274C190.812 67.6906 191.754 66.9831 192.626 67.8676C193.636 68.8946 192.758 70.3271 193.128 71.8279C193.44 73.0818 194.5 73.6419 194.225 74.9138C193.942 76.2318 192.711 76.1309 191.866 77.0787C190.969 78.085 191.027 79.5729 189.82 79.9226Z" stroke="#F74700" stroke-width="4.72745" stroke-linecap="round" stroke-linejoin="round"/>
<path d="M189.296 76.9227C187.366 77.5456 185.317 76.0165 184.968 73.8072C184.637 71.7066 185.693 69.7283 187.532 69.1595C189.364 68.5933 191.085 69.6781 191.686 71.6842C192.318 73.7962 191.217 76.3019 189.296 76.9227Z" stroke="#B8CDB4" stroke-width="8.77955" stroke-linecap="round" stroke-linejoin="round"/>
<path d="M187.411 73.2143C187.515 73.8708 188.099 74.2888 188.645 74.1126C189.188 73.9371 189.508 73.2369 189.32 72.6106C189.147 72.0308 188.643 71.7264 188.139 71.8824C187.63 72.0391 187.316 72.6062 187.411 73.2143Z" stroke="#F74700" stroke-width="3.37675" stroke-linecap="round" stroke-linejoin="round"/>
<path d="M358.429 205.097C357.96 212.291 363.575 215.367 367.012 221.336C370.167 226.816 367.96 232.332 373.085 235.041C377.929 237.602 380.213 233.263 385.519 233.434C391.613 233.631 395.7 239.213 401.116 235.912C406.812 232.441 403.49 226.658 406.715 220.122C409.503 214.47 415.933 212.353 415.999 205.814C416.068 199.077 409.278 198.581 406.509 192.689C403.978 187.304 406.556 181.238 402.26 177.741C397.567 173.921 393.448 179.781 387.748 179.64C381.548 179.488 377.668 174.156 372.721 177.896C367.774 181.637 370.578 187.61 367.44 193.471C364.207 199.512 358.894 197.974 358.429 205.097Z" stroke="#F74700" stroke-width="7.42885" stroke-linecap="round" stroke-linejoin="round"/>
<path d="M362.187 205.197C361.778 211.457 366.664 214.134 369.655 219.327C372.401 224.096 370.48 228.896 374.94 231.254C379.155 233.482 381.142 229.707 385.76 229.856C391.063 230.027 394.619 234.884 399.333 232.012C404.289 228.992 401.398 223.959 404.204 218.271C406.631 213.353 412.226 211.51 412.284 205.82C412.344 199.958 406.435 199.527 404.025 194.399C401.823 189.713 404.066 184.435 400.328 181.392C396.244 178.067 392.66 183.166 387.699 183.044C382.304 182.911 378.928 178.272 374.623 181.527C370.319 184.781 372.758 189.979 370.028 195.079C367.214 200.336 362.591 198.998 362.187 205.197Z" stroke="#F74700" stroke-width="7.42885" stroke-linecap="round" stroke-linejoin="round"/>
<path d="M365.614 205.306C365.259 210.746 369.505 213.072 372.103 217.585C374.489 221.728 372.82 225.899 376.695 227.948C380.358 229.884 382.085 226.604 386.097 226.733C390.705 226.882 393.795 231.102 397.891 228.607C402.197 225.982 399.685 221.609 402.124 216.667C404.232 212.393 409.094 210.792 409.144 205.848C409.196 200.754 404.061 200.379 401.968 195.924C400.054 191.852 402.004 187.266 398.755 184.622C395.207 181.733 392.093 186.163 387.782 186.057C383.094 185.942 380.161 181.911 376.42 184.739C372.68 187.567 374.8 192.083 372.427 196.515C369.982 201.083 365.966 199.92 365.614 205.306Z" stroke="#F74700" stroke-width="7.42885" stroke-linecap="round" stroke-linejoin="round"/>
<path d="M368.731 205.433C368.427 210.087 372.06 212.078 374.283 215.939C376.325 219.485 374.897 223.054 378.213 224.807C381.347 226.463 382.825 223.656 386.258 223.767C390.201 223.894 392.845 227.506 396.349 225.37C400.034 223.125 397.885 219.382 399.971 215.154C401.776 211.497 405.936 210.127 405.979 205.896C406.023 201.538 401.63 201.217 399.838 197.405C398.201 193.921 399.869 189.996 397.089 187.733C394.053 185.261 391.388 189.053 387.7 188.962C383.688 188.863 381.178 185.414 377.978 187.834C374.777 190.254 376.591 194.118 374.561 197.91C372.469 201.819 369.032 200.824 368.731 205.433Z" stroke="#B53A25" stroke-width="9.4549" stroke-linecap="round" stroke-linejoin="round"/>
<path d="M373.789 205.728C373.57 209.074 376.182 210.504 377.78 213.28C379.248 215.829 378.221 218.394 380.605 219.654C382.858 220.845 383.919 218.827 386.387 218.907C389.222 218.998 391.122 221.594 393.641 220.059C396.29 218.445 394.745 215.755 396.245 212.716C397.542 210.087 400.531 209.103 400.563 206.061C400.595 202.929 397.436 202.698 396.149 199.958C394.972 197.453 396.171 194.632 394.173 193.006C391.99 191.229 390.075 193.954 387.424 193.889C384.54 193.818 382.736 191.339 380.436 193.078C378.135 194.818 379.439 197.595 377.98 200.321C376.476 203.131 374.005 202.415 373.789 205.728Z" stroke="#B53A25" stroke-width="9.4549" stroke-linecap="round" stroke-linejoin="round"/>
<path d="M377.714 205.986C377.555 208.411 379.448 209.448 380.607 211.46C381.671 213.308 380.927 215.168 382.654 216.081C384.288 216.944 385.057 215.481 386.846 215.539C388.901 215.605 390.278 217.487 392.104 216.374C394.025 215.204 392.905 213.255 393.992 211.051C394.932 209.146 397.1 208.432 397.122 206.227C397.145 203.956 394.856 203.789 393.922 201.802C393.069 199.987 393.938 197.942 392.49 196.763C390.908 195.475 389.519 197.451 387.597 197.403C385.507 197.352 384.2 195.555 382.532 196.816C380.864 198.077 381.809 200.09 380.751 202.066C379.661 204.103 377.87 203.584 377.714 205.986Z" stroke="#B53A25" stroke-width="9.4549" stroke-linecap="round" stroke-linejoin="round"/>
<path d="M379.755 210.945C381.836 216.079 387.423 218.003 391.587 215.131C395.731 212.273 397.066 205.673 394.351 201.005C391.838 196.683 387.106 195.492 383.246 198.088C379.363 200.699 377.828 206.189 379.755 210.945Z" stroke="#F74700" stroke-width="6.7535" stroke-linecap="round" stroke-linejoin="round"/>
<path d="M382.801 209.202C384.07 212.336 387.48 213.51 390.022 211.757C392.551 210.013 393.366 205.985 391.709 203.135C390.175 200.498 387.287 199.771 384.931 201.355C382.561 202.949 381.624 206.299 382.801 209.202Z" stroke="#F74700" stroke-width="6.7535" stroke-linecap="round" stroke-linejoin="round"/>
<path d="M388.249 208.289C387.333 208.921 386.105 208.46 385.676 207.401C385.265 206.386 385.567 205.208 386.45 204.614C387.33 204.023 388.328 204.304 388.866 205.229C389.427 206.194 389.162 207.659 388.249 208.289Z" stroke="#B53A25" stroke-width="6.07815" stroke-linecap="round" stroke-linejoin="round"/>
<path d="M93.8757 205.905C94.4955 197.01 98.4209 196.157 98.4209 196.157C98.4209 196.157 95.074 185.92 92.0163 185.799C88.8367 185.674 87.781 191.161 85.715 191.892C83.649 192.623 85.715 177.269 79.0005 172.761C73.3335 168.954 77.1949 188.591 73.4224 185.068C68.464 180.437 70.8399 159.478 61.1297 157.285C51.2646 155.056 57.7208 173.004 53.5888 177.513C44.8724 187.025 44.1885 161.062 39.4367 162.89C36.3811 164.066 37.0856 172.212 31.9991 173.004C26.5243 173.857 23.8385 168.861 22.5989 173.004C20.7498 179.181 30.5302 183.118 32.9288 187.505C35.3275 191.892 28.6935 195.913 31.9991 201.64C35.4122 207.552 39.6433 197.019 45.1182 202.981C46.4611 204.443 39.5297 212.407 45.738 217.238C55.4482 224.793 60.702 201.581 69.2904 207.368C74.695 211.01 70.2614 220.636 76.418 219.553C81.9466 218.581 80.8599 205.784 82.9259 201.64C85.0849 197.31 93.5266 210.913 93.8757 205.905Z" stroke="#B53A25" stroke-width="8.44187" stroke-linecap="round" stroke-linejoin="round"/>
<path d="M92.126 203.949C92.6632 196.513 96.0576 194.094 96.0576 194.094C96.0576 194.094 93.1487 187.241 90.2625 187.118C87.2627 186.989 86.2958 191.571 84.3496 192.167C82.4055 192.763 84.2732 179.936 77.914 176.115C72.5445 172.889 76.2943 189.342 72.716 186.368C68.0117 182.458 70.1418 164.945 60.9687 163.038C51.649 161.101 57.8367 176.161 53.9609 179.901C45.7878 187.793 45.0048 166.072 40.5299 167.565C37.654 168.526 38.3605 175.345 33.5674 175.97C28.4066 176.643 25.8448 172.444 24.6981 175.9C22.9854 181.053 32.2349 184.418 34.5219 188.106C36.809 191.793 30.5697 195.107 33.7203 199.922C36.9701 204.892 40.9079 196.114 46.106 201.14C47.3807 202.373 40.8831 208.984 46.765 213.07C55.969 219.462 60.8014 200.085 68.9352 204.989C74.0548 208.076 69.9228 216.094 75.7261 215.235C80.9366 214.463 79.8437 203.75 81.7713 200.3C83.7856 196.694 91.8223 208.134 92.126 203.949Z" stroke="#B53A25" stroke-width="9.11722" stroke-linecap="round" stroke-linejoin="round"/>
<path d="M91.5061 192.211C91.7003 192.512 91.8842 192.815 92.0515 193.107C91.878 193.348 91.7003 193.614 91.5226 193.904C90.6755 195.283 89.8492 197.173 89.343 199.672C89.1199 199.496 88.8802 199.304 88.6199 199.095C88.5744 199.06 88.529 199.024 88.4835 198.988C87.4051 198.126 85.9857 197.001 84.6511 196.377C83.9838 196.064 83.081 195.749 82.1058 195.84C80.984 195.944 79.9014 196.581 79.1783 197.842C78.3787 199.236 78.0193 201.069 77.7817 202.464C77.666 203.15 77.573 203.768 77.4842 204.361C77.354 205.229 77.2301 206.045 77.0524 206.945C76.7714 208.373 76.4553 209.372 76.0876 210.006C75.788 210.518 75.5153 210.714 75.0897 210.775C74.8376 210.811 74.66 210.817 74.5401 210.813C74.4968 210.638 74.4286 210.321 74.348 209.779C74.3273 209.648 74.3067 209.504 74.286 209.35C73.9968 207.297 73.4472 203.381 69.8627 201.276C66.9951 199.592 64.3424 200.045 62.0801 201.339C60.2145 202.407 58.475 204.137 57.0205 205.582C56.8655 205.738 56.7106 205.89 56.5618 206.038C54.8677 207.712 53.5 208.951 52.1427 209.541C50.9857 210.043 49.7937 210.096 48.2235 209.034C47.2442 208.371 47.1161 207.864 47.0831 207.702C47.0231 207.41 47.0417 206.906 47.3207 206.039C47.519 205.424 47.7277 204.949 47.9694 204.396C48.1078 204.078 48.2586 203.735 48.4239 203.324C48.5954 202.901 48.8619 202.214 48.9693 201.472C49.085 200.691 49.1119 199.057 47.8847 197.902C46.141 196.262 44.3498 195.639 42.5978 195.692C40.976 195.741 39.536 196.38 38.5546 196.821C37.3791 197.348 36.9039 197.549 36.5341 197.567C36.532 197.567 36.5279 197.568 36.5238 197.57C36.4928 197.583 36.4081 197.62 36.125 197.201C35.7552 196.651 35.7821 196.396 35.7945 196.259L35.7965 196.255C35.8317 195.917 35.9887 195.45 36.4205 194.547C36.4659 194.453 36.5155 194.348 36.5733 194.234C36.9287 193.506 37.4782 192.384 37.751 191.254C38.1414 189.64 38.0712 187.755 36.937 185.981C36.0692 184.621 34.7119 183.504 33.5839 182.64C32.9723 182.171 32.4393 181.783 31.9269 181.411C31.2927 180.95 30.6894 180.513 30.0097 179.973C29.3031 179.411 28.7535 178.916 28.3507 178.477C29.7308 178.974 31.741 179.559 34.1912 179.253C35.9308 179.036 37.2923 178.235 38.3418 177.076C39.3294 175.985 39.9368 174.686 40.3541 173.696C40.5339 173.268 40.6723 172.924 40.79 172.632C40.9285 172.283 41.038 172.009 41.1557 171.755C41.2074 171.849 41.2611 171.953 41.3189 172.069C41.6578 172.742 42.0069 173.584 42.4077 174.598C42.4883 174.799 42.5709 175.007 42.6536 175.221C42.9759 176.037 43.3271 176.93 43.6948 177.782C44.5584 179.787 45.8373 182.419 47.8434 183.785C48.9569 184.542 50.2647 184.895 51.6944 184.617C53.062 184.351 54.3512 183.545 55.5722 182.402C57.4543 180.636 57.818 177.846 57.9295 175.945C57.9894 174.897 57.9832 173.812 57.9729 172.828C57.9708 172.675 57.9688 172.524 57.9688 172.376C57.9584 171.532 57.9481 170.765 57.9667 170.025C58.0143 168.122 58.2498 167.335 58.4398 167.057L58.4398 167.056C58.4708 167.011 58.5163 166.944 58.7126 166.883C58.9605 166.806 59.4708 166.743 60.386 166.929C63.2061 167.504 64.5779 170.283 65.7762 175.205C65.9704 176.002 66.1729 176.921 66.3815 177.872C66.7245 179.422 67.084 181.057 67.4558 182.384C68.0736 184.572 69.026 187.193 70.9391 188.741C71.6126 189.284 73.0505 190.158 74.6083 189.199C75.9058 188.4 76.3003 186.848 76.4346 186.246C76.6144 185.448 76.6908 184.556 76.7404 183.804C76.7714 183.342 76.7962 182.803 76.821 182.294C76.8354 181.992 76.8499 181.7 76.8644 181.442C76.8995 180.765 76.9429 180.169 77.0069 179.654C78.4986 180.953 79.2733 183.32 79.7588 186.282C79.889 187.075 79.9902 187.848 80.0873 188.604C80.0935 188.648 80.0997 188.693 80.1038 188.738C80.1927 189.421 80.2836 190.139 80.391 190.758C80.4923 191.337 80.6679 192.233 81.0563 193.001C81.2649 193.416 81.6451 194.015 82.2918 194.428C83.0107 194.887 83.7875 194.944 84.4693 194.743L83.8392 191.788L84.4693 194.743C85.6469 194.394 86.4754 193.525 86.9857 192.907C87.3204 192.503 87.7129 191.947 88.0104 191.528C88.1261 191.365 88.2274 191.223 88.3038 191.118C89.0599 190.087 89.3327 190.018 89.5248 190.021C89.5351 190.027 89.7273 190.083 90.1136 190.449C90.5557 190.867 91.0371 191.486 91.5061 192.211ZM91.1983 200.96C91.1983 200.962 91.1776 200.956 91.1321 200.935C91.1734 200.947 91.1983 200.957 91.1983 200.96ZM74.3273 210.781C74.3273 210.78 74.3418 210.783 74.3625 210.794C74.3377 210.787 74.3253 210.782 74.3273 210.781ZM27.6235 177.215C27.6255 177.212 27.6255 177.21 27.6255 177.21C27.6255 177.21 27.6255 177.212 27.6235 177.215ZM41.5359 171.091C41.5359 171.092 41.5317 171.096 41.5235 171.103C41.5317 171.094 41.5359 171.09 41.5359 171.091ZM76.1351 179.074C76.1351 179.074 76.1392 179.075 76.1475 179.077C76.1392 179.076 76.1351 179.074 76.1351 179.074Z" stroke="#B53A25" stroke-width="8.44187" stroke-linecap="round" stroke-linejoin="round"/>
<path d="M67.7824 185.209C67.7658 185.28 67.7617 185.262 67.7865 185.187C67.7844 185.196 67.7824 185.203 67.7824 185.209ZM83.8434 191.672C83.8744 191.714 83.9013 191.757 83.9302 191.799C83.9054 191.837 83.8806 191.875 83.8558 191.913C83.2443 192.857 82.6534 194.09 82.2299 195.654C82.1989 195.631 82.1679 195.607 82.1369 195.583L82.0956 195.553C81.296 194.946 80.2114 194.128 79.1577 193.619C79.9924 193.271 80.5915 192.665 80.9696 192.233C81.2527 191.908 81.6039 191.438 81.8394 191.121C81.922 191.012 81.9902 190.921 82.0357 190.861C82.3228 190.492 82.4799 190.341 82.577 190.272C82.5811 190.269 82.5852 190.267 82.5873 190.264C82.6369 190.296 82.7195 190.354 82.8331 190.457C83.1368 190.729 83.4881 191.151 83.8434 191.672ZM84.0872 196.959C84.1285 196.972 84.1533 196.983 84.1533 196.985C84.1533 196.987 84.1326 196.981 84.0872 196.959ZM75.5092 192.165C75.6641 192.453 75.91 192.831 76.2798 193.16C75.4493 193.356 74.6394 193.888 74.0547 194.856C73.3275 196.057 73.0238 197.598 72.8399 198.64C72.7408 199.201 72.6664 199.676 72.5982 200.121C72.5011 200.748 72.4123 201.316 72.2759 201.978C72.0631 203.015 71.84 203.637 71.6293 203.984C71.4929 204.206 71.4103 204.261 71.2037 204.288C71.2016 204.289 71.1995 204.289 71.1954 204.289C71.1871 204.236 71.1768 204.177 71.1665 204.113C71.1499 204.019 71.1355 203.913 71.1169 203.798C70.8814 202.228 70.3834 198.924 67.2679 197.182C64.8487 195.831 62.6133 196.186 60.7208 197.206C59.1796 198.036 57.7478 199.383 56.6053 200.459C56.4793 200.576 56.3574 200.69 56.2417 200.8C54.8947 202.056 53.8803 202.917 52.8928 203.32C52.0891 203.648 51.2648 203.69 50.1347 202.963C49.7111 202.692 49.5603 202.494 49.5128 202.412C49.5128 202.36 49.519 202.156 49.6698 201.711C49.8124 201.289 49.9487 200.993 50.1243 200.613C50.2359 200.372 50.3619 200.098 50.5148 199.738C50.6491 199.42 50.9032 198.807 51.0086 198.116C51.1263 197.343 51.1325 195.742 49.9033 194.645C48.424 193.325 46.9034 192.819 45.4242 192.856C44.0586 192.891 42.8562 193.395 42.0773 193.724C41.2468 194.073 40.91 194.204 40.6993 194.238C40.6869 194.223 40.6745 194.206 40.66 194.187C40.6146 194.121 40.5836 194.072 40.565 194.038C40.5753 194 40.5918 193.944 40.6207 193.87C40.6889 193.689 40.7881 193.471 40.9451 193.158C40.9761 193.099 41.0112 193.029 41.0526 192.949C41.3273 192.419 41.819 191.466 42.0649 190.5C42.2281 189.856 42.3314 189.061 42.2116 188.177C42.0897 187.275 41.7612 186.468 41.2922 185.772C40.5278 184.643 39.3708 183.748 38.4824 183.102C37.9701 182.729 37.5445 182.436 37.1396 182.157C37.0776 182.113 37.0135 182.07 36.9515 182.027C37.5094 182.067 38.1064 182.063 38.7386 181.991C40.2034 181.823 41.3831 181.183 42.3087 180.216C43.1764 179.309 43.7012 178.234 44.042 177.464C44.1226 177.28 44.1929 177.12 44.2528 176.98C44.4098 177.32 44.5771 177.71 44.7651 178.154C44.8271 178.301 44.8912 178.455 44.9573 178.614C45.2155 179.229 45.5027 179.918 45.8023 180.574C46.4964 182.095 47.5894 184.245 49.3331 185.373C50.3041 186 51.4362 186.291 52.6655 186.069C53.8452 185.856 54.9401 185.205 55.9587 184.304C57.6859 182.772 57.9896 180.346 58.0763 178.865C58.1238 178.036 58.1156 177.187 58.1053 176.447C58.1032 176.33 58.1032 176.215 58.1011 176.103C58.0908 175.468 58.0825 174.915 58.0949 174.381C58.1197 173.351 58.2251 172.903 58.2747 172.744C58.4255 172.706 58.7581 172.677 59.3944 172.802C61.3385 173.184 62.3281 174.923 63.2702 178.554C63.4128 179.103 63.5698 179.77 63.7372 180.475C64.0181 181.669 64.3239 182.972 64.6276 183.987C65.1358 185.676 65.9581 187.848 67.6419 189.142C68.2286 189.592 69.5447 190.371 70.995 189.529C72.2573 188.797 72.6395 187.348 72.7594 186.833C72.9205 186.148 72.9846 185.407 73.0217 184.834C73.0465 184.48 73.0651 184.051 73.0837 183.66C73.094 183.456 73.1044 183.262 73.1126 183.095C73.7056 183.977 74.0919 185.237 74.375 186.843C74.4762 187.419 74.5568 187.983 74.6353 188.552C74.6394 188.587 74.6436 188.623 74.6497 188.659C74.72 189.165 74.7964 189.728 74.8873 190.218C74.972 190.663 75.1332 191.461 75.5092 192.165ZM70.7471 204.305C70.7471 204.305 70.7512 204.305 70.7595 204.308C70.7512 204.306 70.7471 204.305 70.7471 204.305ZM49.4963 202.372C49.4963 202.371 49.5025 202.382 49.5087 202.404C49.4983 202.383 49.4942 202.372 49.4963 202.372ZM40.7674 194.316C40.7674 194.316 40.7674 194.315 40.7654 194.313C40.7674 194.315 40.7674 194.316 40.7674 194.316ZM40.5361 193.98C40.5361 193.98 40.5381 193.984 40.5402 193.991C40.536 193.983 40.5361 193.98 40.5361 193.98ZM58.1693 172.79C58.1672 172.787 58.1817 172.774 58.221 172.76C58.192 172.785 58.1714 172.792 58.1693 172.79ZM71.871 181.961C71.871 181.961 71.8751 181.962 71.8834 181.966C71.8751 181.963 71.871 181.961 71.871 181.961ZM82.6389 190.247C82.6327 190.247 82.6265 190.246 82.6203 190.246C82.6245 190.245 82.6266 190.246 82.6307 190.246C82.6327 190.246 82.6348 190.247 82.6389 190.247Z" stroke="#B53A25" stroke-width="8.44187" stroke-linecap="round" stroke-linejoin="round"/>
<path d="M80.0996 200.678C80.4178 196.269 82.4321 194.834 82.4321 194.834C82.4321 194.834 80.707 190.771 78.9943 190.697C77.2155 190.621 76.6432 193.338 75.4883 193.692C74.3355 194.045 75.4429 186.439 71.6724 184.173C68.4887 182.26 70.7117 192.017 68.59 190.253C65.8009 187.934 67.0632 177.549 61.6234 176.418C56.0969 175.269 59.7661 184.2 57.4687 186.418C52.6198 191.098 52.157 178.217 49.5043 179.103C47.7978 179.672 48.2172 183.716 45.3744 184.087C42.3126 184.486 40.7941 181.996 40.1144 184.045C39.1 187.101 44.5831 189.097 45.9405 191.283C47.2958 193.47 43.5976 195.435 45.4653 198.29C47.3929 201.238 49.7274 196.032 52.8099 199.013C53.5661 199.744 49.713 203.664 53.2004 206.087C58.6587 209.877 61.5243 198.387 66.3484 201.295C69.3833 203.125 66.933 207.881 70.375 207.371C73.4636 206.913 72.817 200.561 73.9595 198.515C75.1536 196.376 79.9199 203.16 80.0996 200.678Z" stroke="#B53A25" stroke-width="8.44187" stroke-linecap="round" stroke-linejoin="round"/>
<path d="M75.3374 198.582C75.5709 195.363 77.0398 194.316 77.0398 194.316C77.0398 194.316 75.7816 191.351 74.5317 191.297C73.2342 191.241 72.8148 193.224 71.974 193.482C71.131 193.74 71.9389 188.189 69.1869 186.535C66.8627 185.139 68.4866 192.26 66.9371 190.973C64.9021 189.28 65.8235 181.701 61.8527 180.875C57.8198 180.037 60.4974 186.555 58.8198 188.174C55.2828 191.589 54.944 182.188 53.0082 182.835C51.7624 183.25 52.0681 186.202 49.9938 186.472C47.7605 186.763 46.6511 184.946 46.1552 186.442C45.4135 188.672 49.4174 190.129 50.407 191.725C51.3967 193.32 48.6964 194.755 50.06 196.839C51.4669 198.99 53.1714 195.19 55.4212 197.366C55.9728 197.9 53.159 200.761 55.7063 202.529C59.6896 205.296 61.7804 196.909 65.3008 199.032C67.5176 200.368 65.7285 203.838 68.2407 203.466C70.4947 203.132 70.0237 198.496 70.8563 197.002C71.7281 195.442 75.2073 200.393 75.3374 198.582Z" stroke="#B53A25" stroke-width="8.44187" stroke-linecap="round" stroke-linejoin="round"/>
<path d="M69.7656 195.786C69.9123 193.736 70.8481 193.069 70.8481 193.069C70.8481 193.069 70.0465 191.181 69.2511 191.146C68.4247 191.111 68.1582 192.374 67.6211 192.538C67.086 192.703 67.6004 189.167 65.8464 188.114C64.3671 187.225 65.4001 191.76 64.4146 190.94C63.1193 189.862 63.706 185.035 61.1772 184.509C58.6071 183.975 60.3136 188.126 59.2455 189.157C56.9915 191.333 56.7766 185.345 55.5432 185.757C54.7499 186.022 54.9462 187.901 53.624 188.074C52.2005 188.259 51.496 187.102 51.1799 188.055C50.7068 189.475 53.2562 190.402 53.8863 191.419C54.5165 192.435 52.7975 193.349 53.6653 194.676C54.5619 196.046 55.6466 193.626 57.0804 195.012C57.4316 195.352 55.6404 197.174 57.2622 198.3C59.7992 200.062 61.1297 194.721 63.3734 196.073C64.7844 196.923 63.644 199.134 65.2452 198.897C66.681 198.684 66.3794 195.731 66.9103 194.78C67.4661 193.786 69.6809 196.94 69.7656 195.786Z" stroke="#B53A25" stroke-width="8.44187" stroke-linecap="round" stroke-linejoin="round"/>
<path d="M68.2761 191.69C68.398 189.994 69.1727 189.442 69.1727 189.442C69.1727 189.442 68.5095 187.879 67.8505 187.851C67.1666 187.821 66.9456 188.866 66.5035 189.002C66.0593 189.138 66.4849 186.213 65.0345 185.341C63.8094 184.605 64.6647 188.358 63.8487 187.68C62.7764 186.788 63.2619 182.793 61.1691 182.358C59.0432 181.916 60.4542 185.352 59.572 186.205C57.7064 188.005 57.5288 183.05 56.5082 183.391C55.8512 183.61 56.0123 185.165 54.9194 185.308C53.7418 185.461 53.1571 184.504 52.8968 185.292C52.5063 186.467 54.6157 187.235 55.1363 188.076C55.659 188.917 54.2356 189.673 54.9545 190.771C55.6962 191.905 56.5929 189.903 57.7788 191.049C58.0701 191.33 56.5887 192.838 57.9296 193.77C60.0286 195.228 61.1319 190.809 62.9871 191.927C64.1544 192.631 63.2123 194.46 64.5346 194.264C65.7246 194.088 65.4746 191.644 65.9147 190.857C66.3733 190.035 68.2079 192.644 68.2761 191.69Z" stroke="#B53A25" stroke-width="8.44187" stroke-linecap="round" stroke-linejoin="round"/>
<path d="M119.907 178.366C119.907 178.366 108.957 202.737 62.9251 196.691C46.707 194.561 26.0078 175.685 26.0078 175.685" stroke="#8D1202" stroke-width="2.36372" stroke-linecap="round" stroke-linejoin="round"/>
<path d="M82.205 197.152C82.205 197.152 78.9448 192.002 78.3808 188.114C77.8065 184.148 79.5192 177.898 79.5192 177.898" stroke="#8D1202" stroke-width="1.68837" stroke-linecap="round" stroke-linejoin="round"/>
<path d="M78.7939 197.616C78.7939 197.616 75.7549 201.184 75.3438 203.979C74.9264 206.83 76.8643 211.461 76.8643 211.461" stroke="#8D1202" stroke-width="1.68837" stroke-linecap="round" stroke-linejoin="round"/>
<path d="M72.0795 197.254C72.0795 197.254 63.0924 185.921 61.9561 179.828C61.2247 175.898 61.9561 166.424 61.9561 166.424" stroke="#8D1202" stroke-width="1.68837" stroke-linecap="round" stroke-linejoin="round"/>
<path d="M63.7122 197.2C63.7122 197.2 53.8966 202.747 51.936 206.271C50.6737 208.543 49.7853 213.078 49.7853 213.078" stroke="#8D1202" stroke-width="1.68837" stroke-linecap="round" stroke-linejoin="round"/>
<path d="M50.2379 192.1C50.2379 192.1 41.9553 181.305 40.9864 176.417C40.3625 173.263 40.9864 167.525 40.9864 167.525" stroke="#8D1202" stroke-width="1.68837" stroke-linecap="round" stroke-linejoin="round"/>
<path d="M52.8658 193.72C52.8658 193.72 42.9408 192.502 38.8171 193.72C36.1581 194.505 33.6645 198.752 33.6645 198.752" stroke="#8D1202" stroke-width="1.68837" stroke-linecap="round" stroke-linejoin="round"/>
</svg>
