<svg width="100" height="100" viewBox="0 0 100 100" fill="none" xmlns="http://www.w3.org/2000/svg">
<path d="M49.9586 91.3763V15.4229M49.9586 91.3763C49.9586 91.3763 46.6003 91.3763 46.6003 95.3149C46.6003 97.2162 48.3911 98.7568 50.2902 98.6731C52.2026 98.5894 53.7728 96.732 53.7728 94.8174C53.7728 91.3763 49.9586 91.3763 49.9586 91.3763Z" stroke="#677662" stroke-width="2.48756" stroke-linecap="round" stroke-linejoin="round"/>
<path d="M39.1791 8.5819C37.6148 10.8661 39.2258 13.1592 39.4279 15.9202C39.6134 18.4554 37.6899 19.7889 39.1791 21.8489C40.5868 23.7962 42.3142 22.8713 44.3615 24.1292C46.7126 25.5737 47.2436 28.3534 50 28.4824C52.8985 28.6181 52.7059 25.9443 55.2239 24.5023C57.4014 23.2553 60.3279 24.0068 61.6086 21.849C62.9279 19.626 60.3613 17.9244 60.4063 15.3398C60.4474 12.9778 62.6216 11.5454 61.6086 9.41117C60.5019 7.07941 57.7634 8.09457 55.5556 6.75773C53.1545 5.30386 52.6568 2.65432 50 2.77759C47.3432 2.90088 47.2962 5.52021 44.942 6.75773C42.5153 8.03329 40.728 6.32001 39.1791 8.5819Z" stroke="#F74700" stroke-width="5.22388" stroke-linecap="round" stroke-linejoin="round"/>
<path d="M43.0489 10.8538C42.0368 12.3317 43.0791 13.8153 43.2098 15.6017C43.3299 17.242 42.0854 18.1048 43.0489 19.4377C43.9596 20.6976 45.0773 20.0991 46.4019 20.913C47.9232 21.8476 48.2667 23.6461 50.05 23.7296C51.9254 23.8173 51.8008 22.0874 53.43 21.1544C54.8388 20.3476 56.7323 20.8338 57.5609 19.4377C58.4145 17.9994 56.7538 16.8985 56.783 15.2262C56.8096 13.698 58.2163 12.7712 57.5609 11.3903C56.8449 9.88172 55.073 10.5385 53.6446 9.67359C52.091 8.73288 51.769 7.01862 50.05 7.09839C48.3311 7.17815 48.3007 8.87284 46.7775 9.67359C45.2075 10.4989 44.051 9.39034 43.0489 10.8538Z" stroke="#B53A25" stroke-width="5.22388" stroke-linecap="round" stroke-linejoin="round"/>
<path d="M46.1857 15.2156C46.0163 17.3924 47.8374 19.296 50.0208 19.2841C52.1931 19.2723 53.9828 17.3814 53.8143 15.2156C53.6582 13.2106 52.0318 11.7439 50.0208 11.733C47.9978 11.722 46.3427 13.1986 46.1857 15.2156Z" stroke="#F74700" stroke-width="3.73134" stroke-linecap="round" stroke-linejoin="round"/>
<path d="M50.0381 16.5128C49.3967 16.5162 48.871 15.9411 48.9178 15.3394C48.9626 14.7633 49.4241 14.3317 50.0381 14.335C50.6497 14.3384 51.1017 14.7656 51.1464 15.3394C51.1931 15.9395 50.6779 16.5093 50.0381 16.5128Z" stroke="#B53A25" stroke-width="2.15589" stroke-linecap="round" stroke-linejoin="round"/>
<path d="M50 83.3746C50 83.3746 52.8607 76.9899 56.2604 75.0826C59.9308 73.0234 67.9155 70.8321 71.5174 64.552C73.1808 61.6517 74.2123 59.7693 74.2123 56.4259C74.2123 52.5703 73.8391 45.8952 73.8391 45.8952L50 83.3746ZM73.8391 45.8952C73.8391 45.8952 70.2736 45.8952 70.2736 42.4957C70.2736 40.4448 71.7896 39.0224 73.8391 39.096C75.824 39.1673 77.4876 40.5095 77.4876 42.4957C77.4876 45.8952 73.8391 45.8952 73.8391 45.8952Z" stroke="#677662" stroke-width="2.48756" stroke-linecap="round" stroke-linejoin="round"/>
<path d="M49.9659 83.3549C49.9659 83.3549 47.1052 76.9699 43.7055 75.0626C40.035 73.0035 32.0504 70.812 28.4485 64.5319C26.7851 61.6318 25.7536 59.7493 25.7536 56.4059C25.7536 52.5503 26.1268 45.8753 26.1268 45.8753L49.9659 83.3549ZM26.1268 45.8753C26.1268 45.8753 29.6923 45.8753 29.6923 42.4757C29.6923 40.4248 28.1763 39.0023 26.1268 39.076C24.1418 39.1473 22.4783 40.6553 22.4783 42.6415C22.4783 45.8753 26.1268 45.8753 26.1268 45.8753Z" stroke="#677662" stroke-width="2.48756" stroke-linecap="round" stroke-linejoin="round"/>
<path d="M49.848 47.896C49.848 47.896 52.3217 38.6333 60.5307 32.0895C69.3201 25.083 77.8746 22.8545 77.8746 22.8545" stroke="#677662" stroke-width="2.48756" stroke-linecap="round" stroke-linejoin="round"/>
<path d="M78.1939 30.4191C76.8859 30.3911 76.6392 29.0708 75.499 28.4291C74.341 27.7772 72.9567 28.3253 72.3481 27.1438C71.7839 26.0482 72.8222 25.2651 72.8871 24.0344C72.9641 22.5735 71.7453 21.5212 72.5554 20.303C73.3047 19.1763 74.6454 19.7821 75.7892 19.0593C76.7203 18.471 76.8208 17.3935 77.9037 17.1936C79.2963 16.9365 79.7464 18.4262 81.0131 19.0593C82.1428 19.6238 83.2972 19.2525 83.9982 20.303C84.812 21.5226 83.5515 22.5685 83.5836 24.0344C83.6105 25.2592 84.5882 26.0702 83.9982 27.1438C83.387 28.2562 82.1224 27.8122 81.0131 28.4291C79.8353 29.084 79.5412 30.448 78.1939 30.4191Z" stroke="#F74700" stroke-width="2.07297" stroke-linecap="round" stroke-linejoin="round"/>
<path d="M78.3346 28.5237C77.3928 28.5037 77.2152 27.5622 76.3943 27.1045C75.5603 26.6397 74.5636 27.0306 74.1254 26.188C73.7191 25.4067 74.4668 24.8482 74.5136 23.9706C74.569 22.9288 73.6914 22.1784 74.2747 21.3097C74.8142 20.5063 75.7796 20.9382 76.6032 20.4228C77.2735 20.0033 77.3459 19.2349 78.1257 19.0923C79.1284 18.909 79.4525 19.9714 80.3647 20.4228C81.1781 20.8253 82.0093 20.5606 82.514 21.3097C83.1 22.1794 82.1923 22.9253 82.2155 23.9706C82.2348 24.844 82.9388 25.4224 82.514 26.188C82.0739 26.9812 81.1633 26.6647 80.3647 27.1045C79.5166 27.5716 79.3048 28.5442 78.3346 28.5237Z" stroke="#B53A25" stroke-width="2.23881" stroke-linecap="round" stroke-linejoin="round"/>
<path d="M78.2581 27.1969C77.5674 27.1824 77.4371 26.4969 76.8351 26.1637C76.2236 25.8253 75.4926 26.1098 75.1713 25.4964C74.8733 24.9275 75.4217 24.521 75.4559 23.882C75.4965 23.1235 74.853 22.5771 75.2808 21.9447C75.6764 21.3597 76.3843 21.6741 76.9883 21.2989C77.4799 20.9935 77.533 20.4341 78.1048 20.3303C78.8402 20.1968 79.0778 20.9702 79.7467 21.2989C80.3432 21.592 80.9528 21.3993 81.3229 21.9447C81.7527 22.5779 81.0871 23.121 81.104 23.882C81.1182 24.5179 81.6344 24.939 81.3229 25.4964C81.0002 26.074 80.3324 25.8435 79.7467 26.1637C79.1248 26.5037 78.9695 27.2119 78.2581 27.1969Z" stroke="#B53A25" stroke-width="2.23881" stroke-linecap="round" stroke-linejoin="round"/>
<path d="M78.1998 25.1617C77.3973 25.166 76.7373 24.4506 76.7967 23.6884C76.8531 22.9636 77.4366 22.4231 78.1998 22.4273C78.9596 22.4314 79.5314 22.9667 79.5876 23.6884C79.6468 24.4482 78.9996 25.1573 78.1998 25.1617Z" stroke="#F74700" stroke-width="2.15589" stroke-linecap="round" stroke-linejoin="round"/>
<path d="M77.796 23.7475C77.7783 23.9741 77.9678 24.1721 78.195 24.1708C78.421 24.1696 78.6071 23.9729 78.5896 23.7475C78.5734 23.539 78.4042 23.3864 78.195 23.3853C77.9845 23.3841 77.8123 23.5377 77.796 23.7475Z" stroke="#B53A25" stroke-width="0.829187" stroke-linecap="round" stroke-linejoin="round"/>
<path d="M50.2073 48.541C50.2073 48.541 47.7336 39.2782 39.5246 32.7345C30.7353 25.728 22.1808 23.4995 22.1808 23.4995" stroke="#677662" stroke-width="2.48756" stroke-linecap="round" stroke-linejoin="round"/>
<path d="M21.7262 30.4191C20.4182 30.3911 20.1714 29.0708 19.0313 28.4291C17.8733 27.7772 16.4889 28.3253 15.8804 27.1438C15.3161 26.0482 16.3545 25.2651 16.4194 24.0344C16.4964 22.5735 15.2776 21.5212 16.0877 20.303C16.837 19.1763 18.1777 19.7821 19.3216 19.0593C20.2525 18.471 20.3531 17.3935 21.436 17.1936C22.8286 16.9365 23.2787 18.4262 24.5454 19.0593C25.6751 19.6238 26.8295 19.2525 27.5305 20.303C28.3443 21.5226 27.0838 22.5685 27.1159 24.0344C27.1428 25.2592 28.1205 26.0702 27.5305 27.1438C26.9193 28.2562 25.6547 27.8122 24.5454 28.4291C23.3676 29.084 23.0735 30.448 21.7262 30.4191Z" stroke="#F74700" stroke-width="2.07297" stroke-linecap="round" stroke-linejoin="round"/>
<path d="M21.867 28.5237C20.9252 28.5037 20.7475 27.5622 19.9266 27.1045C19.0927 26.6397 18.096 27.0306 17.6578 26.188C17.2515 25.4067 17.9992 24.8482 18.0459 23.9706C18.1013 22.9288 17.2237 22.1784 17.8071 21.3097C18.3466 20.5063 19.3119 20.9382 20.1356 20.4228C20.8059 20.0033 20.8783 19.2349 21.658 19.0923C22.6608 18.909 22.9849 19.9714 23.897 20.4228C24.7104 20.8253 25.5416 20.5606 26.0463 21.3097C26.6323 22.1794 25.7247 22.9253 25.7478 23.9706C25.7671 24.844 26.4711 25.4224 26.0463 26.188C25.6063 26.9812 24.6957 26.6647 23.897 27.1045C23.0489 27.5716 22.8371 28.5442 21.867 28.5237Z" stroke="#B53A25" stroke-width="2.23881" stroke-linecap="round" stroke-linejoin="round"/>
<path d="M21.7904 27.1969C21.0997 27.1824 20.9694 26.4969 20.3674 26.1637C19.7559 25.8253 19.0249 26.1098 18.7036 25.4964C18.4056 24.9275 18.9539 24.521 18.9882 23.882C19.0289 23.1235 18.3853 22.5771 18.8131 21.9447C19.2087 21.3597 19.9166 21.6741 20.5206 21.2989C21.0122 20.9935 21.0653 20.4341 21.6371 20.3303C22.3725 20.1968 22.6101 20.9702 23.279 21.2989C23.8755 21.592 24.4851 21.3993 24.8552 21.9447C25.285 22.5779 24.6194 23.121 24.6363 23.882C24.6505 24.5179 25.1667 24.939 24.8552 25.4964C24.5325 26.074 23.8647 25.8435 23.279 26.1637C22.6571 26.5037 22.5018 27.2119 21.7904 27.1969Z" stroke="#B53A25" stroke-width="2.23881" stroke-linecap="round" stroke-linejoin="round"/>
<path d="M21.7321 25.1617C20.9296 25.166 20.2696 24.4506 20.329 23.6884C20.3854 22.9636 20.9689 22.4231 21.7321 22.4273C22.4919 22.4314 23.0637 22.9667 23.12 23.6884C23.1791 24.4482 22.5319 25.1573 21.7321 25.1617Z" stroke="#F74700" stroke-width="2.15589" stroke-linecap="round" stroke-linejoin="round"/>
<path d="M21.3283 23.7475C21.3107 23.9741 21.5002 24.1721 21.7273 24.1708C21.9533 24.1696 22.1395 23.9729 22.122 23.7475C22.1057 23.539 21.9365 23.3864 21.7273 23.3853C21.5169 23.3841 21.3447 23.5377 21.3283 23.7475Z" stroke="#B53A25" stroke-width="0.829187" stroke-linecap="round" stroke-linejoin="round"/>
<path d="M38.5158 61.6917C43.8731 67.0814 49.7927 66.6668 49.7927 66.6668C49.7927 66.6668 45.9785 65.3401 45.6882 61.6917C45.398 58.0433 45.1971 54.2518 42.0398 51.3683C39.4832 49.0334 33.7065 48.3418 33.7065 48.3418C33.7065 48.3418 34.6092 57.7615 38.5158 61.6917Z" stroke="#677662" stroke-width="1.49254" stroke-linecap="round" stroke-linejoin="round"/>
<path d="M39.5194 61.2764C43.9253 66.28 48.6245 66.4938 48.6245 66.4938C48.6245 66.4938 45.5543 65.0262 45.2264 61.9545C44.8987 58.883 44.6382 55.7004 42.0493 52.9959C39.9531 50.806 35.3381 49.6826 35.3381 49.6826C35.3381 49.6826 36.3065 57.6277 39.5194 61.2764Z" stroke="#677662" stroke-width="1.49254" stroke-linecap="round" stroke-linejoin="round"/>
<path d="M40.0798 62.0786C44.0945 66.5224 48.6245 66.494 48.6245 66.494C48.6245 66.494 45.7292 65.2766 45.5611 62.4336C45.3931 59.5906 45.2954 56.6411 42.9251 54.2492C41.0057 52.3124 36.6013 51.4902 36.6013 51.4902C36.6013 51.4902 37.1524 58.8382 40.0798 62.0786Z" stroke="#677662" stroke-width="1.49254" stroke-linecap="round" stroke-linejoin="round"/>
<path d="M41.0274 61.4009C44.4619 65.4644 47.775 65.9463 47.775 65.9463C47.775 65.9463 45.5197 64.633 45.0797 62.3009C44.6396 59.9688 44.2393 57.5579 42.2374 55.3474C40.6163 53.5575 37.3004 52.3975 37.3004 52.3975C37.3004 52.3975 38.5231 58.4378 41.0274 61.4009Z" stroke="#677662" stroke-width="1.49254" stroke-linecap="round" stroke-linejoin="round"/>
<path d="M41.6812 60.5347C44.1089 63.488 46.2773 63.9849 46.2773 63.9849C46.2773 63.9849 44.7515 62.9726 44.3491 61.3549C43.9466 59.7373 43.5657 58.0678 42.1586 56.4544C41.0191 55.148 38.8146 54.187 38.8146 54.187C38.8146 54.187 39.9108 58.3811 41.6812 60.5347Z" stroke="#677662" stroke-width="1.49254" stroke-linecap="round" stroke-linejoin="round"/>
<path d="M42.085 59.142C43.9227 61.4892 45.3247 62.0809 45.3247 62.0809C45.3247 62.0809 44.2641 61.1988 43.8332 60.0169C43.4024 58.835 42.9793 57.6191 41.925 56.3278C41.0715 55.2822 39.5951 54.3604 39.5951 54.3604C39.5951 54.3604 40.7448 57.4305 42.085 59.142Z" stroke="#677662" stroke-width="1.49254" stroke-linecap="round" stroke-linejoin="round"/>
<path d="M61.9298 61.7073C56.5725 67.0971 50.6528 66.6825 50.6528 66.6825C50.6528 66.6825 54.4671 65.3558 54.7573 61.7073C55.0475 58.0589 55.2484 54.2675 58.4057 51.384C60.9623 49.0491 66.7391 48.3574 66.7391 48.3574C66.7391 48.3574 65.8363 57.7772 61.9298 61.7073Z" stroke="#677662" stroke-width="1.49254" stroke-linecap="round" stroke-linejoin="round"/>
<path d="M60.9261 61.2925C56.5202 66.2962 51.821 66.5099 51.821 66.5099C51.821 66.5099 54.8912 65.0423 55.219 61.9707C55.5468 58.8991 55.8073 55.7165 58.3961 53.012C60.4925 50.8221 65.1073 49.6987 65.1073 49.6987C65.1073 49.6987 64.1389 57.6438 60.9261 61.2925Z" stroke="#677662" stroke-width="1.49254" stroke-linecap="round" stroke-linejoin="round"/>
<path d="M60.3656 62.0942C56.3509 66.5381 51.821 66.5096 51.821 66.5096C51.821 66.5096 54.7163 65.2923 54.8843 62.4492C55.0524 59.6062 55.15 56.6567 57.5204 54.2648C59.4398 52.3281 63.8442 51.5059 63.8442 51.5059C63.8442 51.5059 63.2931 58.8538 60.3656 62.0942Z" stroke="#677662" stroke-width="1.49254" stroke-linecap="round" stroke-linejoin="round"/>
<path d="M59.418 61.4171C55.9836 65.4806 52.6705 65.9624 52.6705 65.9624C52.6705 65.9624 54.9258 64.6491 55.3658 62.317C55.8058 59.9849 56.2061 57.574 58.2081 55.3636C59.8291 53.5736 63.1451 52.4136 63.1451 52.4136C63.1451 52.4136 61.9224 58.4539 59.418 61.4171Z" stroke="#677662" stroke-width="1.49254" stroke-linecap="round" stroke-linejoin="round"/>
<path d="M58.7644 60.5507C56.3365 63.5041 54.1681 64.0011 54.1681 64.0011C54.1681 64.0011 55.694 62.9886 56.0965 61.371C56.4989 59.7534 56.8797 58.0838 58.2869 56.4705C59.4263 55.1641 61.6309 54.2031 61.6309 54.2031C61.6309 54.2031 60.5347 58.3972 58.7644 60.5507Z" stroke="#677662" stroke-width="1.49254" stroke-linecap="round" stroke-linejoin="round"/>
<path d="M58.3605 59.1577C56.5227 61.5048 55.1207 62.0966 55.1207 62.0966C55.1207 62.0966 56.1814 61.2145 56.6123 60.0325C57.043 58.8507 57.4662 57.6347 58.5204 56.3435C59.374 55.298 60.8503 54.376 60.8503 54.376C60.8503 54.376 59.7006 57.4461 58.3605 59.1577Z" stroke="#677662" stroke-width="1.49254" stroke-linecap="round" stroke-linejoin="round"/>
</svg>
